<svg width="55" height="58" viewBox="0 0 55 58" fill="none" xmlns="http://www.w3.org/2000/svg">
<path d="M23.5966 34.0173C22.3174 34.4517 21.1781 34.9632 20.3986 35.7547C20.2654 35.8933 20.1715 36.0659 20.1268 36.2541L15.8936 53.4372C15.8656 53.5468 15.8656 53.7011 15.8656 53.7011C15.8656 54.2897 16.3453 54.7728 16.9249 54.7728C17.0289 54.7728 17.5085 54.7729 17.8243 54.2533L22.2135 46.8408V56.9202C22.2135 57.5169 22.6852 58 23.2688 57.996H31.7312C32.3109 57.996 32.7865 57.5088 32.7905 56.9202V46.8408L37.1637 54.2533C37.4595 54.7729 37.9712 54.7728 38.0751 54.7728C38.6587 54.7728 39.1344 54.2897 39.1344 53.7011C39.1344 53.7011 39.1344 53.5631 39.1024 53.4372L34.8692 36.2541C34.8222 36.065 34.7255 35.8923 34.5894 35.7547C33.8139 34.9632 32.6826 34.4557 31.4034 34.0173C30.1477 33.5725 28.8315 33.3288 27.502 33.2948C26.2668 33.2948 24.8757 33.587 23.5966 34.0173ZM30.7279 36.0552C31.7472 36.4002 32.5427 36.8183 32.8985 37.1187L35.3209 46.9504L32.6346 42.404C32.3268 41.8844 31.8352 41.8844 31.7312 41.8844C31.4503 41.8844 31.1809 41.9977 30.9822 42.1994C30.7835 42.4012 30.6719 42.6748 30.6719 42.9601V55.8486H24.3281C24.3161 51.5538 24.3281 47.2549 24.3281 42.9601C24.3289 42.724 24.2532 42.4942 24.1127 42.3061C23.9722 42.118 23.7746 41.982 23.5505 41.9192C23.3264 41.8564 23.0881 41.8703 22.8725 41.9586C22.6569 42.0469 22.4759 42.2049 22.3574 42.4081L19.6551 46.9748L22.1055 37.0984C22.3574 36.8832 23.2328 36.4002 24.2521 36.0552C25.3554 35.6858 26.6186 35.4422 27.498 35.4422C28.3814 35.4422 29.6286 35.6858 30.7279 36.0552ZM33.8459 17.1792C32.9864 17.1792 32.7865 18.2548 31.5553 18.2548H25.3834C24.9305 18.2504 24.4886 18.3959 24.1242 18.669C23.8112 18.925 23.5802 19.2697 23.4606 19.6594C23.3523 19.9805 23.2878 20.3151 23.2688 20.6539C22.7666 20.8883 22.3348 21.254 22.0176 21.7135C21.466 22.4848 21.1542 23.5158 21.1542 24.7011V26.8526C21.1542 28.2815 21.8937 29.4099 22.7411 30.1C23.5886 30.7901 24.504 31.1434 25.3834 31.1434H29.6166C31.9391 31.1434 33.8459 29.2111 33.8459 26.8485C33.8459 25.9555 33.554 25.1395 33.0863 24.4535C33.9209 24.1665 34.6466 23.6224 35.1624 22.8971C35.6783 22.1717 35.9586 21.301 35.9645 20.4063C35.9645 20.4063 35.9685 19.8217 35.7926 19.16C35.6207 18.4984 35.205 17.512 34.1257 17.2197C34.0348 17.1926 33.9406 17.179 33.8459 17.1792ZM33.7499 19.696C33.8379 20.0369 33.8459 20.4063 33.8459 20.4063C33.8459 21.6119 32.9225 22.5538 31.7312 22.5538H29.6126C27.2941 22.5538 25.3834 24.49 25.3834 26.8485V29C24.9034 28.927 24.4495 28.7315 24.0643 28.4317C23.8156 28.2527 23.6133 28.0152 23.4748 27.7395C23.3363 27.4638 23.2656 27.158 23.2688 26.8485V24.7011C23.2688 23.9055 23.4886 23.3209 23.7325 22.9758C23.9763 22.6308 24.2042 22.5538 24.3281 22.5538C24.4671 22.5543 24.6049 22.5268 24.7335 22.4729C24.862 22.419 24.9787 22.3397 25.0769 22.2396C25.1751 22.1396 25.2527 22.0208 25.3053 21.89C25.3579 21.7593 25.3844 21.6192 25.3834 21.478V20.4063H31.5553C32.6506 20.4063 33.7499 19.696 33.7499 19.696ZM29.6166 24.7011C30.7958 24.7011 31.7312 25.651 31.7312 26.8526C31.7328 27.1352 31.6791 27.4154 31.5731 27.6767C31.4671 27.938 31.3109 28.1752 31.1138 28.3746C30.9166 28.5741 30.6824 28.7318 30.4247 28.8384C30.1669 28.9451 29.8909 28.9986 29.6126 28.9959H27.502V26.8485C27.5031 26.2793 27.7262 25.7337 28.1225 25.3312C28.5189 24.9287 29.0561 24.7022 29.6166 24.7011ZM7.40715 22.5497C4.49706 22.5497 2.11861 24.9691 2.11861 27.9243C2.11861 29.4669 2.77418 30.8469 3.80551 31.8293C3.28771 32.0274 2.79195 32.2805 2.32648 32.5844C0.967366 33.5018 0 34.8942 0 36.5139V45.1076C0.00399738 45.6962 0.479686 46.1792 1.05931 46.1832H13.751C14.3306 46.1832 14.8063 45.6962 14.8103 45.1076V36.5139C14.8103 34.8901 13.8349 33.5018 12.4798 32.5844C12.0143 32.2806 11.5186 32.0275 11.0008 31.8293C12.0401 30.8469 12.6917 29.4628 12.6917 27.9243C12.6917 24.9691 10.3133 22.5538 7.40715 22.5538V22.5497ZM7.40715 24.7011C7.82422 24.6995 8.23746 24.7818 8.62303 24.9432C9.00861 25.1047 9.35886 25.3421 9.65359 25.6418C9.94831 25.9415 10.1817 26.2974 10.3402 26.6892C10.4987 27.081 10.5792 27.5008 10.5771 27.9243C10.5787 28.3475 10.4978 28.7668 10.339 29.158C10.1803 29.5493 9.94684 29.9049 9.65216 30.2041C9.35749 30.5033 9.00741 30.7403 8.6221 30.9016C8.23679 31.0628 7.82388 31.145 7.40715 31.1434C6.99009 31.1455 6.57674 31.0638 6.19097 30.9028C5.8052 30.7418 5.45465 30.5048 5.15955 30.2055C4.86446 29.9062 4.63066 29.5506 4.47167 29.159C4.31268 28.7675 4.23164 28.3478 4.23323 27.9243C4.23111 27.5004 4.31176 27.0804 4.47051 26.6883C4.62927 26.2963 4.86298 25.9401 5.15813 25.6404C5.45327 25.3407 5.80401 25.1033 6.19004 24.9421C6.57608 24.7809 6.98975 24.699 7.40715 24.7011ZM7.40715 33.2948C8.97413 33.2948 10.3692 33.7331 11.3086 34.3664C12.248 35.0037 12.6957 35.7588 12.6917 36.5179V44.0318H10.5771V38.6653C10.5809 38.5234 10.5563 38.3821 10.5046 38.2501C10.453 38.1181 10.3755 37.998 10.2768 37.8974C10.1781 37.7968 10.0602 37.7177 9.93043 37.6647C9.80064 37.6118 9.6616 37.5862 9.52177 37.5896C9.38251 37.589 9.24452 37.6165 9.11576 37.6703C8.98701 37.7242 8.87002 37.8035 8.77155 37.9035C8.67308 38.0035 8.59507 38.1223 8.54202 38.2531C8.48897 38.3838 8.46193 38.5239 8.46246 38.6653V44.0318H6.34785V38.6653C6.34945 38.5236 6.32315 38.3829 6.27049 38.2517C6.21782 38.1204 6.13985 38.0012 6.04116 37.901C5.94248 37.8008 5.82506 37.7216 5.69581 37.6681C5.56657 37.6146 5.4281 37.5879 5.28854 37.5896C5.14962 37.5896 5.01206 37.6175 4.88376 37.6716C4.75547 37.7257 4.63895 37.805 4.54091 37.905C4.44286 38.0049 4.36521 38.1234 4.31241 38.2539C4.25961 38.3844 4.2327 38.5243 4.23323 38.6653V44.0318H2.11462V36.5139C2.11462 35.7588 2.56232 35.0037 3.50171 34.3664C4.44109 33.7331 5.83618 33.2948 7.40715 33.2948ZM47.5969 22.5538C44.6868 22.5538 42.3083 24.9691 42.3083 27.9243C42.3083 29.4669 42.9679 30.847 43.9992 31.8253C43.4676 32.0405 42.9599 32.2799 42.5162 32.5844C41.1611 33.5018 40.1937 34.8942 40.1937 36.5139V45.1076C40.1937 45.7002 40.6654 46.1832 41.249 46.1832H53.9407C54.2216 46.1832 54.4911 46.0699 54.6897 45.8682C54.8884 45.6665 55 45.3929 55 45.1076V36.5139C55 34.8901 54.0286 33.5018 52.6735 32.5844C52.2081 32.2805 51.7123 32.0274 51.1945 31.8293C52.2258 30.8469 52.8854 29.4669 52.8854 27.9243C52.8854 24.9691 50.5029 22.5538 47.5969 22.5538ZM47.5969 24.7011C48.0139 24.6995 48.4272 24.7818 48.8127 24.9432C49.1983 25.1047 49.5486 25.3421 49.8433 25.6418C50.138 25.9415 50.3714 26.2974 50.5299 26.6892C50.6884 27.081 50.7689 27.5008 50.7668 27.9243C50.7684 28.3475 50.6875 28.7668 50.5287 29.158C50.37 29.5493 50.1365 29.9049 49.8419 30.2041C49.5472 30.5033 49.1971 30.7403 48.8118 30.9016C48.4265 31.0628 48.0136 31.145 47.5969 31.1434C47.1798 31.1455 46.7664 31.0638 46.3807 30.9028C45.9949 30.7418 45.6443 30.5048 45.3493 30.2055C45.0542 29.9062 44.8204 29.5506 44.6614 29.159C44.5024 28.7675 44.4213 28.3478 44.4229 27.9243C44.4208 27.5004 44.5015 27.0804 44.6602 26.6883C44.819 26.2963 45.0527 25.9401 45.3478 25.6404C45.643 25.3407 45.9937 25.1033 46.3797 24.9421C46.7658 24.7809 47.1795 24.699 47.5969 24.7011ZM47.5969 33.2948C49.1638 33.2948 50.5629 33.7331 51.5023 34.3664C52.4417 35.0037 52.8854 35.7588 52.8854 36.5179V44.0318H50.7668V38.6653C50.7706 38.5234 50.746 38.3821 50.6943 38.2501C50.6427 38.1181 50.5652 37.998 50.4665 37.8974C50.3678 37.7968 50.2499 37.7177 50.1201 37.6647C49.9903 37.6118 49.8513 37.5862 49.7115 37.5896C49.5722 37.589 49.4342 37.6165 49.3055 37.6703C49.1767 37.7242 49.0597 37.8035 48.9612 37.9035C48.8628 38.0035 48.7848 38.1223 48.7317 38.2531C48.6787 38.3838 48.6516 38.5239 48.6522 38.6653V44.0318H46.5375V38.6653C46.5391 38.524 46.513 38.3837 46.4605 38.2527C46.4081 38.1217 46.3305 38.0026 46.2323 37.9025C46.134 37.8023 46.0171 37.7231 45.8883 37.6693C45.7595 37.6156 45.6215 37.5885 45.4822 37.5896C45.343 37.589 45.205 37.6165 45.0762 37.6703C44.9475 37.7242 44.8305 37.8035 44.732 37.9035C44.6335 38.0035 44.5555 38.1223 44.5025 38.2531C44.4494 38.3838 44.4224 38.5239 44.4229 38.6653V44.0318H42.3043V36.5139C42.3043 35.7588 42.748 35.0037 43.6874 34.3664C44.6268 33.7331 46.0259 33.2948 47.5969 33.2948ZM27.502 0C25.1755 0 23.2688 1.93625 23.2688 4.29473C23.2688 5.32175 23.6485 6.25546 24.2481 6.99833C23.6049 7.21224 22.9911 7.50816 22.4213 7.87913C21.0662 8.79654 20.0988 10.1929 20.0988 11.8126V16.1075C20.09 16.254 20.1107 16.4009 20.1598 16.539C20.209 16.677 20.2854 16.8035 20.3845 16.9105C20.4835 17.0174 20.6031 17.1027 20.7358 17.161C20.8685 17.2192 21.0116 17.2493 21.1562 17.2493C21.3007 17.2493 21.4438 17.2192 21.5765 17.161C21.7092 17.1027 21.8288 17.0174 21.9279 16.9105C22.0269 16.8035 22.1033 16.677 22.1525 16.539C22.2016 16.4009 22.2223 16.254 22.2135 16.1075V11.8126C22.2135 11.0535 22.6572 10.2985 23.5966 9.66116C24.5399 9.0279 25.931 8.58959 27.502 8.58959C29.069 8.58959 30.4681 9.0279 31.4074 9.66116C32.3468 10.2985 32.7905 11.0535 32.7905 11.8126V13.9641C32.8071 14.2374 32.9257 14.4941 33.1222 14.6817C33.3186 14.8693 33.5782 14.9738 33.8478 14.9738C34.1175 14.9738 34.3771 14.8693 34.5735 14.6817C34.77 14.4941 34.8886 14.2374 34.9052 13.9641V11.8126C34.9052 10.1889 33.9338 8.79654 32.5787 7.87913C32.0102 7.50843 31.3977 7.21252 30.7559 6.99833C31.3555 6.25546 31.7312 5.32175 31.7312 4.29473C31.7312 1.93625 29.8245 0 27.502 0ZM27.502 2.14737C28.6812 2.14737 29.6166 3.09722 29.6166 4.29473C29.6166 5.49224 28.6812 6.44619 27.498 6.44619C27.2194 6.44835 26.9431 6.39415 26.6853 6.28675C26.4275 6.17935 26.1934 6.02085 25.9966 5.82058C25.7997 5.62031 25.6441 5.38226 25.5389 5.12028C25.4336 4.8583 25.3807 4.57767 25.3834 4.29473C25.3834 3.09722 26.3188 2.14328 27.502 2.14328V2.14737Z" fill="#DD2A1B"/>
<path d="M9.52175 7.51788C7.19527 7.51788 5.28852 9.45412 5.28852 11.8126C5.28852 12.8396 5.66428 13.7733 6.26388 14.5162C5.62196 14.7302 5.00944 15.0262 4.44108 15.3971C3.08197 16.3105 2.1186 17.711 2.1186 19.3347V20.4063C2.13516 20.6796 2.25376 20.9363 2.45022 21.1239C2.64669 21.3115 2.90622 21.416 3.1759 21.416C3.44559 21.416 3.70512 21.3115 3.90159 21.1239C4.09805 20.9363 4.21665 20.6796 4.23321 20.4063V19.3306C4.23321 18.5715 4.68092 17.8245 5.62031 17.1872C6.55969 16.5499 7.95078 16.1075 9.52175 16.1075C11.0887 16.1075 12.4878 16.554 13.4272 17.1872C14.3666 17.8245 14.8103 18.5715 14.8103 19.3306V25.7768C14.8113 26.0607 14.9229 26.3327 15.1205 26.5335C15.3182 26.7342 15.586 26.8474 15.8656 26.8485C16.1459 26.8485 16.4147 26.7357 16.6132 26.5348C16.8118 26.334 16.9238 26.0614 16.9249 25.7768V19.3306C16.9249 17.7069 15.9495 16.3145 14.5944 15.393C14.0548 15.0277 13.4352 14.7476 12.7756 14.5162C13.3752 13.7733 13.751 12.8396 13.751 11.8126C13.751 9.45412 11.8442 7.51788 9.52175 7.51788ZM9.52175 9.66525C10.701 9.66525 11.6364 10.6151 11.6364 11.8126C11.6364 13.0101 10.701 13.9641 9.51775 13.9641C9.23946 13.9657 8.96363 13.9112 8.70631 13.8035C8.44899 13.6959 8.21533 13.5373 8.01891 13.3371C7.8225 13.1369 7.66726 12.899 7.56223 12.6373C7.4572 12.3756 7.40448 12.0952 7.40714 11.8126C7.40714 10.6151 8.33853 9.66116 9.52175 9.66116V9.66525ZM45.4822 7.51379C43.1557 7.51379 41.249 9.45412 41.249 11.8126C41.249 12.8396 41.6247 13.7733 42.2243 14.5162C41.5688 14.7476 40.9452 15.0318 40.4055 15.3971C39.0504 16.3105 38.0751 17.711 38.0751 19.3347V25.7768C38.0761 26.0614 38.1882 26.334 38.3867 26.5348C38.5853 26.7357 38.8541 26.8485 39.1344 26.8485C39.4146 26.8485 39.6835 26.7357 39.882 26.5348C40.0805 26.334 40.1926 26.0614 40.1937 25.7768V19.3306C40.1937 18.5715 40.6334 17.8245 41.5728 17.1872C42.5122 16.5499 43.9112 16.1075 45.4822 16.1075C47.0492 16.1075 48.4403 16.554 49.3837 17.1872C50.323 17.8245 50.7668 18.5715 50.7668 19.3306V20.4063C50.7668 20.6916 50.8784 20.9652 51.077 21.1669C51.2757 21.3687 51.5451 21.4821 51.8261 21.4821C52.107 21.4821 52.3764 21.3687 52.5751 21.1669C52.7738 20.9652 52.8854 20.6916 52.8854 20.4063V19.3306C52.8854 17.7069 51.918 16.3145 50.5629 15.393C49.993 15.0233 49.3792 14.7286 48.7361 14.5162C49.3357 13.7733 49.7114 12.8396 49.7114 11.8126C49.7114 9.45412 47.8047 7.51788 45.4822 7.51788V7.51379ZM45.4822 9.66525C46.6614 9.66525 47.5968 10.6151 47.5968 11.8126C47.5968 13.0101 46.6614 13.9641 45.4782 13.9641C45.1996 13.9662 44.9233 13.912 44.6655 13.8046C44.4078 13.6972 44.1736 13.5389 43.9768 13.3386C43.7799 13.1383 43.6243 12.9003 43.5191 12.6383C43.4138 12.3763 43.3609 12.0956 43.3636 11.8126C43.3636 10.6151 44.299 9.66116 45.4822 9.66116V9.66525Z" fill="#DD2A1B"/>
<path d="M16.9209 30.0676C16.9209 30.3522 16.8099 30.6252 16.6121 30.8268C16.4143 31.0284 16.1459 31.1422 15.8656 31.1433C15.586 31.1422 15.3182 31.029 15.1206 30.8282C14.9229 30.6275 14.8113 30.3555 14.8103 30.0716C14.8103 29.787 14.9213 29.514 15.1191 29.3124C15.3169 29.1108 15.5854 28.997 15.8656 28.9959C16.1465 28.9959 16.416 29.1092 16.6146 29.311C16.8133 29.5127 16.9249 29.7863 16.9249 30.0716L16.9209 30.0676ZM40.1937 30.0676C40.1937 30.3529 40.0821 30.6265 39.8834 30.8282C39.6848 31.03 39.4153 31.1433 39.1344 31.1433C38.8541 31.1433 38.5853 31.0305 38.3867 30.8297C38.1882 30.6288 38.0761 30.3562 38.0751 30.0716C38.0751 29.7863 38.1867 29.5127 38.3853 29.311C38.584 29.1092 38.8534 28.9959 39.1344 28.9959C39.4153 28.9959 39.6848 29.1092 39.8834 29.311C40.0821 29.5127 40.1937 29.7863 40.1937 30.0716V30.0676ZM16.9209 56.9243C16.9209 57.2096 16.8093 57.4832 16.6106 57.6849C16.412 57.8867 16.1426 58 15.8616 58C15.5814 57.9989 15.3129 57.8851 15.1151 57.6835C14.9174 57.4819 14.8063 57.2089 14.8063 56.9243C14.8073 56.6404 14.9189 56.3684 15.1166 56.1677C15.3142 55.9669 15.582 55.8537 15.8616 55.8526C16.1419 55.8526 16.4107 55.9654 16.6092 56.1662C16.8078 56.3671 16.9199 56.6397 16.9209 56.9243ZM40.1857 56.9243C40.1857 57.2089 40.0746 57.4819 39.8768 57.6835C39.679 57.8851 39.4106 57.9989 39.1304 58C38.8494 58 38.58 57.8867 38.3813 57.6849C38.1827 57.4832 38.0711 57.2096 38.0711 56.9243C38.0721 56.6397 38.1842 56.3671 38.3827 56.1662C38.5813 55.9654 38.8501 55.8526 39.1304 55.8526C39.4106 55.8526 39.6795 55.9654 39.878 56.1662C40.0766 56.3671 40.1846 56.6397 40.1857 56.9243Z" fill="#DD2A1B"/>
</svg>
