<svg width="61" height="58" viewBox="0 0 61 58" fill="none" xmlns="http://www.w3.org/2000/svg">
<path fill-rule="evenodd" clip-rule="evenodd" d="M60.2544 6.22433C52.3834 17.8619 28.6748 41.4008 28.6748 41.4008L28.6656 41.3916C28.6099 41.4523 28.5595 41.5155 28.4998 41.5749C27.0097 43.0541 24.9879 43.6527 23.0457 43.4246C23.6701 46.0245 23.0112 48.8789 21.0186 50.9105C21.0186 50.9105 11.0489 63.1704 0 55.4459C0 55.4459 5.95796 53.786 6.47633 49.0054C6.47633 49.0054 5.68088 44.188 10.0546 39.7238C10.9713 38.7811 12.1187 38.0916 13.3842 37.7227C14.6497 37.3538 15.9899 37.3183 17.2733 37.6196C17.0718 35.7159 17.675 33.7435 19.144 32.284C19.2023 32.2247 19.2673 32.1746 19.3282 32.1179L19.319 32.1087C19.319 32.1087 43.0129 8.5566 54.7326 0.739744C55.4952 0.195487 56.4271 -0.062137 57.3627 0.0127007C58.2983 0.0875384 59.1769 0.489985 59.8421 1.14845C60.5057 1.80804 60.9116 2.68096 60.9872 3.61097C61.0627 4.54098 60.803 5.46737 60.2544 6.22433ZM19.1731 41.5142C18.1894 40.536 16.914 39.9783 15.5498 39.9783C14.8702 39.9789 14.1977 40.116 13.5726 40.3813C12.9475 40.6466 12.3826 41.0346 11.9119 41.5221C8.55115 44.9526 9.05493 48.8841 9.06819 49.0067C8.77918 51.6699 7.26118 53.9389 5.67823 55.3035C6.2377 55.405 6.8038 55.4564 7.38183 55.4564C13.6792 55.4564 18.9849 49.3126 19.0339 49.2546C19.0352 49.2546 22.6652 44.9882 19.1731 41.5142ZM19.8864 36.9288C19.8864 37.9782 20.2695 38.9671 21.0186 39.7093C21.7676 40.4529 22.8057 40.884 23.8637 40.884C24.9216 40.884 25.8775 40.4542 26.6027 39.7317L28.6629 37.6618L29.0262 37.2927L23.462 31.7593L23.0815 32.1271L21.0173 34.1535C20.2695 34.8945 19.8864 35.8793 19.8864 36.9288ZM57.9701 3.01664C57.8496 2.89655 57.7064 2.8014 57.5487 2.73668C57.391 2.67196 57.222 2.63896 57.0514 2.63957C56.7703 2.63957 56.5025 2.72395 56.2095 2.93226C47.966 8.43003 32.3472 23.1923 25.318 29.9636L30.8319 35.4469C37.6463 28.4646 52.5266 12.9245 58.1001 4.68575C58.2827 4.43806 58.37 4.13348 58.3462 3.82724C58.3224 3.52101 58.1889 3.23342 57.9701 3.01664Z" fill="#DD2A1B"/>
</svg>
