<svg width="49" height="60" viewBox="0 0 49 60" fill="none" xmlns="http://www.w3.org/2000/svg">
<path d="M3.92 13.4511V17.5571C2.2344 17.9897 0.98 19.4926 0.98 21.2907V46.4517C0.98 48.2498 2.2344 49.7527 3.92 50.1852V54.3717C2.78222 54.7723 1.96 55.8368 1.96 57.0968C1.96 58.6974 3.27908 60 4.9 60C6.52092 60 7.84 58.6974 7.84 57.0968C7.84 55.8368 7.01778 54.7723 5.88 54.3717V50.1852C7.5656 49.7527 8.82 48.2498 8.82 46.4517V21.2907C8.82 19.4926 7.5656 17.9897 5.88 17.5571V13.4511C8.11342 13.0011 9.8 11.0472 9.8 8.71012C9.8 6.04208 7.60186 3.87146 4.9 3.87146C2.19814 3.87146 0 6.04208 0 8.71012C0 11.0462 1.68658 13.0011 3.92 13.4511ZM4.9 58.0645C4.36002 58.0645 3.92 57.63 3.92 57.0968C3.92 56.5636 4.36002 56.1291 4.9 56.1291C5.43998 56.1291 5.88 56.5636 5.88 57.0968C5.88 57.63 5.43998 58.0645 4.9 58.0645ZM6.86 21.2907V46.4517C6.86 47.5191 5.98094 48.3872 4.9 48.3872C3.81906 48.3872 2.94 47.5191 2.94 46.4517V21.2907C2.94 20.2233 3.81906 19.3552 4.9 19.3552C5.98094 19.3552 6.86 20.2233 6.86 21.2907ZM4.9 5.80692C6.52092 5.80692 7.84 7.10949 7.84 8.71012C7.84 10.3108 6.52092 11.6133 4.9 11.6133C3.27908 11.6133 1.96 10.3108 1.96 8.71012C1.96 7.10949 3.27908 5.80692 4.9 5.80692ZM16.5306 56.6865C16.6316 58.5445 18.1868 60 20.0714 60C21.9843 60 23.5406 58.5213 23.6131 56.6333L25.48 8.71012C25.48 6.57627 24.5284 4.57016 22.8683 3.20566L20.0469 0.884064C19.355 0.314069 18.4779 0.000523605 17.5783 0.000523605C15.4507 0.000523605 13.72 1.70954 13.72 3.81049C13.72 4.51403 13.7396 5.21661 13.7778 5.91918L16.5306 56.6865ZM17.5783 1.93599C18.0212 1.93599 18.4534 2.08986 18.7935 2.3705L21.6149 4.6921C22.8262 5.68886 23.521 7.15304 23.522 8.67335L21.656 56.5597C21.6217 57.4036 20.9269 58.0645 20.0714 58.0645C19.2286 58.0645 18.5338 57.4142 18.4877 56.5829L15.7339 5.81563C15.6986 5.14693 15.68 4.47823 15.68 3.81049C15.68 2.77695 16.5316 1.93599 17.5783 1.93599ZM42.1537 53.3855C42.2321 53.851 42.6408 54.1936 43.12 54.1936H44.1V60H46.06V54.1936H47.04C47.5192 54.1936 47.9279 53.851 48.0063 53.3855L48.9863 47.5791C48.9961 47.5259 49 47.4727 49 47.4195L48.9971 22.1839L48.02 9.67786L48.019 0.968257C48.019 0.601486 47.8093 0.26665 47.4771 0.102136C47.1439 -0.0623791 46.747 -0.0256052 46.451 0.19407L42.532 3.09727C42.285 3.28017 42.14 3.56662 42.14 3.87146L42.1429 9.60334L41.16 22.2584V47.4195C41.16 47.4727 41.1639 47.5259 41.1737 47.5791L42.1537 53.3855ZM46.1325 10.6456L46.9645 21.2907H43.1984L44.0255 10.6456H46.1325ZM47.04 23.2261V46.4517H43.12L43.1171 23.2261H47.04ZM43.9501 52.2581L43.2964 48.3872H46.8626L46.209 52.2581H43.9501ZM46.06 2.90372L46.0629 8.71012H44.1V4.35532L46.06 2.90372ZM30.33 57.1229C30.3722 58.7361 31.6854 60 33.32 60C34.9537 60 36.2669 58.7361 36.309 57.1229L37.24 21.2907V7.97755C37.24 5.07145 36.0944 2.33954 34.0129 0.28407C33.6297 -0.0943143 33.0103 -0.0943143 32.6271 0.28407C30.5456 2.33954 29.4 5.07145 29.4 7.97755V21.2907C29.4 21.2994 29.4 21.3071 29.4 21.3149L30.33 57.1229ZM33.32 58.0645C32.7565 58.0645 32.3037 57.6291 32.29 57.0736L31.3855 22.2584H35.2545L34.35 57.0736C34.3353 57.6291 33.8825 58.0645 33.32 58.0645ZM31.36 20.3229V10.6456H35.28V20.3229H31.36ZM33.32 2.41889C34.5901 3.99436 35.28 5.9337 35.28 7.97755V8.71012H31.36V7.97755C31.36 5.9337 32.0499 3.99339 33.32 2.41889Z" fill="#DD2A1B"/>
</svg>
