<svg width="60" height="60" viewBox="0 0 60 60" fill="none" xmlns="http://www.w3.org/2000/svg">
<path d="M30.0203 0C34.8735 0 39.7082 1.1972 44.004 3.4621C58.6297 11.1791 64.2543 29.3565 56.5426 43.9871C51.2825 53.9638 40.9261 60 29.9859 60C27.8486 60 25.6901 59.7701 23.5422 59.2944C22.3322 59.0248 21.5687 57.825 21.8356 56.6145C22.1024 55.4041 23.2992 54.6456 24.5171 54.9073C35.6898 57.3915 47.2245 52.0292 52.5691 41.8914C59.1264 29.4543 54.3445 13.9964 41.9089 7.4369C38.2578 5.51028 34.1469 4.4928 30.0176 4.4928C15.9309 4.4928 4.49131 15.9336 4.49131 29.996C4.48603 34.0924 5.48468 38.1703 7.37894 41.7936L7.95488 42.9194C8.66027 44.2408 8.81615 45.882 8.35909 47.3673C7.72767 49.0323 7.20193 50.6523 6.76865 52.2645C8.4542 51.757 10.5123 51.0091 11.9997 50.4673L12.61 50.248C13.7645 49.8172 15.0617 50.4277 15.4844 51.5958C15.9071 52.7613 15.3021 54.051 14.137 54.4712L13.5346 54.6906C11.3101 55.4966 8.26662 56.604 6.21121 57.0638C6.03684 57.1008 5.84926 57.1246 5.67754 57.1193C4.29845 57.1193 3.45832 56.5617 2.99598 56.0913C2.2853 55.3698 1.94714 54.3576 1.98676 53.0837C1.99205 52.9384 2.01054 52.7877 2.04489 52.6424C2.57856 50.3696 3.27338 48.102 4.11352 45.9058C4.17428 45.6918 4.13729 45.3033 3.96557 44.9782L3.38699 43.855C1.17041 39.6106 -0.00524851 34.8086 1.76141e-05 29.9934C1.76141e-05 13.4546 13.4527 0 29.9859 0H30.0203ZM29.987 26.4285C31.9552 26.4285 33.5536 28.03 33.5536 29.9963C33.5536 31.9626 31.9552 33.5641 29.987 33.5641C28.0187 33.5641 26.4204 31.9626 26.4204 29.9963C26.4204 28.03 28.0187 26.4285 29.987 26.4285ZM43.1966 26.4285C45.1648 26.4285 46.7632 28.03 46.7632 29.9963C46.7632 31.9626 45.1648 33.5641 43.1966 33.5641C41.2284 33.5641 39.63 31.9626 39.63 29.9963C39.63 28.03 41.2284 26.4285 43.1966 26.4285ZM16.7771 26.4295C18.7453 26.4295 20.3437 28.0285 20.3437 29.9974C20.3437 31.9636 18.7453 33.5625 16.7771 33.5625C14.8088 33.5625 13.2105 31.9636 13.2105 29.9974C13.2105 28.0285 14.8088 26.4295 16.7771 26.4295Z" fill="#DD2A1B"/>
</svg>
