<svg width="58" height="46" viewBox="0 0 58 46" fill="none" xmlns="http://www.w3.org/2000/svg">
<path d="M22.0954 8.62503H5.5245C4.40025 8.62063 3.30168 8.97489 2.3767 9.64013C1.45172 10.3054 0.744723 11.2496 0.350891 12.3458C-0.0429416 13.442 -0.104703 14.6374 0.173918 15.7713C0.452539 16.9051 1.05817 17.9228 1.90928 18.6875C1.31059 19.22 0.82989 19.8813 0.500284 20.6258C0.170679 21.3703 0 22.1803 0 23C0 23.8197 0.170679 24.6297 0.500284 25.3742C0.82989 26.1187 1.31059 26.78 1.90928 27.3125C1.31059 27.845 0.82989 28.5063 0.500284 29.2508C0.170679 29.9952 0 30.8052 0 31.625C0 32.4447 0.170679 33.2547 0.500284 33.9992C0.82989 34.7437 1.31059 35.405 1.90928 35.9375C1.05817 36.7021 0.452539 37.7199 0.173918 38.8537C-0.104703 39.9875 -0.0429416 41.183 0.350891 42.2792C0.744723 43.3754 1.45172 44.3196 2.3767 44.9849C3.30168 45.6501 4.40025 46.0044 5.5245 46H22.0954C23.2197 46.0044 24.3183 45.6501 25.2432 44.9849C26.1682 44.3196 26.8752 43.3754 27.2691 42.2792C27.6629 41.183 27.7247 39.9875 27.446 38.8537C27.1674 37.7199 26.5618 36.7021 25.7107 35.9375C26.3094 35.405 26.7901 34.7437 27.1197 33.9992C27.4493 33.2547 27.62 32.4447 27.62 31.625C27.62 30.8052 27.4493 29.9952 27.1197 29.2508C26.7901 28.5063 26.3094 27.845 25.7107 27.3125C26.3094 26.78 26.7901 26.1187 27.1197 25.3742C27.4493 24.6297 27.62 23.8197 27.62 23C27.62 22.1803 27.4493 21.3703 27.1197 20.6258C26.7901 19.8813 26.3094 19.22 25.7107 18.6875C26.5618 17.9228 27.1674 16.9051 27.446 15.7713C27.7247 14.6374 27.6629 13.442 27.2691 12.3458C26.8752 11.2496 26.1682 10.3054 25.2432 9.64013C24.3183 8.97489 23.2197 8.62063 22.0954 8.62503ZM22.0954 43.125H5.5245C4.79202 43.125 4.08954 42.8221 3.5716 42.2829C3.05366 41.7437 2.76268 41.0125 2.76268 40.25C2.76268 39.4875 3.05366 38.7562 3.5716 38.217C4.08954 37.6779 4.79202 37.375 5.5245 37.375H22.0954C22.8279 37.375 23.5304 37.6779 24.0484 38.217C24.5663 38.7562 24.8573 39.4875 24.8573 40.25C24.8573 41.0125 24.5663 41.7437 24.0484 42.2829C23.5304 42.8221 22.8279 43.125 22.0954 43.125ZM22.0954 34.5H5.5245C4.79202 34.5 4.08954 34.1971 3.5716 33.6579C3.05366 33.1188 2.76268 32.3875 2.76268 31.625C2.76268 30.8625 3.05366 30.1312 3.5716 29.5921C4.08954 29.0529 4.79202 28.75 5.5245 28.75H22.0954C22.8279 28.75 23.5304 29.0529 24.0484 29.5921C24.5663 30.1312 24.8573 30.8625 24.8573 31.625C24.8573 32.3875 24.5663 33.1188 24.0484 33.6579C23.5304 34.1971 22.8279 34.5 22.0954 34.5ZM22.0954 25.875H5.5245C4.79202 25.875 4.08954 25.5721 3.5716 25.0329C3.05366 24.4938 2.76268 23.7625 2.76268 23C2.76268 22.2375 3.05366 21.5062 3.5716 20.9671C4.08954 20.4279 4.79202 20.125 5.5245 20.125H22.0954C22.8279 20.125 23.5304 20.4279 24.0484 20.9671C24.5663 21.5062 24.8573 22.2375 24.8573 23C24.8573 23.7625 24.5663 24.4938 24.0484 25.0329C23.5304 25.5721 22.8279 25.875 22.0954 25.875ZM22.0954 17.25H5.5245C4.79202 17.25 4.08954 16.9471 3.5716 16.4079C3.05366 15.8688 2.76268 15.1375 2.76268 14.375C2.76268 13.6125 3.05366 12.8813 3.5716 12.3421C4.08954 11.8029 4.79202 11.5 5.5245 11.5H22.0954C22.8279 11.5 23.5304 11.8029 24.0484 12.3421C24.5663 12.8813 24.8573 13.6125 24.8573 14.375C24.8573 15.1375 24.5663 15.8688 24.0484 16.4079C23.5304 16.9471 22.8279 17.25 22.0954 17.25ZM56.0907 10.0625C56.9418 9.29786 57.5475 8.28011 57.8261 7.14629C58.1047 6.01246 58.0429 4.81699 57.6491 3.72081C57.2553 2.62463 56.5483 1.68037 55.6233 1.01514C54.6983 0.349909 53.5998 -0.00435349 52.4755 4.03827e-05H35.9046C34.7803 -0.00435349 33.6817 0.349909 32.7568 1.01514C31.8318 1.68037 31.1248 2.62463 30.731 3.72081C30.3371 4.81699 30.2754 6.01246 30.554 7.14629C30.8326 8.28011 31.4382 9.29786 32.2893 10.0625C31.6906 10.595 31.21 11.2563 30.8803 12.0008C30.5507 12.7453 30.3801 13.5553 30.3801 14.375C30.3801 15.1948 30.5507 16.0048 30.8803 16.7492C31.21 17.4937 31.6906 18.155 32.2893 18.6875C31.6906 19.22 31.21 19.8813 30.8803 20.6258C30.5507 21.3703 30.3801 22.1803 30.3801 23C30.3801 23.8197 30.5507 24.6297 30.8803 25.3742C31.21 26.1187 31.6906 26.78 32.2893 27.3125C31.6906 27.845 31.21 28.5063 30.8803 29.2508C30.5507 29.9952 30.3801 30.8052 30.3801 31.625C30.3801 32.4447 30.5507 33.2547 30.8803 33.9992C31.21 34.7437 31.6906 35.405 32.2893 35.9375C31.4382 36.7021 30.8326 37.7199 30.554 38.8537C30.2754 39.9875 30.3371 41.183 30.731 42.2792C31.1248 43.3754 31.8318 44.3196 32.7568 44.9849C33.6817 45.6501 34.7803 46.0044 35.9046 46H52.4755C53.5998 46.0044 54.6983 45.6501 55.6233 44.9849C56.5483 44.3196 57.2553 43.3754 57.6491 42.2792C58.0429 41.183 58.1047 39.9875 57.8261 38.8537C57.5475 37.7199 56.9418 36.7021 56.0907 35.9375C56.6894 35.405 57.1701 34.7437 57.4997 33.9992C57.8293 33.2547 58 32.4447 58 31.625C58 30.8052 57.8293 29.9952 57.4997 29.2508C57.1701 28.5063 56.6894 27.845 56.0907 27.3125C56.6894 26.78 57.1701 26.1187 57.4997 25.3742C57.8293 24.6297 58 23.8197 58 23C58 22.1803 57.8293 21.3703 57.4997 20.6258C57.1701 19.8813 56.6894 19.22 56.0907 18.6875C56.6894 18.155 57.1701 17.4937 57.4997 16.7492C57.8293 16.0048 58 15.1948 58 14.375C58 13.5553 57.8293 12.7453 57.4997 12.0008C57.1701 11.2563 56.6894 10.595 56.0907 10.0625ZM52.4755 43.125H35.9046C35.1721 43.125 34.4696 42.8221 33.9517 42.2829C33.4337 41.7437 33.1427 41.0125 33.1427 40.25C33.1427 39.4875 33.4337 38.7562 33.9517 38.217C34.4696 37.6779 35.1721 37.375 35.9046 37.375H52.4755C53.208 37.375 53.9105 37.6779 54.4284 38.217C54.9464 38.7562 55.2373 39.4875 55.2373 40.25C55.2373 41.0125 54.9464 41.7437 54.4284 42.2829C53.9105 42.8221 53.208 43.125 52.4755 43.125ZM52.4755 34.5H35.9046C35.1721 34.5 34.4696 34.1971 33.9517 33.6579C33.4337 33.1188 33.1427 32.3875 33.1427 31.625C33.1427 30.8625 33.4337 30.1312 33.9517 29.5921C34.4696 29.0529 35.1721 28.75 35.9046 28.75H52.4755C53.208 28.75 53.9105 29.0529 54.4284 29.5921C54.9464 30.1312 55.2373 30.8625 55.2373 31.625C55.2373 32.3875 54.9464 33.1188 54.4284 33.6579C53.9105 34.1971 53.208 34.5 52.4755 34.5ZM52.4755 25.875H35.9046C35.1721 25.875 34.4696 25.5721 33.9517 25.0329C33.4337 24.4938 33.1427 23.7625 33.1427 23C33.1427 22.2375 33.4337 21.5062 33.9517 20.9671C34.4696 20.4279 35.1721 20.125 35.9046 20.125H52.4755C53.208 20.125 53.9105 20.4279 54.4284 20.9671C54.9464 21.5062 55.2373 22.2375 55.2373 23C55.2373 23.7625 54.9464 24.4938 54.4284 25.0329C53.9105 25.5721 53.208 25.875 52.4755 25.875ZM52.4755 17.25H35.9046C35.1721 17.25 34.4696 16.9471 33.9517 16.4079C33.4337 15.8688 33.1427 15.1375 33.1427 14.375C33.1427 13.6125 33.4337 12.8813 33.9517 12.3421C34.4696 11.8029 35.1721 11.5 35.9046 11.5H52.4755C53.208 11.5 53.9105 11.8029 54.4284 12.3421C54.9464 12.8813 55.2373 13.6125 55.2373 14.375C55.2373 15.1375 54.9464 15.8688 54.4284 16.4079C53.9105 16.9471 53.208 17.25 52.4755 17.25ZM52.4755 8.62503H35.9046C35.1721 8.62503 34.4696 8.32213 33.9517 7.78296C33.4337 7.2438 33.1427 6.51253 33.1427 5.75003C33.1427 4.98753 33.4337 4.25627 33.9517 3.7171C34.4696 3.17793 35.1721 2.87504 35.9046 2.87504H52.4755C53.208 2.87504 53.9105 3.17793 54.4284 3.7171C54.9464 4.25627 55.2373 4.98753 55.2373 5.75003C55.2373 6.51253 54.9464 7.2438 54.4284 7.78296C53.9105 8.32213 53.208 8.62503 52.4755 8.62503Z" fill="#DD2A1B"/>
</svg>
