<svg width="33" height="278" viewBox="0 0 33 278" fill="none" xmlns="http://www.w3.org/2000/svg">
<path fill-rule="evenodd" clip-rule="evenodd" d="M16.5196 263.446C18.8883 263.215 21.9369 263.509 23.8451 264.284C22.4195 266.547 24.7881 267.971 27.3323 266.295C27.7709 266.526 28.2753 267.007 28.5166 267.238C26.0821 269.501 27.9025 270.381 30.6222 270.15C32.9909 275.262 26.0164 278.111 21.3667 275.723C17.2653 273.46 14.0412 268.411 16.5196 263.425L16.5196 263.446ZM25.161 244.862C23.3625 246.287 25.161 250.037 23.8451 251.273C19.6779 254.898 14.8966 258.585 13.8438 262.566C12.484 262.796 10.1812 263.215 9.06261 263.571C9.1942 262.273 7.63701 261.078 5.09286 261.728C3.09701 262.147 3.36018 263.865 4.04008 265.122C1.49593 264.766 -1.04819 266.903 0.443209 268.516C1.93461 269.941 4.3691 269.522 5.8605 267.615C6.29915 268.621 8.97492 269.522 10.3347 268.327C11.3217 267.426 11.3217 265.96 9.83026 264.829C10.7075 264.242 12.1332 263.886 13.5588 263.697C12.6157 269.165 14.7431 272.727 18.34 275.807C24.0644 280.668 36.3026 276.938 31.8284 269.626C34.1313 268.139 32.8812 266.19 29.4597 266.651C29.2185 266.295 28.714 265.939 28.407 265.646C30.0958 263.571 27.3542 262.084 24.81 263.571C23.0774 262.629 19.6559 262.21 17.2872 262.314C19.963 258.04 23.5599 255.715 27.3542 252.342C28.2315 251.629 28.6701 250.561 27.9683 250.205C26.1698 249.262 24.9855 246.769 25.161 244.862Z" fill="#0368B0"/>
<path fill-rule="evenodd" clip-rule="evenodd" d="M21.8711 91.2076C20.5113 89.8458 20.621 88.2326 21.1254 87.1641C22.3756 85.2575 28.0341 83.0577 28.3412 79.6217C28.4728 77.4219 27.9025 76.1858 25.9725 75.222C26.6524 76.521 26.784 77.5895 26.0383 79.077C24.854 81.2769 18.5813 82.1568 18.4497 86.3261C18.3839 88.8821 19.8753 90.3696 21.8711 91.1867L21.8711 91.2076Z" fill="#0368B0"/>
<path fill-rule="evenodd" clip-rule="evenodd" d="M21.5421 209.225C20.1823 207.8 20.292 206.187 20.7964 205.118C21.9808 203.212 27.6393 201.012 27.9464 197.576C28.1438 195.376 27.5735 194.182 25.6435 193.176C26.3234 194.475 26.455 195.607 25.7093 197.031C24.4591 199.294 18.1865 200.174 18.1207 204.28C18.0549 206.836 19.4805 208.324 21.5421 209.204L21.5421 209.225Z" fill="#0368B0"/>
<path fill-rule="evenodd" clip-rule="evenodd" d="M21.6079 126.845C20.2481 125.358 20.3578 123.64 20.8622 122.446C22.0466 120.434 27.7051 117.983 28.0122 114.317C28.1438 111.991 27.5735 110.629 25.6435 109.561C26.3234 111.048 26.5207 112.18 25.7092 113.709C24.5249 116.139 18.2523 117.103 18.1865 121.545C18.1207 124.331 19.5463 125.944 21.6079 126.824L21.6079 126.845Z" fill="#0368B0"/>
<path fill-rule="evenodd" clip-rule="evenodd" d="M21.2351 244.8C19.9192 243.312 19.985 241.594 20.5552 240.4C21.7396 238.389 27.3981 236 27.7051 232.313C27.8367 229.945 27.2665 228.625 25.3365 227.557C26.0164 228.982 26.148 230.176 25.4023 231.705C24.2179 234.073 17.9453 235.036 17.8137 239.478C17.7479 242.265 19.2393 243.878 21.2351 244.758L21.2351 244.8Z" fill="#0368B0"/>
<path fill-rule="evenodd" clip-rule="evenodd" d="M21.8053 160.807C20.4455 159.319 20.5552 157.601 21.0596 156.407C22.3097 154.396 27.9025 152.007 28.2096 148.278C28.407 145.953 27.8367 144.591 25.9066 143.522C26.5865 145.01 26.7181 146.141 25.9724 147.733C24.7881 150.101 18.5154 151.065 18.3839 155.506C18.3181 158.293 19.7437 159.906 21.8053 160.786L21.8053 160.807Z" fill="#0368B0"/>
<path fill-rule="evenodd" clip-rule="evenodd" d="M21.8053 82.5342C20.621 81.1724 20.7526 79.9781 21.3667 79.0353C22.6827 77.3173 28.0122 75.1175 28.3192 71.912C28.5166 69.775 27.8806 68.3503 25.9506 67.4076C26.5647 68.6018 26.7621 69.8379 26.0164 71.1578C24.7662 73.3576 18.6252 74.3633 18.5594 78.2811C18.4936 80.6486 19.8095 81.6752 21.7834 82.5551L21.8053 82.5342Z" fill="#0368B0"/>
<path fill-rule="evenodd" clip-rule="evenodd" d="M21.4325 200.488C20.314 199.127 20.4455 197.932 21.0596 196.99C22.3098 195.334 27.7051 193.072 27.9683 189.866C28.2096 187.729 27.5955 186.367 25.6654 185.362C26.2795 186.619 26.4769 187.792 25.7312 189.112C24.4811 191.312 18.34 192.38 18.2084 196.298C18.2084 198.624 19.5244 199.629 21.4325 200.509L21.4325 200.488Z" fill="#0368B0"/>
<path fill-rule="evenodd" clip-rule="evenodd" d="M21.4983 117.459C20.3798 115.972 20.4455 114.736 21.0596 113.709C22.3756 111.865 27.771 109.435 28.0122 105.978C28.2096 103.653 27.5735 102.186 25.6435 101.118C26.2576 102.479 26.5208 103.736 25.7093 105.161C24.4591 107.529 18.3839 108.66 18.2523 112.892C18.1865 115.385 19.5024 116.517 21.4764 117.459L21.4983 117.459Z" fill="#0368B0"/>
<path fill-rule="evenodd" clip-rule="evenodd" d="M21.1693 235.477C19.985 233.989 20.1166 232.69 20.7307 231.684C22.0466 229.841 27.442 227.473 27.6833 223.953C27.8807 221.691 27.2446 220.161 25.3145 219.093C25.9286 220.455 26.126 221.712 25.3803 223.199C24.1302 225.525 18.0549 226.635 17.9233 230.867C17.8575 233.423 19.1735 234.555 21.1474 235.497L21.1693 235.477Z" fill="#0368B0"/>
<path fill-rule="evenodd" clip-rule="evenodd" d="M21.6737 151.484C20.5552 149.933 20.6868 148.697 21.3009 147.692C22.6169 145.848 27.9464 143.48 28.2096 139.961C28.4509 137.635 27.8367 136.169 25.9067 135.1C26.5208 136.462 26.7182 137.719 25.9725 139.206C24.7223 141.532 18.5813 142.642 18.5155 146.875C18.4497 149.368 19.7657 150.499 21.6957 151.505L21.6737 151.484Z" fill="#0368B0"/>
<path fill-rule="evenodd" clip-rule="evenodd" d="M21.8053 74.1747C20.928 72.8758 20.7526 71.2625 21.4325 70.4245C22.9897 68.8741 28.078 67.2818 28.3412 64.0763C28.5386 61.8765 27.7709 60.2213 25.7312 59.2576C26.4111 60.3261 26.784 61.8765 26.1041 63.1754C24.7443 65.2496 18.6471 66.0876 18.6471 69.775C18.5155 71.912 19.963 73.3995 21.8273 74.1747L21.8053 74.1747Z" fill="#0368B0"/>
<path fill-rule="evenodd" clip-rule="evenodd" d="M21.4983 192.108C20.621 190.851 20.4455 189.196 21.0596 188.421C22.6168 186.807 27.7709 185.215 28.0122 182.01C28.2096 179.81 27.4419 178.217 25.4022 177.191C26.0163 178.259 26.455 179.81 25.7093 181.109C24.3933 183.183 18.3181 184.021 18.2523 187.708C18.1865 189.845 19.6121 191.333 21.4763 192.108L21.4983 192.108Z" fill="#0368B0"/>
<path fill-rule="evenodd" clip-rule="evenodd" d="M21.5421 108.429C20.6648 107.067 20.4236 105.287 21.1035 104.449C22.6607 102.731 27.8148 101.013 28.056 97.5557C28.1876 95.1883 27.4858 93.4074 25.3803 92.3389C26.0602 93.5331 26.4989 95.1883 25.7532 96.6129C24.3934 98.8128 18.3619 99.7556 18.2961 103.673C18.1645 105.999 19.6559 107.591 21.5202 108.429L21.5421 108.429Z" fill="#0368B0"/>
<path fill-rule="evenodd" clip-rule="evenodd" d="M21.1693 226.447C20.292 225.022 20.1166 223.304 20.7965 222.403C22.3537 220.685 27.442 219.009 27.749 215.51C27.8806 213.143 27.1349 211.404 25.0733 210.335C25.7532 211.529 26.126 213.122 25.4461 214.546C24.0863 216.809 18.0549 217.689 17.9891 221.67C17.8575 223.932 19.3051 225.525 21.1693 226.426L21.1693 226.447Z" fill="#0368B0"/>
<path fill-rule="evenodd" clip-rule="evenodd" d="M21.7395 142.412C20.8622 141.05 20.6868 139.269 21.3009 138.431C22.9239 136.713 28.0122 134.995 28.2534 131.538C28.4508 129.171 27.6832 127.432 25.6435 126.363C26.3234 127.495 26.6962 129.15 26.0163 130.574C24.6565 132.774 18.5593 133.717 18.4936 137.635C18.4278 139.961 19.8534 141.553 21.7176 142.391L21.7395 142.412Z" fill="#0368B0"/>
<path fill-rule="evenodd" clip-rule="evenodd" d="M21.8053 65.7943C20.9938 64.4325 20.7526 62.4631 21.4983 61.8136C23.2968 60.4518 28.2096 59.3204 28.407 56.2406C28.6044 54.1036 28.0341 52.6161 25.8628 51.5476C26.4769 52.6161 26.8498 53.9779 26.1699 55.1093C24.7443 57.1834 18.7787 57.791 18.6471 61.227C18.5155 63.0707 19.8972 64.9772 21.8273 65.7943L21.8053 65.7943Z" fill="#0368B0"/>
<path fill-rule="evenodd" clip-rule="evenodd" d="M21.4325 183.749C20.6868 182.45 20.4455 180.417 21.1912 179.768C22.9238 178.406 27.9025 177.338 28.0999 174.195C28.2315 172.058 27.6613 170.57 25.5558 169.502C26.1699 170.57 26.5427 171.932 25.797 173.126C24.4372 175.201 18.4716 175.745 18.2742 179.181C18.2084 181.025 19.5901 182.932 21.4544 183.749L21.4325 183.749Z" fill="#0368B0"/>
<path fill-rule="evenodd" clip-rule="evenodd" d="M21.4983 99.3998C20.6868 97.9751 20.4455 95.8381 21.257 95.1258C22.9897 93.6383 27.9025 92.4441 28.1657 89.1338C28.2973 86.8082 27.7271 85.216 25.6216 84.0846C26.2357 85.216 26.6085 86.7035 25.8628 87.9396C24.4372 90.2023 18.5374 90.7261 18.34 94.4763C18.2084 96.4876 19.6559 98.5199 21.5202 99.3998L21.4983 99.3998Z" fill="#0368B0"/>
<path fill-rule="evenodd" clip-rule="evenodd" d="M21.1693 217.416C20.3578 215.929 20.1166 213.792 20.8623 213.142C22.6607 211.592 27.5735 210.461 27.7709 207.088C27.9683 204.762 27.3981 203.17 25.2268 202.038C25.8409 203.17 26.2138 204.657 25.5339 205.893C24.1083 208.156 18.1427 208.743 18.0111 212.493C17.8795 214.462 19.327 216.474 21.1912 217.416L21.1693 217.416Z" fill="#0368B0"/>
<path fill-rule="evenodd" clip-rule="evenodd" d="M21.6737 133.382C20.928 131.958 20.6868 129.821 21.4325 129.108C23.2309 127.621 28.1438 126.427 28.3412 123.116C28.5386 120.791 27.9025 119.198 25.797 118.067C26.4111 119.198 26.784 120.686 26.0383 121.922C24.6785 124.185 18.7128 124.771 18.5154 128.522C18.4496 130.491 19.8314 132.502 21.6957 133.382L21.6737 133.382Z" fill="#0368B0"/>
<path fill-rule="evenodd" clip-rule="evenodd" d="M21.3667 251.378C20.621 249.89 20.3139 247.753 21.1254 247.104C22.8581 245.554 27.7709 244.422 28.0341 241.049C28.1657 238.724 27.5955 237.131 25.49 236C26.1041 237.131 26.4769 238.619 25.7312 239.855C24.3714 242.118 18.4058 242.704 18.2085 246.455C18.0769 248.424 19.5244 250.435 21.3886 251.378L21.3667 251.378Z" fill="#0368B0"/>
<path fill-rule="evenodd" clip-rule="evenodd" d="M20.9938 57.9587C20.4894 56.5968 20.4236 54.8789 21.2351 54.397C23.2968 53.098 28.2534 51.4848 28.4508 48.405C28.5824 46.3309 28.0122 44.6548 25.8409 43.6491C26.455 44.55 26.8279 46.0794 26.148 47.148C24.7224 49.1173 18.4497 49.6411 18.3181 53.7894C18.1865 55.5074 19.2612 56.9949 20.9938 57.9377L20.9938 57.9587Z" fill="#0368B0"/>
<path fill-rule="evenodd" clip-rule="evenodd" d="M20.6868 175.892C20.1166 174.593 20.1166 172.812 20.9281 172.33C22.9239 171.031 27.8806 169.418 28.1438 166.338C28.2096 164.264 27.6394 162.588 25.4681 161.645C26.0822 162.546 26.5208 164.076 25.7751 165.081C24.4153 167.093 18.1207 167.574 17.9453 171.723C17.8795 173.441 18.8884 174.928 20.6868 175.871L20.6868 175.892Z" fill="#0368B0"/>
<path fill-rule="evenodd" clip-rule="evenodd" d="M21.3009 49.9343C20.4894 48.4467 21.6079 46.0793 22.4852 45.7231C24.6565 44.5918 28.3192 43.5861 28.5166 40.6111C28.6482 38.4741 28.0121 36.7561 25.775 35.7504C26.3892 36.5256 26.8936 38.1808 26.2137 39.1445C24.7223 41.051 19.305 42.7062 18.998 45.7441C18.8664 47.1687 19.6121 49.0753 21.3009 49.9552L21.3009 49.9343Z" fill="#0368B0"/>
<path fill-rule="evenodd" clip-rule="evenodd" d="M20.9281 167.951C20.1166 166.464 21.1693 164.096 22.0466 163.677C24.2837 162.609 28.0122 161.54 28.2096 158.565C28.2754 156.428 27.7052 154.773 25.4023 153.705C26.0164 154.48 26.5866 156.135 25.8409 157.141C24.3495 158.984 18.8884 160.64 18.5594 163.677C18.4278 165.102 19.1735 167.009 20.9281 167.951Z" fill="#0368B0"/>
<path fill-rule="evenodd" clip-rule="evenodd" d="M21.6079 42.3917C20.3578 41.0927 20.5552 38.2434 21.6079 37.6986C22.8581 36.9863 28.2534 36.9863 28.5166 32.838C28.6482 30.4706 27.9025 28.564 25.4022 28.2078C26.2137 28.8573 26.7621 31.0572 25.2049 31.7695C22.0905 33.0266 18.4935 34.3884 18.1207 38.0548C17.9233 39.668 19.6121 42.266 21.6079 42.3917Z" fill="#0368B0"/>
<path fill-rule="evenodd" clip-rule="evenodd" d="M21.6079 33.844C20.621 32.2937 21.4764 30.8061 22.0466 30.1566C24.1521 27.9568 28.9991 29.0881 28.3192 22.9704C27.1349 11.8664 18.1207 16.2033 13.7781 16.1404C10.1154 16.0147 8.18533 12.5159 8.18533 9.6037C8.31693 5.85347 11.541 3.77935 14.5896 3.90506C17.6382 4.09362 20.3797 6.62866 18.691 8.59805C17.4408 9.95987 15.1379 9.66656 14.2167 8.47235C10.6637 9.66656 13.3394 13.8149 16.8267 13.5215C20.4894 13.1654 23.0335 10.316 22.7265 7.11053C22.1563 1.83088 16.9363 -0.368975 12.2209 0.0500457C7.13257 0.469066 3.14091 6.33533 3.20671 10.2113C3.44797 15.1348 7.54927 19.8278 13.7781 20.184C17.0021 20.3725 20.621 18.4031 23.3626 18.6964C25.7312 18.9898 26.4769 23.6828 24.3056 24.5837C21.6299 25.7779 20.0069 25.8407 18.8883 28.4387C18.0768 30.4081 19.3928 33.5507 21.6299 33.844L21.6079 33.844Z" fill="#0368B0"/>
</svg>
