<svg width="1103" height="534" viewBox="0 0 1103 534" fill="none" xmlns="http://www.w3.org/2000/svg">
<path fill-rule="evenodd" clip-rule="evenodd" d="M7.8551 121.964C9.95789 128.573 12.9619 134.731 16.5668 140.513C24.4523 150.276 29.1084 149.901 30.8357 139.012L31.0609 98.7581C30.6104 91.0979 26.5549 83.8884 19.1201 77.0544C18.0687 75.7777 12.286 63.8367 26.5549 69.1688C39.3219 75.5522 46.3812 84.7145 49.5354 95.7541L49.9862 160.715C53.3657 169.652 56.8202 168.826 60.6502 161.542L60.0496 77.6551C57.2709 66.1648 51.7133 56.1766 43.4524 47.6152C40.4484 41.2317 43.6776 37.8522 50.0612 41.2317C66.6582 51.4452 74.5437 64.4376 76.8718 78.7066L80.702 163.043C84.532 174.083 92.6428 175.585 95.1962 163.494L98.2001 63.0105C97.374 54.8998 94.8207 47.0145 88.4372 43.0342C81.6031 35.1488 85.2078 31.7691 94.2198 35.3739C105.259 39.204 114.872 52.1963 115.098 62.1846L117.05 166.498C119.829 177.538 128.09 177.387 130.869 166.273L141.533 42.5836C142.809 18.777 149.418 -0.223293 156.027 0.00200658C162.636 -0.223293 169.244 18.5515 170.521 42.3581L181.185 166.047C183.964 177.312 192.225 177.538 195.004 166.498L196.956 62.1846C197.181 52.1963 206.719 38.9787 217.834 35.3739C226.771 31.7691 230.15 34.9235 223.617 43.0342C217.233 46.8643 214.68 54.975 213.854 62.8604L216.858 163.569C219.411 175.735 227.522 174.233 231.352 163.119L235.182 78.6314C237.51 64.5878 245.396 51.3703 261.993 41.382C268.376 38.0025 271.605 41.3818 268.601 47.54C260.265 56.2516 254.783 66.2398 252.004 77.8052L251.403 161.466C255.008 168.901 258.613 169.577 262.068 160.79L262.293 95.8293C265.672 84.7896 272.732 75.6274 285.499 69.2439C299.768 63.9119 293.985 75.6273 292.934 77.1293C285.273 83.9634 281.443 91.1731 280.993 98.8332L281.218 139.087C282.72 149.976 287.602 150.352 295.487 140.589C299.092 134.806 302.096 128.648 304.199 121.889C312.084 110.624 314.187 112.952 312.084 125.118C307.578 151.103 294.811 170.028 277.613 183.696C252.305 199.692 226.771 205.625 200.336 206.226C194.778 231.76 192.675 257.519 196.956 283.503L202.889 335.472C208.221 339.077 207.395 344.634 203.34 344.184V347.188C209.723 352.52 209.723 356.575 204.166 357.627L204.616 361.682C209.723 366.789 212.727 371.445 204.842 373.848C205.067 394.05 212.277 402.612 224.217 403.212C301.495 403.212 378.998 403.212 456.501 403.438L1065.78 400.058L1071.12 399.382L1083.66 430.023L1062.41 441.738C1038.6 465.77 1031.09 486.873 1034.54 506.474L1010.51 514.36L1004.13 498.213C1004.95 496.937 999.246 487.549 988.357 488C897.036 491.004 412.117 488.451 240.739 488.676C227.146 488.225 216.707 494.609 218.585 507.376L193.877 515.712L186.442 501.668C182.387 492.731 176.679 488.901 170.071 488.225H156.478L142.885 488.451C136.276 488.901 130.568 492.731 126.513 501.668L118.027 516.162L95.2713 508.953C97.3741 484.695 101.054 459.762 108.038 434.229V373.998C100.153 371.67 103.157 366.939 108.263 361.832L108.714 357.777C103.157 356.725 103.157 352.67 109.54 347.338V344.334C105.485 344.785 104.433 339.453 109.991 335.623L115.924 283.879C119.979 257.894 118.026 232.135 112.544 206.376C86.1841 205.925 60.5751 199.767 35.2665 183.846C17.9935 170.253 5.22668 151.253 0.795776 125.268C-1.30701 113.327 0.570557 110.774 8.6814 122.264L7.8551 121.964Z" fill="#F17E00"/>
<path fill-rule="evenodd" clip-rule="evenodd" d="M94.5197 507.526L118.176 514.735C103.682 552.811 88.3615 520.067 94.5197 507.526Z" fill="#141515" stroke="#141515" stroke-width="0.23" stroke-miterlimit="10"/>
<path fill-rule="evenodd" clip-rule="evenodd" d="M1034.17 507.526L1010.36 514.735C1024.86 552.661 1040.18 520.067 1034.17 507.526Z" fill="#141515" stroke="#141515" stroke-width="0.23" stroke-miterlimit="10"/>
<path fill-rule="evenodd" clip-rule="evenodd" d="M1083.58 394.05L1071.04 399.607L1084.03 429.422L1098.75 420.71C1107.69 410.046 1098.08 390.896 1083.66 394.125L1083.58 394.05Z" fill="#141515" stroke="#141515" stroke-width="0.23" stroke-miterlimit="10"/>
<path fill-rule="evenodd" clip-rule="evenodd" d="M217.532 507.901L194.101 515.111C209.421 553.036 224.742 520.443 217.532 507.901Z" fill="#141515" stroke="#141515" stroke-width="0.23" stroke-miterlimit="10"/>
<path fill-rule="evenodd" clip-rule="evenodd" d="M216.932 508.352L194.552 515.562C209.047 553.637 222.039 521.494 216.932 508.352Z" fill="#141515" stroke="#141515" stroke-width="0.23" stroke-miterlimit="10"/>
<path fill-rule="evenodd" clip-rule="evenodd" d="M175.402 195.862C171.572 195.862 168.343 192.633 168.343 188.803C168.343 184.972 171.572 181.743 175.402 181.743C179.458 181.743 182.462 184.972 182.462 188.803C182.462 192.633 179.458 195.862 175.402 195.862Z" fill="#141515"/>
<path fill-rule="evenodd" clip-rule="evenodd" d="M134.923 196.087C130.867 196.087 127.863 192.858 127.863 189.028C127.863 185.198 130.867 181.969 134.923 181.969C138.753 181.969 141.982 185.198 141.982 189.028C141.982 192.858 138.753 196.087 134.923 196.087Z" fill="#141515"/>
<path fill-rule="evenodd" clip-rule="evenodd" d="M154.75 172.206C147.916 172.206 142.583 166.648 142.583 159.889C142.583 153.13 147.916 147.723 154.75 147.723C161.584 147.723 166.916 153.281 166.916 159.889C166.916 166.498 161.358 172.206 154.75 172.206Z" fill="#FEFEFE"/>
<path fill-rule="evenodd" clip-rule="evenodd" d="M208.145 193.684C204.09 193.684 200.935 190.455 200.935 186.625C200.935 182.569 204.165 179.415 208.145 179.415C211.975 179.415 215.204 182.645 215.204 186.625C215.204 190.455 211.975 193.684 208.145 193.684Z" fill="#FEFEFE"/>
<path fill-rule="evenodd" clip-rule="evenodd" d="M104.958 192.633C101.128 192.633 97.8986 189.403 97.8986 185.573C97.8986 181.518 101.128 178.364 104.958 178.364C109.013 178.364 112.168 181.593 112.168 185.573C112.168 189.403 108.938 192.633 104.958 192.633Z" fill="#FEFEFE"/>
<path fill-rule="evenodd" clip-rule="evenodd" d="M243.742 187.751C239.912 187.751 236.683 184.522 236.683 180.542C236.683 176.712 239.912 173.482 243.742 173.482C247.798 173.482 250.952 176.712 250.952 180.542C250.952 184.597 247.723 187.751 243.742 187.751Z" fill="#FEFEFE"/>
<path fill-rule="evenodd" clip-rule="evenodd" d="M69.3608 186.7C65.3054 186.7 62.3014 183.471 62.3014 179.49C62.3014 175.66 65.3054 172.431 69.3608 172.431C73.1909 172.431 76.4202 175.66 76.4202 179.49C76.4202 183.546 73.1909 186.7 69.3608 186.7Z" fill="#FEFEFE"/>
<path fill-rule="evenodd" clip-rule="evenodd" d="M277.988 171.605C273.933 171.605 270.778 168.376 270.778 164.546C270.778 160.49 274.008 157.336 277.988 157.336C281.818 157.336 285.047 160.565 285.047 164.546C285.047 168.376 281.818 171.605 277.988 171.605Z" fill="#FEFEFE"/>
<path fill-rule="evenodd" clip-rule="evenodd" d="M35.1152 170.479C31.2851 170.479 28.0558 167.249 28.0558 163.419C28.0558 159.589 31.2851 156.36 35.1152 156.36C39.1706 156.36 42.3247 159.589 42.3247 163.419C42.3247 167.249 39.0955 170.479 35.1152 170.479Z" fill="#FEFEFE"/>
<path fill-rule="evenodd" clip-rule="evenodd" d="M140.706 203.973C142.809 200.143 144.987 200.744 147.09 203.973V211.032C148.592 214.036 150.094 213.36 151.596 211.032L151.821 200.819C154.6 195.712 157.379 195.937 160.307 201.044V211.032C161.809 214.637 163.312 214.262 164.964 211.032V204.198C167.067 199.542 169.019 200.819 171.122 204.198V214.186C170.07 219.969 167.742 225.452 164.062 230.784H148.517C144.687 225.452 141.683 219.894 140.631 214.186V203.973H140.706Z" fill="#FEFEFE"/>
<path fill-rule="evenodd" clip-rule="evenodd" d="M147.689 233.112H163.836C165.112 238.669 166.164 244.001 165.112 249.108C160.456 260.598 150.618 262.551 146.413 249.108C145.737 243.776 146.187 238.444 147.689 233.112Z" fill="#FEFEFE"/>
<path fill-rule="evenodd" clip-rule="evenodd" d="M110.065 343.583C114.12 346.587 118.401 346.137 123.057 343.583C122.832 354.623 108.788 351.243 110.065 343.583Z" fill="#141515" stroke="#141515" stroke-width="0.23" stroke-miterlimit="10"/>
<path fill-rule="evenodd" clip-rule="evenodd" d="M201.762 343.583C197.706 346.813 193.426 346.362 188.769 343.583C188.995 354.623 203.038 351.243 201.762 343.583Z" fill="#141515" stroke="#141515" stroke-width="0.23" stroke-miterlimit="10"/>
<path fill-rule="evenodd" clip-rule="evenodd" d="M125.761 343.583C129.591 346.587 134.097 346.137 138.528 343.583C138.303 354.623 124.259 351.243 125.761 343.583Z" fill="#141515" stroke="#141515" stroke-width="0.23" stroke-miterlimit="10"/>
<path fill-rule="evenodd" clip-rule="evenodd" d="M186.066 343.583C182.236 346.813 177.73 346.362 173.299 343.583C173.524 354.623 187.568 351.243 186.066 343.583Z" fill="#141515" stroke="#141515" stroke-width="0.23" stroke-miterlimit="10"/>
<path fill-rule="evenodd" clip-rule="evenodd" d="M141.157 343.583C145.212 346.587 149.493 346.137 153.924 343.583C153.924 354.623 139.88 351.243 141.157 343.583Z" fill="#141515" stroke="#141515" stroke-width="0.23" stroke-miterlimit="10"/>
<path fill-rule="evenodd" clip-rule="evenodd" d="M170.746 343.583C166.691 346.587 162.41 346.362 157.754 343.583C157.979 354.623 172.023 351.243 170.746 343.583Z" fill="#141515" stroke="#141515" stroke-width="0.23" stroke-miterlimit="10"/>
<path fill-rule="evenodd" clip-rule="evenodd" d="M140.931 329.314C144.987 332.318 149.267 331.868 153.924 329.314C153.698 340.354 139.655 336.974 140.931 329.314Z" fill="#141515" stroke="#141515" stroke-width="0.23" stroke-miterlimit="10"/>
<path fill-rule="evenodd" clip-rule="evenodd" d="M170.521 329.314C166.465 332.543 162.185 332.093 157.754 329.314C157.754 340.354 171.797 336.974 170.521 329.314Z" fill="#141515" stroke="#141515" stroke-width="0.23" stroke-miterlimit="10"/>
<path fill-rule="evenodd" clip-rule="evenodd" d="M140.931 314.219C144.761 317.223 149.267 316.773 153.698 314.219C153.473 325.109 139.654 321.654 140.931 314.219Z" fill="#141515" stroke="#141515" stroke-width="0.23" stroke-miterlimit="10"/>
<path fill-rule="evenodd" clip-rule="evenodd" d="M170.521 314.219C166.465 317.223 162.185 316.998 157.528 314.219C157.754 325.259 171.798 321.879 170.521 314.219Z" fill="#141515" stroke="#141515" stroke-width="0.23" stroke-miterlimit="10"/>
<path fill-rule="evenodd" clip-rule="evenodd" d="M140.706 298.899C144.761 302.128 149.042 301.677 153.698 298.899C153.473 309.938 139.429 306.559 140.706 298.899Z" fill="#141515" stroke="#141515" stroke-width="0.23" stroke-miterlimit="10"/>
<path fill-rule="evenodd" clip-rule="evenodd" d="M170.296 299.124C166.466 302.128 161.96 301.677 157.529 299.124C157.754 310.164 171.798 306.784 170.296 299.124Z" fill="#141515" stroke="#141515" stroke-width="0.23" stroke-miterlimit="10"/>
<path fill-rule="evenodd" clip-rule="evenodd" d="M140.706 283.804C144.761 286.808 149.042 286.583 153.473 283.804C153.473 294.844 139.429 291.464 140.706 283.804Z" fill="#141515" stroke="#141515" stroke-width="0.23" stroke-miterlimit="10"/>
<path fill-rule="evenodd" clip-rule="evenodd" d="M170.295 283.954C166.24 286.958 161.959 286.507 157.528 283.954C157.528 294.843 171.572 291.389 170.295 283.954Z" fill="#141515" stroke="#141515" stroke-width="0.23" stroke-miterlimit="10"/>
<path fill-rule="evenodd" clip-rule="evenodd" d="M140.931 268.634C144.986 271.638 149.267 271.187 153.698 268.634C153.698 279.523 139.654 276.068 140.931 268.634Z" fill="#141515" stroke="#141515" stroke-width="0.23" stroke-miterlimit="10"/>
<path fill-rule="evenodd" clip-rule="evenodd" d="M170.521 268.634C166.465 271.638 162.185 271.412 157.528 268.634C157.754 279.673 171.798 276.294 170.521 268.634Z" fill="#141515" stroke="#141515" stroke-width="0.23" stroke-miterlimit="10"/>
<path fill-rule="evenodd" clip-rule="evenodd" d="M110.065 358.904C114.12 361.908 118.401 361.457 123.057 358.904C122.832 369.943 108.788 366.564 110.065 358.904Z" fill="#141515" stroke="#141515" stroke-width="0.23" stroke-miterlimit="10"/>
<path fill-rule="evenodd" clip-rule="evenodd" d="M201.762 358.904C197.706 362.133 193.426 361.682 188.769 358.904C188.995 369.943 203.038 366.564 201.762 358.904Z" fill="#141515" stroke="#141515" stroke-width="0.23" stroke-miterlimit="10"/>
<path fill-rule="evenodd" clip-rule="evenodd" d="M125.761 358.904C129.591 361.908 134.097 361.457 138.528 358.904C138.303 369.943 124.484 366.564 125.761 358.904Z" fill="#141515" stroke="#141515" stroke-width="0.23" stroke-miterlimit="10"/>
<path fill-rule="evenodd" clip-rule="evenodd" d="M186.215 358.904C182.16 362.133 177.879 361.682 173.223 358.904C173.448 369.943 187.492 366.564 186.215 358.904Z" fill="#141515" stroke="#141515" stroke-width="0.23" stroke-miterlimit="10"/>
<path fill-rule="evenodd" clip-rule="evenodd" d="M141.157 358.904C145.212 361.908 149.493 361.457 154.149 358.904C153.924 369.943 139.88 366.564 141.157 358.904Z" fill="#141515" stroke="#141515" stroke-width="0.23" stroke-miterlimit="10"/>
<path fill-rule="evenodd" clip-rule="evenodd" d="M170.746 358.904C166.916 361.908 162.41 361.682 157.979 358.904C157.979 369.943 172.023 366.564 170.746 358.904Z" fill="#141515" stroke="#141515" stroke-width="0.23" stroke-miterlimit="10"/>
<path fill-rule="evenodd" clip-rule="evenodd" d="M109.39 373.398C113.445 376.402 117.726 375.951 122.382 373.398C122.157 384.437 108.113 381.058 109.39 373.398Z" fill="#141515" stroke="#141515" stroke-width="0.23" stroke-miterlimit="10"/>
<path fill-rule="evenodd" clip-rule="evenodd" d="M201.162 373.398C197.107 376.627 192.826 376.176 188.17 373.398C188.395 384.437 202.439 381.058 201.162 373.398Z" fill="#141515" stroke="#141515" stroke-width="0.23" stroke-miterlimit="10"/>
<path fill-rule="evenodd" clip-rule="evenodd" d="M125.159 373.398C128.989 376.402 133.496 375.951 137.926 373.398C137.701 384.437 123.657 381.058 125.159 373.398Z" fill="#141515" stroke="#141515" stroke-width="0.23" stroke-miterlimit="10"/>
<path fill-rule="evenodd" clip-rule="evenodd" d="M185.389 373.398C181.559 376.627 177.279 376.176 172.622 373.398C172.848 384.437 186.891 381.058 185.389 373.398Z" fill="#141515" stroke="#141515" stroke-width="0.23" stroke-miterlimit="10"/>
<path fill-rule="evenodd" clip-rule="evenodd" d="M140.48 373.398C144.536 376.402 148.816 375.951 153.473 373.398C153.247 384.437 139.204 381.058 140.48 373.398Z" fill="#141515" stroke="#141515" stroke-width="0.23" stroke-miterlimit="10"/>
<path fill-rule="evenodd" clip-rule="evenodd" d="M170.07 373.398C166.014 376.402 161.734 376.176 157.303 373.398C157.303 384.437 171.346 381.058 170.07 373.398Z" fill="#141515" stroke="#141515" stroke-width="0.23" stroke-miterlimit="10"/>
<path fill-rule="evenodd" clip-rule="evenodd" d="M226.094 403.212H231.877C232.328 413.651 231.877 423.414 229.924 432.351L223.766 431.901C225.719 423.189 226.319 413.801 226.094 403.137V403.212Z" fill="#141515"/>
<path fill-rule="evenodd" clip-rule="evenodd" d="M239.237 402.987H245.019C245.695 413.426 245.47 423.414 243.968 432.351L237.81 432.126C239.537 423.414 239.762 413.576 239.312 402.987H239.237Z" fill="#141515"/>
<path fill-rule="evenodd" clip-rule="evenodd" d="M252.23 403.212H258.013C258.839 413.651 258.689 423.414 257.187 432.576H251.028C252.756 423.64 252.981 413.877 252.305 403.212H252.23Z" fill="#141515"/>
<path fill-rule="evenodd" clip-rule="evenodd" d="M265.221 403.212H271.154C271.83 413.426 271.83 423.414 270.328 432.351L264.17 432.576C265.672 423.64 265.897 413.877 265.221 403.212Z" fill="#141515"/>
<path fill-rule="evenodd" clip-rule="evenodd" d="M277.763 403.438L283.546 402.987C284.372 413.426 284.372 423.189 282.87 432.351L276.712 432.576C278.439 423.639 278.439 413.876 277.763 403.438Z" fill="#141515"/>
<path fill-rule="evenodd" clip-rule="evenodd" d="M288.653 403.212H294.436C295.487 413.651 295.713 423.189 294.661 432.576L288.278 432.351C289.78 423.414 289.78 413.651 288.728 403.212H288.653Z" fill="#141515"/>
<path fill-rule="evenodd" clip-rule="evenodd" d="M299.917 402.987L305.7 403.212C306.751 413.426 306.751 423.414 305.475 432.576L299.542 433.027C300.819 424.09 300.819 413.651 299.993 402.987H299.917Z" fill="#141515"/>
<path fill-rule="evenodd" clip-rule="evenodd" d="M311.408 402.987H317.341C318.167 413.426 318.393 423.189 317.116 432.351L310.958 432.802C312.46 423.865 312.46 413.426 311.408 402.987Z" fill="#141515"/>
<path fill-rule="evenodd" clip-rule="evenodd" d="M323.349 402.762L329.131 402.987C330.183 413.201 330.408 422.964 329.131 432.351L322.973 432.576C324.25 423.64 324.25 413.201 323.424 402.762H323.349Z" fill="#141515"/>
<path fill-rule="evenodd" clip-rule="evenodd" d="M334.838 402.987L340.771 403.212C341.823 413.426 341.823 423.414 340.546 432.576L334.388 432.802C335.89 424.09 335.89 413.426 334.838 402.987Z" fill="#141515"/>
<path fill-rule="evenodd" clip-rule="evenodd" d="M346.78 403.212L352.562 403.438C353.614 413.651 353.614 423.64 352.337 432.802L346.404 433.252C347.681 424.315 347.681 413.877 346.855 403.212H346.78Z" fill="#141515"/>
<path fill-rule="evenodd" clip-rule="evenodd" d="M358.27 403.212H364.053C365.104 413.651 365.104 423.414 363.827 432.576L357.895 433.027C359.171 424.09 359.171 413.651 358.345 403.212H358.27Z" fill="#141515"/>
<path fill-rule="evenodd" clip-rule="evenodd" d="M369.761 402.987H375.543C376.595 413.426 376.595 423.189 375.318 432.351L369.385 432.802C370.662 423.865 370.662 413.426 369.836 402.987H369.761Z" fill="#141515"/>
<path fill-rule="evenodd" clip-rule="evenodd" d="M381.251 402.987L387.034 403.212C388.085 413.426 388.085 423.414 386.808 432.576L380.875 432.802C382.152 423.865 382.152 413.426 381.326 402.987H381.251Z" fill="#141515"/>
<path fill-rule="evenodd" clip-rule="evenodd" d="M392.741 402.987L398.524 403.212C399.576 413.426 399.576 423.414 398.299 432.576L392.366 433.027C393.643 424.09 393.643 413.651 392.817 402.987H392.741Z" fill="#141515"/>
<path fill-rule="evenodd" clip-rule="evenodd" d="M404.005 403.212H409.938C410.989 413.651 410.989 423.414 409.712 432.576L403.779 433.027C405.056 424.09 405.056 413.651 404.005 403.212Z" fill="#141515"/>
<path fill-rule="evenodd" clip-rule="evenodd" d="M419.551 403.212H425.334C425.785 413.651 425.334 423.414 423.381 432.351L417.223 431.675C419.176 423.189 419.777 413.576 419.551 403.137V403.212Z" fill="#141515"/>
<path fill-rule="evenodd" clip-rule="evenodd" d="M432.769 402.987H438.551C439.227 413.426 439.002 423.189 437.5 432.351L431.342 432.126C433.069 423.414 433.294 413.576 432.844 402.987H432.769Z" fill="#141515"/>
<path fill-rule="evenodd" clip-rule="evenodd" d="M445.762 403.212H451.545C452.371 413.651 452.221 423.414 450.719 432.576H444.56C446.288 423.64 446.513 413.877 445.837 403.212H445.762Z" fill="#141515"/>
<path fill-rule="evenodd" clip-rule="evenodd" d="M458.753 403.212L464.686 402.987C465.362 413.426 465.362 423.414 463.86 432.351L457.702 432.576C459.204 423.639 459.429 413.877 458.753 403.212Z" fill="#141515"/>
<path fill-rule="evenodd" clip-rule="evenodd" d="M471.295 403.212L477.078 402.987C477.904 413.426 477.904 423.189 476.402 432.351L470.244 432.576C471.746 423.639 471.971 413.877 471.295 403.212Z" fill="#141515"/>
<path fill-rule="evenodd" clip-rule="evenodd" d="M482.185 403.212H487.968C489.019 413.651 489.245 423.189 488.193 432.351H481.81C483.312 423.414 483.086 413.651 482.26 403.212H482.185Z" fill="#141515"/>
<path fill-rule="evenodd" clip-rule="evenodd" d="M493.224 402.987L499.157 403.212C500.208 413.426 500.208 423.414 498.932 432.576L492.999 433.027C494.276 424.09 494.276 413.651 493.224 402.987Z" fill="#141515"/>
<path fill-rule="evenodd" clip-rule="evenodd" d="M504.939 402.987H510.722C511.773 413.426 511.999 423.189 510.722 432.351L504.564 432.802C506.066 423.865 505.84 413.426 505.014 402.987H504.939Z" fill="#141515"/>
<path fill-rule="evenodd" clip-rule="evenodd" d="M516.881 402.762H522.664C523.715 413.201 523.715 422.964 522.664 432.126L516.506 432.576C517.782 423.64 517.782 413.201 516.956 402.762H516.881Z" fill="#141515"/>
<path fill-rule="evenodd" clip-rule="evenodd" d="M528.37 402.987H534.303C535.355 413.426 535.355 423.189 534.078 432.351L527.92 432.802C529.422 423.865 529.422 413.426 528.37 402.987Z" fill="#141515"/>
<path fill-rule="evenodd" clip-rule="evenodd" d="M540.312 403.212L546.094 403.438C547.146 413.651 547.146 423.64 545.869 432.802L539.936 433.027C541.213 424.09 541.213 413.651 540.387 403.212H540.312Z" fill="#141515"/>
<path fill-rule="evenodd" clip-rule="evenodd" d="M551.577 402.987L557.51 403.212C558.561 413.426 558.561 423.414 557.284 432.576L551.351 433.027C552.628 424.09 552.628 413.651 551.577 402.987Z" fill="#141515"/>
<path fill-rule="evenodd" clip-rule="evenodd" d="M563.067 402.987H569C570.052 413.426 570.052 423.189 568.775 432.351L562.842 432.802C564.119 423.865 564.119 413.426 563.067 402.987Z" fill="#141515"/>
<path fill-rule="evenodd" clip-rule="evenodd" d="M574.558 402.987H580.491C581.542 413.426 581.542 423.189 580.265 432.351L574.332 432.802C575.609 423.865 575.609 413.426 574.558 402.987Z" fill="#141515"/>
<path fill-rule="evenodd" clip-rule="evenodd" d="M586.046 402.987L591.979 403.212C593.031 413.426 593.031 423.414 591.754 432.576L585.596 432.802C587.098 424.09 587.098 413.426 586.046 402.987Z" fill="#141515"/>
<path fill-rule="evenodd" clip-rule="evenodd" d="M597.537 402.987L603.47 403.212C604.521 413.426 604.521 423.414 603.244 432.576L597.086 433.027C598.588 424.09 598.588 413.651 597.537 402.987Z" fill="#141515"/>
<path fill-rule="evenodd" clip-rule="evenodd" d="M613.082 401.71H618.865C619.316 412.149 618.64 421.912 616.913 430.849L610.754 430.398C612.707 421.687 613.308 412.3 613.082 401.635V401.71Z" fill="#141515"/>
<path fill-rule="evenodd" clip-rule="evenodd" d="M626.301 401.485H632.084C632.759 411.924 632.534 421.912 631.032 430.849L624.874 430.624C626.601 421.912 626.827 412.074 626.376 401.485H626.301Z" fill="#141515"/>
<path fill-rule="evenodd" clip-rule="evenodd" d="M639.292 401.936L645.075 401.71C645.901 412.149 645.751 421.912 644.249 431.074H638.091C639.593 422.137 640.043 412.374 639.367 401.936H639.292Z" fill="#141515"/>
<path fill-rule="evenodd" clip-rule="evenodd" d="M652.284 401.71H658.067C658.893 411.924 658.893 421.912 657.391 430.849L651.233 431.074C652.735 422.137 652.96 412.374 652.284 401.71Z" fill="#141515"/>
<path fill-rule="evenodd" clip-rule="evenodd" d="M664.602 401.936L670.535 401.485C671.361 411.924 671.361 421.687 669.859 430.849L663.701 431.074C665.203 422.138 665.428 412.375 664.527 401.936H664.602Z" fill="#141515"/>
<path fill-rule="evenodd" clip-rule="evenodd" d="M675.641 401.71H681.423C682.475 412.149 682.7 421.687 681.423 431.074L675.265 430.849C676.542 421.912 676.542 412.149 675.716 401.71H675.641Z" fill="#141515"/>
<path fill-rule="evenodd" clip-rule="evenodd" d="M686.756 401.485L692.689 401.71C693.74 412.149 693.741 421.912 692.464 431.074L686.306 431.525C687.808 422.588 687.808 412.149 686.756 401.485Z" fill="#141515"/>
<path fill-rule="evenodd" clip-rule="evenodd" d="M698.471 401.485H704.254C705.305 411.924 705.531 421.687 704.254 430.849L698.096 431.3C699.373 422.363 699.373 411.924 698.546 401.485H698.471Z" fill="#141515"/>
<path fill-rule="evenodd" clip-rule="evenodd" d="M710.338 401.26L716.121 401.485C717.172 411.698 717.172 421.461 716.121 430.849L709.963 431.074C711.239 422.137 711.239 411.699 710.413 401.26H710.338Z" fill="#141515"/>
<path fill-rule="evenodd" clip-rule="evenodd" d="M721.827 401.485L727.76 401.71C728.812 411.924 728.812 421.912 727.535 431.074L721.377 431.3C722.879 422.588 722.879 411.924 721.827 401.485Z" fill="#141515"/>
<path fill-rule="evenodd" clip-rule="evenodd" d="M733.543 401.71L739.476 401.936C740.527 412.149 740.527 422.137 739.251 431.3L733.093 431.75C734.595 422.813 734.595 412.374 733.543 401.71Z" fill="#141515"/>
<path fill-rule="evenodd" clip-rule="evenodd" d="M745.034 401.71H750.967C752.018 412.149 752.018 421.912 750.741 431.074L744.583 431.525C746.085 422.588 746.085 412.149 745.034 401.71Z" fill="#141515"/>
<path fill-rule="evenodd" clip-rule="evenodd" d="M756.599 401.485H762.532C763.584 411.924 763.584 421.687 762.307 430.849L756.149 431.3C757.651 422.363 757.651 411.924 756.599 401.485Z" fill="#141515"/>
<path fill-rule="evenodd" clip-rule="evenodd" d="M768.09 401.485L774.023 401.71C775.074 411.924 775.074 421.912 773.797 431.074L767.639 431.3C769.141 422.363 769.141 411.924 768.09 401.485Z" fill="#141515"/>
<path fill-rule="evenodd" clip-rule="evenodd" d="M779.579 401.485L785.511 401.71C786.563 411.924 786.563 421.912 785.286 431.074L779.128 431.525C780.63 422.588 780.63 412.149 779.579 401.485Z" fill="#141515"/>
<path fill-rule="evenodd" clip-rule="evenodd" d="M791.069 401.71H797.002C798.053 412.149 798.053 421.912 796.777 431.074L790.618 431.525C792.12 422.588 792.121 412.149 791.069 401.71Z" fill="#141515"/>
<path fill-rule="evenodd" clip-rule="evenodd" d="M806.991 400.659L812.774 400.884C813.225 411.323 812.774 421.086 810.821 430.023L804.663 429.347C806.616 420.636 807.217 411.248 806.991 400.584V400.659Z" fill="#141515"/>
<path fill-rule="evenodd" clip-rule="evenodd" d="M820.209 400.659H825.991C826.667 411.098 826.442 420.861 824.94 429.798H818.782C820.509 420.861 820.735 411.098 820.284 400.659H820.209Z" fill="#141515"/>
<path fill-rule="evenodd" clip-rule="evenodd" d="M833.2 400.884H838.983C839.809 411.098 839.659 421.086 838.157 430.023H831.999C833.726 421.311 833.951 411.323 833.275 400.884H833.2Z" fill="#141515"/>
<path fill-rule="evenodd" clip-rule="evenodd" d="M846.193 400.884L852.126 400.659C852.802 411.098 852.802 420.861 851.3 430.023H845.142C846.644 421.311 846.869 411.323 846.193 400.884Z" fill="#141515"/>
<path fill-rule="evenodd" clip-rule="evenodd" d="M858.733 400.884L864.516 400.659C865.342 411.098 865.342 420.861 863.84 430.023H857.682C859.409 421.311 859.409 411.323 858.733 400.884Z" fill="#141515"/>
<path fill-rule="evenodd" clip-rule="evenodd" d="M869.624 400.659L875.406 400.884C876.458 411.098 876.683 420.861 875.632 430.023L869.248 429.798C870.75 420.861 870.75 411.248 869.699 400.659H869.624Z" fill="#141515"/>
<path fill-rule="evenodd" clip-rule="evenodd" d="M880.89 400.659H886.672C887.724 411.098 887.724 420.861 886.447 430.023L880.514 430.474C881.791 421.537 881.791 411.098 880.965 400.659H880.89Z" fill="#141515"/>
<path fill-rule="evenodd" clip-rule="evenodd" d="M892.379 400.434L898.312 400.659C899.138 410.873 899.363 420.861 898.086 430.023L891.928 430.248C893.43 421.311 893.43 410.873 892.379 400.434Z" fill="#141515"/>
<path fill-rule="evenodd" clip-rule="evenodd" d="M904.319 400.208L910.102 400.434C911.153 410.873 911.378 420.636 910.102 429.798L903.943 430.248C905.22 421.311 905.22 410.873 904.394 400.208H904.319Z" fill="#141515"/>
<path fill-rule="evenodd" clip-rule="evenodd" d="M915.81 400.659H921.743C922.795 411.098 922.795 420.861 921.518 430.023L915.36 430.474C916.862 421.537 916.862 411.098 915.81 400.659Z" fill="#141515"/>
<path fill-rule="evenodd" clip-rule="evenodd" d="M927.752 400.884H933.534C934.586 411.323 934.586 421.086 933.309 430.248L927.376 430.699C928.653 421.762 928.653 411.323 927.827 400.884H927.752Z" fill="#141515"/>
<path fill-rule="evenodd" clip-rule="evenodd" d="M939.24 400.659H945.023C946.074 411.098 946.074 420.861 944.798 430.023L938.865 430.474C940.141 421.537 940.141 411.098 939.315 400.659H939.24Z" fill="#141515"/>
<path fill-rule="evenodd" clip-rule="evenodd" d="M950.731 400.434L956.514 400.659C957.565 410.873 957.565 420.861 956.288 430.023L950.355 430.474C951.632 421.537 951.632 411.098 950.806 400.434H950.731Z" fill="#141515"/>
<path fill-rule="evenodd" clip-rule="evenodd" d="M961.996 400.659H967.929C968.98 411.098 968.98 420.861 967.704 430.023L961.771 430.474C963.047 421.537 963.047 411.098 961.996 400.659Z" fill="#141515"/>
<path fill-rule="evenodd" clip-rule="evenodd" d="M973.487 400.659H979.419C980.471 411.098 980.471 420.861 979.194 430.023L973.261 430.474C974.538 421.537 974.538 411.098 973.487 400.659Z" fill="#141515"/>
<path fill-rule="evenodd" clip-rule="evenodd" d="M984.977 400.659H990.91C991.961 411.098 991.961 420.861 990.684 430.023L984.752 430.474C986.028 421.537 986.028 411.098 984.977 400.659Z" fill="#141515"/>
</svg>
