<svg width="1171" height="567" viewBox="0 0 1171 567" fill="none" xmlns="http://www.w3.org/2000/svg">
<path fill-rule="evenodd" clip-rule="evenodd" d="M1162.66 129.466C1160.43 136.481 1157.24 143.018 1153.41 149.156C1145.04 159.52 1140.1 159.121 1138.27 147.562L1138.03 104.832C1138.51 96.7011 1142.81 89.0482 1150.7 81.7938C1151.82 80.4386 1157.96 67.7631 1142.81 73.4232C1129.26 80.1993 1121.77 89.9251 1118.42 101.644L1117.94 170.601C1114.35 180.087 1110.69 179.21 1106.62 171.478L1107.26 82.4315C1110.21 70.2345 1116.11 59.6318 1124.88 50.5439C1128.06 43.7678 1124.64 40.1804 1117.86 43.7677C1100.24 54.6095 1091.87 68.401 1089.4 83.5476L1085.33 173.072C1081.27 184.79 1072.66 186.385 1069.95 173.55L1066.76 66.8862C1067.64 58.2765 1070.35 49.9063 1077.12 45.6812C1084.38 37.3107 1080.55 33.7232 1070.99 37.5497C1059.27 41.6153 1049.06 55.4068 1048.82 66.0094L1046.75 176.739C1043.8 188.458 1035.03 188.298 1032.08 176.5L1020.76 45.2029C1019.41 19.932 1012.39 -0.237027 1005.38 0.00213C998.361 -0.237027 991.346 19.6926 989.991 44.9635L978.67 176.261C975.721 188.218 966.952 188.458 964.002 176.739L961.93 66.0094C961.69 55.4068 951.566 41.3762 939.768 37.5497C930.281 33.7232 926.694 37.0715 933.629 45.6812C940.405 49.7468 943.116 58.3563 943.993 66.7268L940.804 173.63C938.093 186.544 929.484 184.95 925.418 173.152L921.353 83.4678C918.881 68.5604 910.511 54.5299 892.893 43.9273C886.117 40.34 882.689 43.9271 885.878 50.4641C894.726 59.7115 900.546 70.3141 903.496 82.5908L904.133 171.398C900.307 179.29 896.48 180.007 892.813 170.68L892.574 101.724C888.987 90.0049 881.493 80.2791 867.941 73.503C852.794 67.8429 858.933 80.279 860.049 81.8734C868.18 89.1278 872.246 96.7809 872.724 104.912L872.485 147.641C870.89 159.201 865.709 159.599 857.338 149.236C853.512 143.098 850.323 136.561 848.091 129.386C839.72 117.428 837.488 119.899 839.72 132.814C844.504 160.397 858.056 180.486 876.311 194.995C903.177 211.975 930.281 218.272 958.342 218.91C964.241 246.015 966.474 273.358 961.93 300.941L955.632 356.107C949.972 359.933 950.849 365.832 955.153 365.354V368.543C948.377 374.203 948.377 378.507 954.276 379.624L953.798 383.928C948.377 389.349 945.188 394.292 953.559 396.843C953.32 418.287 945.667 427.375 932.992 428.013C850.961 428.013 768.691 428.013 686.421 428.252L39.6615 424.665L34.0014 423.947L20.6884 456.473L43.2489 468.909C68.5197 494.419 76.4916 516.82 72.8245 537.626L98.3345 545.997L105.111 528.857C104.234 527.502 110.292 517.537 121.852 518.016C218.79 521.204 733.535 518.494 915.453 518.733C929.882 518.255 940.963 525.031 938.971 538.583L965.198 547.432L973.09 532.524C977.395 523.038 983.454 518.972 990.469 518.255H1004.9L1019.33 518.494C1026.34 518.972 1032.4 523.038 1036.71 532.524L1045.71 547.91L1069.87 540.257C1067.64 514.508 1063.73 488.041 1056.32 460.937V397.002C1064.69 394.531 1061.5 389.509 1056.08 384.088L1055.6 379.783C1061.5 378.667 1061.5 374.362 1054.72 368.702V365.513C1059.03 365.992 1060.14 360.332 1054.24 356.266L1047.95 301.34C1043.64 273.757 1045.71 246.413 1051.53 219.07C1079.51 218.591 1106.7 212.055 1133.56 195.154C1151.9 180.725 1165.45 160.556 1170.16 132.973C1172.39 120.298 1170.39 117.588 1161.78 129.785L1162.66 129.466Z" fill="#DD2A1B"/>
<path fill-rule="evenodd" clip-rule="evenodd" d="M1070.67 538.741L1045.56 546.394C1060.94 586.812 1077.2 552.054 1070.67 538.741Z" fill="#141515" stroke="#141515" stroke-width="0.23" stroke-miterlimit="10"/>
<path fill-rule="evenodd" clip-rule="evenodd" d="M73.2227 538.741L98.4936 546.394C83.1078 586.652 66.8452 552.054 73.2227 538.741Z" fill="#141515" stroke="#141515" stroke-width="0.23" stroke-miterlimit="10"/>
<path fill-rule="evenodd" clip-rule="evenodd" d="M20.7685 418.287L34.0815 424.187L20.2902 455.835L4.66524 446.588C-4.82131 435.267 5.38279 414.939 20.6888 418.367L20.7685 418.287Z" fill="#141515" stroke="#141515" stroke-width="0.23" stroke-miterlimit="10"/>
<path fill-rule="evenodd" clip-rule="evenodd" d="M940.088 539.142L964.96 546.795C948.698 587.053 932.435 552.455 940.088 539.142Z" fill="#141515" stroke="#141515" stroke-width="0.23" stroke-miterlimit="10"/>
<path fill-rule="evenodd" clip-rule="evenodd" d="M940.725 539.621L964.481 547.274C949.095 587.691 935.304 553.571 940.725 539.621Z" fill="#141515" stroke="#141515" stroke-width="0.23" stroke-miterlimit="10"/>
<path fill-rule="evenodd" clip-rule="evenodd" d="M984.809 207.908C988.875 207.908 992.303 204.48 992.303 200.415C992.303 196.349 988.875 192.921 984.809 192.921C980.504 192.921 977.315 196.349 977.315 200.415C977.315 204.48 980.504 207.908 984.809 207.908Z" fill="#141515"/>
<path fill-rule="evenodd" clip-rule="evenodd" d="M1027.78 208.15C1032.08 208.15 1035.27 204.722 1035.27 200.656C1035.27 196.591 1032.08 193.163 1027.78 193.163C1023.71 193.163 1020.28 196.591 1020.28 200.656C1020.28 204.722 1023.71 208.15 1027.78 208.15Z" fill="#141515"/>
<path fill-rule="evenodd" clip-rule="evenodd" d="M1006.73 182.798C1013.99 182.798 1019.65 176.899 1019.65 169.724C1019.65 162.55 1013.99 156.81 1006.73 156.81C999.478 156.81 993.818 162.709 993.818 169.724C993.818 176.74 999.717 182.798 1006.73 182.798Z" fill="#FEFEFE"/>
<path fill-rule="evenodd" clip-rule="evenodd" d="M950.053 205.596C954.357 205.596 957.706 202.168 957.706 198.102C957.706 193.798 954.278 190.449 950.053 190.449C945.987 190.449 942.559 193.877 942.559 198.102C942.559 202.168 945.987 205.596 950.053 205.596Z" fill="#FEFEFE"/>
<path fill-rule="evenodd" clip-rule="evenodd" d="M1059.59 204.483C1063.65 204.483 1067.08 201.055 1067.08 196.989C1067.08 192.685 1063.65 189.336 1059.59 189.336C1055.28 189.336 1051.93 192.764 1051.93 196.989C1051.93 201.055 1055.36 204.483 1059.59 204.483Z" fill="#FEFEFE"/>
<path fill-rule="evenodd" clip-rule="evenodd" d="M912.266 199.298C916.331 199.298 919.759 195.871 919.759 191.645C919.759 187.58 916.331 184.152 912.266 184.152C907.961 184.152 904.613 187.58 904.613 191.645C904.613 195.95 908.041 199.298 912.266 199.298Z" fill="#FEFEFE"/>
<path fill-rule="evenodd" clip-rule="evenodd" d="M1097.37 198.185C1101.68 198.185 1104.87 194.757 1104.87 190.532C1104.87 186.467 1101.68 183.039 1097.37 183.039C1093.31 183.039 1089.88 186.467 1089.88 190.532C1089.88 194.837 1093.31 198.185 1097.37 198.185Z" fill="#FEFEFE"/>
<path fill-rule="evenodd" clip-rule="evenodd" d="M875.914 182.159C880.218 182.159 883.566 178.731 883.566 174.665C883.566 170.36 880.139 167.012 875.914 167.012C871.848 167.012 868.42 170.44 868.42 174.665C868.42 178.731 871.848 182.159 875.914 182.159Z" fill="#FEFEFE"/>
<path fill-rule="evenodd" clip-rule="evenodd" d="M1133.73 180.965C1137.79 180.965 1141.22 177.537 1141.22 173.471C1141.22 169.405 1137.79 165.978 1133.73 165.978C1129.42 165.978 1126.07 169.405 1126.07 173.471C1126.07 177.537 1129.5 180.965 1133.73 180.965Z" fill="#FEFEFE"/>
<path fill-rule="evenodd" clip-rule="evenodd" d="M1021.64 216.52C1019.41 212.454 1017.1 213.092 1014.86 216.52V224.013C1013.27 227.202 1011.67 226.484 1010.08 224.013L1009.84 213.171C1006.89 207.75 1003.94 207.989 1000.83 213.41V224.013C999.238 227.84 997.644 227.441 995.89 224.013V216.759C993.658 211.816 991.585 213.171 989.353 216.759V227.361C990.469 233.5 992.94 239.319 996.847 244.979H1013.35C1017.41 239.319 1020.6 233.42 1021.72 227.361V216.52H1021.64Z" fill="#FEFEFE"/>
<path fill-rule="evenodd" clip-rule="evenodd" d="M1014.23 247.448H997.087C995.732 253.347 994.616 259.007 995.732 264.428C1000.67 276.625 1011.12 278.698 1015.58 264.428C1016.3 258.768 1015.82 253.108 1014.23 247.448Z" fill="#FEFEFE"/>
<path fill-rule="evenodd" clip-rule="evenodd" d="M1054.17 364.718C1049.86 367.907 1045.32 367.429 1040.37 364.718C1040.61 376.437 1055.52 372.85 1054.17 364.718Z" fill="#141515" stroke="#141515" stroke-width="0.23" stroke-miterlimit="10"/>
<path fill-rule="evenodd" clip-rule="evenodd" d="M956.829 364.718C961.133 368.146 965.677 367.668 970.62 364.718C970.381 376.437 955.473 372.85 956.829 364.718Z" fill="#141515" stroke="#141515" stroke-width="0.23" stroke-miterlimit="10"/>
<path fill-rule="evenodd" clip-rule="evenodd" d="M1037.5 364.718C1033.44 367.907 1028.66 367.429 1023.95 364.718C1024.19 376.437 1039.1 372.85 1037.5 364.718Z" fill="#141515" stroke="#141515" stroke-width="0.23" stroke-miterlimit="10"/>
<path fill-rule="evenodd" clip-rule="evenodd" d="M973.49 364.718C977.555 368.146 982.338 367.668 987.042 364.718C986.803 376.437 971.895 372.85 973.49 364.718Z" fill="#141515" stroke="#141515" stroke-width="0.23" stroke-miterlimit="10"/>
<path fill-rule="evenodd" clip-rule="evenodd" d="M1021.16 364.718C1016.86 367.907 1012.31 367.429 1007.61 364.718C1007.61 376.437 1022.52 372.85 1021.16 364.718Z" fill="#141515" stroke="#141515" stroke-width="0.23" stroke-miterlimit="10"/>
<path fill-rule="evenodd" clip-rule="evenodd" d="M989.751 364.718C994.056 367.907 998.6 367.668 1003.54 364.718C1003.3 376.437 988.396 372.85 989.751 364.718Z" fill="#141515" stroke="#141515" stroke-width="0.23" stroke-miterlimit="10"/>
<path fill-rule="evenodd" clip-rule="evenodd" d="M1021.4 349.568C1017.1 352.757 1012.55 352.278 1007.61 349.568C1007.85 361.287 1022.76 357.699 1021.4 349.568Z" fill="#141515" stroke="#141515" stroke-width="0.23" stroke-miterlimit="10"/>
<path fill-rule="evenodd" clip-rule="evenodd" d="M989.991 349.568C994.296 352.996 998.84 352.517 1003.54 349.568C1003.54 361.287 988.636 357.699 989.991 349.568Z" fill="#141515" stroke="#141515" stroke-width="0.23" stroke-miterlimit="10"/>
<path fill-rule="evenodd" clip-rule="evenodd" d="M1021.4 333.547C1017.33 336.736 1012.55 336.257 1007.85 333.547C1008.09 345.106 1022.76 341.439 1021.4 333.547Z" fill="#141515" stroke="#141515" stroke-width="0.23" stroke-miterlimit="10"/>
<path fill-rule="evenodd" clip-rule="evenodd" d="M989.991 333.547C994.296 336.736 998.84 336.496 1003.78 333.547C1003.54 345.266 988.636 341.678 989.991 333.547Z" fill="#141515" stroke="#141515" stroke-width="0.23" stroke-miterlimit="10"/>
<path fill-rule="evenodd" clip-rule="evenodd" d="M1021.64 317.284C1017.33 320.712 1012.79 320.234 1007.85 317.284C1008.09 329.003 1022.99 325.416 1021.64 317.284Z" fill="#141515" stroke="#141515" stroke-width="0.23" stroke-miterlimit="10"/>
<path fill-rule="evenodd" clip-rule="evenodd" d="M990.229 317.521C994.295 320.71 999.078 320.231 1003.78 317.521C1003.54 329.24 988.635 325.652 990.229 317.521Z" fill="#141515" stroke="#141515" stroke-width="0.23" stroke-miterlimit="10"/>
<path fill-rule="evenodd" clip-rule="evenodd" d="M1021.64 301.258C1017.34 304.447 1012.79 304.207 1008.09 301.258C1008.09 312.976 1023 309.389 1021.64 301.258Z" fill="#141515" stroke="#141515" stroke-width="0.23" stroke-miterlimit="10"/>
<path fill-rule="evenodd" clip-rule="evenodd" d="M990.23 301.418C994.535 304.607 999.079 304.128 1003.78 301.418C1003.78 312.977 988.875 309.31 990.23 301.418Z" fill="#141515" stroke="#141515" stroke-width="0.23" stroke-miterlimit="10"/>
<path fill-rule="evenodd" clip-rule="evenodd" d="M1021.4 285.159C1017.1 288.348 1012.55 287.87 1007.85 285.159C1007.85 296.718 1022.76 293.051 1021.4 285.159Z" fill="#141515" stroke="#141515" stroke-width="0.23" stroke-miterlimit="10"/>
<path fill-rule="evenodd" clip-rule="evenodd" d="M989.991 285.159C994.296 288.348 998.84 288.109 1003.78 285.159C1003.54 296.878 988.636 293.291 989.991 285.159Z" fill="#141515" stroke="#141515" stroke-width="0.23" stroke-miterlimit="10"/>
<path fill-rule="evenodd" clip-rule="evenodd" d="M1054.17 380.977C1049.86 384.165 1045.32 383.687 1040.37 380.977C1040.61 392.695 1055.52 389.108 1054.17 380.977Z" fill="#141515" stroke="#141515" stroke-width="0.23" stroke-miterlimit="10"/>
<path fill-rule="evenodd" clip-rule="evenodd" d="M956.829 380.977C961.133 384.404 965.677 383.926 970.62 380.977C970.381 392.695 955.473 389.108 956.829 380.977Z" fill="#141515" stroke="#141515" stroke-width="0.23" stroke-miterlimit="10"/>
<path fill-rule="evenodd" clip-rule="evenodd" d="M1037.5 380.977C1033.44 384.165 1028.66 383.687 1023.95 380.977C1024.19 392.695 1038.86 389.108 1037.5 380.977Z" fill="#141515" stroke="#141515" stroke-width="0.23" stroke-miterlimit="10"/>
<path fill-rule="evenodd" clip-rule="evenodd" d="M973.331 380.977C977.636 384.404 982.18 383.926 987.122 380.977C986.883 392.695 971.976 389.108 973.331 380.977Z" fill="#141515" stroke="#141515" stroke-width="0.23" stroke-miterlimit="10"/>
<path fill-rule="evenodd" clip-rule="evenodd" d="M1021.16 380.977C1016.86 384.165 1012.31 383.687 1007.37 380.977C1007.61 392.695 1022.52 389.108 1021.16 380.977Z" fill="#141515" stroke="#141515" stroke-width="0.23" stroke-miterlimit="10"/>
<path fill-rule="evenodd" clip-rule="evenodd" d="M989.751 380.977C993.817 384.165 998.6 383.926 1003.3 380.977C1003.3 392.695 988.396 389.108 989.751 380.977Z" fill="#141515" stroke="#141515" stroke-width="0.23" stroke-miterlimit="10"/>
<path fill-rule="evenodd" clip-rule="evenodd" d="M1054.88 396.364C1050.58 399.553 1046.03 399.074 1041.09 396.364C1041.33 408.082 1056.24 404.495 1054.88 396.364Z" fill="#141515" stroke="#141515" stroke-width="0.23" stroke-miterlimit="10"/>
<path fill-rule="evenodd" clip-rule="evenodd" d="M957.465 396.364C961.77 399.792 966.314 399.313 971.256 396.364C971.017 408.082 956.11 404.495 957.465 396.364Z" fill="#141515" stroke="#141515" stroke-width="0.23" stroke-miterlimit="10"/>
<path fill-rule="evenodd" clip-rule="evenodd" d="M1038.14 396.364C1034.08 399.553 1029.29 399.074 1024.59 396.364C1024.83 408.082 1039.74 404.495 1038.14 396.364Z" fill="#141515" stroke="#141515" stroke-width="0.23" stroke-miterlimit="10"/>
<path fill-rule="evenodd" clip-rule="evenodd" d="M974.208 396.364C978.273 399.792 982.817 399.313 987.76 396.364C987.521 408.082 972.613 404.495 974.208 396.364Z" fill="#141515" stroke="#141515" stroke-width="0.23" stroke-miterlimit="10"/>
<path fill-rule="evenodd" clip-rule="evenodd" d="M1021.88 396.364C1017.57 399.553 1013.03 399.074 1008.09 396.364C1008.33 408.082 1023.23 404.495 1021.88 396.364Z" fill="#141515" stroke="#141515" stroke-width="0.23" stroke-miterlimit="10"/>
<path fill-rule="evenodd" clip-rule="evenodd" d="M990.47 396.364C994.774 399.553 999.319 399.313 1004.02 396.364C1004.02 408.082 989.114 404.495 990.47 396.364Z" fill="#141515" stroke="#141515" stroke-width="0.23" stroke-miterlimit="10"/>
<path fill-rule="evenodd" clip-rule="evenodd" d="M930.999 428.012H924.861C924.382 439.093 924.861 449.456 926.934 458.943L933.471 458.465C931.398 449.217 930.76 439.252 930.999 427.932V428.012Z" fill="#141515"/>
<path fill-rule="evenodd" clip-rule="evenodd" d="M917.049 427.773H910.91C910.193 438.854 910.432 449.457 912.026 458.943L918.563 458.704C916.73 449.457 916.49 439.013 916.969 427.773H917.049Z" fill="#141515"/>
<path fill-rule="evenodd" clip-rule="evenodd" d="M903.256 428.014H897.118C896.241 439.095 896.4 449.459 897.994 459.184H904.531C902.698 449.698 902.459 439.334 903.176 428.014H903.256Z" fill="#141515"/>
<path fill-rule="evenodd" clip-rule="evenodd" d="M889.466 428.014H883.168C882.451 438.856 882.451 449.459 884.045 458.945L890.582 459.184C888.987 449.698 888.748 439.334 889.466 428.014Z" fill="#141515"/>
<path fill-rule="evenodd" clip-rule="evenodd" d="M876.152 428.251L870.014 427.773C869.137 438.854 869.137 449.217 870.732 458.943L877.268 459.182C875.435 449.696 875.435 439.332 876.152 428.251Z" fill="#141515"/>
<path fill-rule="evenodd" clip-rule="evenodd" d="M864.592 428.014H858.454C857.338 439.095 857.099 449.219 858.215 459.184L864.991 458.945C863.397 449.459 863.396 439.095 864.513 428.014H864.592Z" fill="#141515"/>
<path fill-rule="evenodd" clip-rule="evenodd" d="M852.635 427.773L846.497 428.012C845.381 438.854 845.381 449.457 846.736 459.182L853.034 459.661C851.679 450.174 851.679 439.093 852.555 427.773H852.635Z" fill="#141515"/>
<path fill-rule="evenodd" clip-rule="evenodd" d="M840.438 427.773H834.14C833.263 438.854 833.024 449.217 834.379 458.943L840.916 459.421C839.322 449.935 839.322 438.854 840.438 427.773Z" fill="#141515"/>
<path fill-rule="evenodd" clip-rule="evenodd" d="M827.763 427.535L821.625 427.774C820.509 438.616 820.269 448.98 821.625 458.944L828.161 459.184C826.806 449.697 826.806 438.616 827.683 427.535H827.763Z" fill="#141515"/>
<path fill-rule="evenodd" clip-rule="evenodd" d="M815.567 427.773L809.269 428.012C808.153 438.854 808.153 449.457 809.508 459.182L816.045 459.421C814.451 450.174 814.451 438.854 815.567 427.773Z" fill="#141515"/>
<path fill-rule="evenodd" clip-rule="evenodd" d="M802.891 428.014L796.752 428.253C795.636 439.095 795.636 449.698 796.992 459.423L803.289 459.902C801.934 450.415 801.934 439.334 802.811 428.014H802.891Z" fill="#141515"/>
<path fill-rule="evenodd" clip-rule="evenodd" d="M790.694 428.014H784.555C783.439 439.095 783.439 449.459 784.794 459.184L791.092 459.663C789.737 450.176 789.737 439.095 790.614 428.014H790.694Z" fill="#141515"/>
<path fill-rule="evenodd" clip-rule="evenodd" d="M778.496 427.773H772.358C771.242 438.854 771.242 449.217 772.597 458.943L778.895 459.421C777.54 449.935 777.54 438.854 778.417 427.773H778.496Z" fill="#141515"/>
<path fill-rule="evenodd" clip-rule="evenodd" d="M766.299 427.773L760.161 428.012C759.045 438.854 759.045 449.457 760.4 459.182L766.698 459.421C765.343 449.935 765.343 438.854 766.219 427.773H766.299Z" fill="#141515"/>
<path fill-rule="evenodd" clip-rule="evenodd" d="M754.102 427.773L747.964 428.012C746.848 438.854 746.847 449.457 748.203 459.182L754.501 459.661C753.145 450.174 753.145 439.093 754.022 427.773H754.102Z" fill="#141515"/>
<path fill-rule="evenodd" clip-rule="evenodd" d="M742.146 428.014H735.848C734.732 439.095 734.732 449.459 736.087 459.184L742.385 459.663C741.03 450.176 741.03 439.095 742.146 428.014Z" fill="#141515"/>
<path fill-rule="evenodd" clip-rule="evenodd" d="M725.643 428.012H719.505C719.026 439.093 719.505 449.456 721.577 458.943L728.114 458.225C726.042 449.217 725.404 439.013 725.643 427.932V428.012Z" fill="#141515"/>
<path fill-rule="evenodd" clip-rule="evenodd" d="M711.613 427.773H705.474C704.757 438.854 704.996 449.217 706.59 458.943L713.127 458.704C711.294 449.457 711.055 439.013 711.533 427.773H711.613Z" fill="#141515"/>
<path fill-rule="evenodd" clip-rule="evenodd" d="M697.82 428.014H691.682C690.805 439.095 690.964 449.459 692.559 459.184H699.096C697.262 449.698 697.023 439.334 697.741 428.014H697.82Z" fill="#141515"/>
<path fill-rule="evenodd" clip-rule="evenodd" d="M684.03 428.012L677.732 427.773C677.015 438.854 677.015 449.457 678.609 458.943L685.146 459.182C683.552 449.696 683.312 439.332 684.03 428.012Z" fill="#141515"/>
<path fill-rule="evenodd" clip-rule="evenodd" d="M670.717 428.012L664.578 427.773C663.701 438.854 663.701 449.217 665.296 458.943L671.833 459.182C670.238 449.696 669.999 439.332 670.717 428.012Z" fill="#141515"/>
<path fill-rule="evenodd" clip-rule="evenodd" d="M659.157 428.014H653.018C651.902 439.095 651.663 449.219 652.779 458.945H659.555C657.961 449.459 658.2 439.095 659.077 428.014H659.157Z" fill="#141515"/>
<path fill-rule="evenodd" clip-rule="evenodd" d="M647.439 427.773L641.141 428.012C640.025 438.854 640.025 449.457 641.38 459.182L647.678 459.661C646.323 450.174 646.323 439.093 647.439 427.773Z" fill="#141515"/>
<path fill-rule="evenodd" clip-rule="evenodd" d="M635.003 427.773H628.865C627.749 438.854 627.51 449.217 628.865 458.943L635.402 459.421C633.807 449.935 634.047 438.854 634.924 427.773H635.003Z" fill="#141515"/>
<path fill-rule="evenodd" clip-rule="evenodd" d="M622.327 427.535H616.188C615.072 438.616 615.072 448.98 616.188 458.705L622.725 459.184C621.37 449.697 621.37 438.616 622.247 427.535H622.327Z" fill="#141515"/>
<path fill-rule="evenodd" clip-rule="evenodd" d="M610.131 427.773H603.833C602.717 438.854 602.717 449.217 604.072 458.943L610.609 459.421C609.015 449.935 609.015 438.854 610.131 427.773Z" fill="#141515"/>
<path fill-rule="evenodd" clip-rule="evenodd" d="M597.455 428.014L591.317 428.253C590.201 439.095 590.201 449.698 591.556 459.423L597.854 459.663C596.498 450.176 596.498 439.095 597.375 428.014H597.455Z" fill="#141515"/>
<path fill-rule="evenodd" clip-rule="evenodd" d="M585.497 427.773L579.199 428.012C578.083 438.854 578.083 449.457 579.438 459.182L585.736 459.661C584.381 450.174 584.381 439.093 585.497 427.773Z" fill="#141515"/>
<path fill-rule="evenodd" clip-rule="evenodd" d="M573.3 427.773H567.002C565.886 438.854 565.886 449.217 567.241 458.943L573.539 459.421C572.184 449.935 572.184 438.854 573.3 427.773Z" fill="#141515"/>
<path fill-rule="evenodd" clip-rule="evenodd" d="M561.102 427.773H554.805C553.689 438.854 553.689 449.217 555.044 458.943L561.342 459.421C559.986 449.935 559.986 438.854 561.102 427.773Z" fill="#141515"/>
<path fill-rule="evenodd" clip-rule="evenodd" d="M548.907 427.773L542.61 428.012C541.493 438.854 541.493 449.457 542.849 459.182L549.386 459.421C547.791 450.174 547.791 438.854 548.907 427.773Z" fill="#141515"/>
<path fill-rule="evenodd" clip-rule="evenodd" d="M536.71 427.773L530.412 428.012C529.296 438.854 529.296 449.457 530.651 459.182L537.188 459.661C535.594 450.174 535.594 439.093 536.71 427.773Z" fill="#141515"/>
<path fill-rule="evenodd" clip-rule="evenodd" d="M520.208 426.42H514.07C513.592 437.501 514.309 447.864 516.143 457.351L522.68 456.873C520.607 447.625 519.969 437.66 520.208 426.34V426.42Z" fill="#141515"/>
<path fill-rule="evenodd" clip-rule="evenodd" d="M506.177 426.181H500.039C499.321 437.262 499.56 447.865 501.155 457.351L507.691 457.112C505.858 447.865 505.619 437.422 506.097 426.181H506.177Z" fill="#141515"/>
<path fill-rule="evenodd" clip-rule="evenodd" d="M492.387 426.658L486.248 426.418C485.371 437.499 485.531 447.863 487.125 457.589H493.662C492.068 448.102 491.589 437.739 492.307 426.658H492.387Z" fill="#141515"/>
<path fill-rule="evenodd" clip-rule="evenodd" d="M478.595 426.418H472.457C471.58 437.26 471.58 447.863 473.174 457.349L479.711 457.589C478.117 448.102 477.878 437.739 478.595 426.418Z" fill="#141515"/>
<path fill-rule="evenodd" clip-rule="evenodd" d="M465.52 426.659L459.222 426.181C458.345 437.262 458.345 447.626 459.94 457.351L466.477 457.59C464.882 448.104 464.643 437.74 465.6 426.659H465.52Z" fill="#141515"/>
<path fill-rule="evenodd" clip-rule="evenodd" d="M453.802 426.418H447.664C446.548 437.499 446.309 447.624 447.664 457.589L454.201 457.349C452.846 447.863 452.846 437.499 453.722 426.418H453.802Z" fill="#141515"/>
<path fill-rule="evenodd" clip-rule="evenodd" d="M442.003 426.181L435.705 426.42C434.589 437.501 434.589 447.865 435.944 457.59L442.481 458.069C440.887 448.582 440.887 437.501 442.003 426.181Z" fill="#141515"/>
<path fill-rule="evenodd" clip-rule="evenodd" d="M429.567 426.181H423.429C422.313 437.262 422.074 447.626 423.429 457.351L429.966 457.83C428.611 448.343 428.611 437.262 429.488 426.181H429.567Z" fill="#141515"/>
<path fill-rule="evenodd" clip-rule="evenodd" d="M416.971 425.939L410.832 426.179C409.716 437.02 409.716 447.384 410.832 457.349L417.369 457.588C416.014 448.101 416.014 437.02 416.891 425.939H416.971Z" fill="#141515"/>
<path fill-rule="evenodd" clip-rule="evenodd" d="M404.775 426.181L398.477 426.42C397.361 437.262 397.361 447.865 398.716 457.59L405.253 457.83C403.659 448.582 403.659 437.262 404.775 426.181Z" fill="#141515"/>
<path fill-rule="evenodd" clip-rule="evenodd" d="M392.338 426.418L386.04 426.658C384.924 437.499 384.924 448.102 386.28 457.828L392.817 458.306C391.222 448.819 391.222 437.739 392.338 426.418Z" fill="#141515"/>
<path fill-rule="evenodd" clip-rule="evenodd" d="M380.141 426.418H373.843C372.727 437.499 372.727 447.863 374.082 457.589L380.619 458.067C379.025 448.58 379.025 437.499 380.141 426.418Z" fill="#141515"/>
<path fill-rule="evenodd" clip-rule="evenodd" d="M367.864 426.181H361.566C360.45 437.262 360.45 447.626 361.805 457.351L368.342 457.83C366.748 448.343 366.748 437.262 367.864 426.181Z" fill="#141515"/>
<path fill-rule="evenodd" clip-rule="evenodd" d="M355.667 426.181L349.369 426.42C348.253 437.262 348.253 447.865 349.608 457.59L356.145 457.83C354.551 448.343 354.551 437.262 355.667 426.181Z" fill="#141515"/>
<path fill-rule="evenodd" clip-rule="evenodd" d="M343.471 426.181L337.174 426.42C336.058 437.262 336.058 447.865 337.413 457.59L343.95 458.069C342.355 448.582 342.355 437.501 343.471 426.181Z" fill="#141515"/>
<path fill-rule="evenodd" clip-rule="evenodd" d="M331.274 426.418H324.976C323.86 437.499 323.86 447.863 325.216 457.589L331.753 458.067C330.158 448.58 330.158 437.499 331.274 426.418Z" fill="#141515"/>
<path fill-rule="evenodd" clip-rule="evenodd" d="M314.373 425.303L308.234 425.542C307.756 436.623 308.234 446.987 310.307 456.473L316.844 455.756C314.771 446.508 314.133 436.543 314.373 425.223V425.303Z" fill="#141515"/>
<path fill-rule="evenodd" clip-rule="evenodd" d="M300.342 425.301H294.204C293.486 436.382 293.725 446.746 295.32 456.232H301.857C300.023 446.746 299.784 436.382 300.262 425.301H300.342Z" fill="#141515"/>
<path fill-rule="evenodd" clip-rule="evenodd" d="M286.552 425.542H280.413C279.536 436.384 279.696 446.987 281.29 456.473H287.827C285.994 447.226 285.754 436.623 286.472 425.542H286.552Z" fill="#141515"/>
<path fill-rule="evenodd" clip-rule="evenodd" d="M272.759 425.54L266.462 425.301C265.744 436.382 265.744 446.746 267.339 456.471H273.875C272.281 447.224 272.042 436.621 272.759 425.54Z" fill="#141515"/>
<path fill-rule="evenodd" clip-rule="evenodd" d="M259.448 425.54L253.31 425.301C252.433 436.382 252.433 446.746 254.027 456.471H260.564C258.73 447.224 258.73 436.621 259.448 425.54Z" fill="#141515"/>
<path fill-rule="evenodd" clip-rule="evenodd" d="M247.888 425.301L241.75 425.54C240.634 436.382 240.394 446.746 241.51 456.471L248.287 456.232C246.692 446.746 246.692 436.542 247.808 425.301H247.888Z" fill="#141515"/>
<path fill-rule="evenodd" clip-rule="evenodd" d="M235.929 425.301H229.791C228.675 436.382 228.675 446.746 230.03 456.471L236.328 456.95C234.972 447.463 234.972 436.382 235.849 425.301H235.929Z" fill="#141515"/>
<path fill-rule="evenodd" clip-rule="evenodd" d="M223.733 425.064L217.435 425.303C216.558 436.145 216.319 446.748 217.675 456.473L224.212 456.712C222.617 447.226 222.617 436.145 223.733 425.064Z" fill="#141515"/>
<path fill-rule="evenodd" clip-rule="evenodd" d="M211.059 424.822L204.92 425.061C203.804 436.142 203.565 446.506 204.92 456.232L211.457 456.71C210.102 447.223 210.102 436.142 210.979 424.822H211.059Z" fill="#141515"/>
<path fill-rule="evenodd" clip-rule="evenodd" d="M198.86 425.301H192.563C191.446 436.382 191.446 446.746 192.802 456.471L199.339 456.95C197.744 447.463 197.744 436.382 198.86 425.301Z" fill="#141515"/>
<path fill-rule="evenodd" clip-rule="evenodd" d="M186.184 425.542H180.046C178.93 436.623 178.93 446.987 180.285 456.713L186.583 457.191C185.228 447.704 185.228 436.623 186.105 425.542H186.184Z" fill="#141515"/>
<path fill-rule="evenodd" clip-rule="evenodd" d="M173.989 425.301H167.851C166.735 436.382 166.735 446.746 168.09 456.471L174.388 456.95C173.033 447.463 173.033 436.382 173.91 425.301H173.989Z" fill="#141515"/>
<path fill-rule="evenodd" clip-rule="evenodd" d="M161.792 425.064L155.654 425.303C154.538 436.145 154.538 446.748 155.893 456.473L162.191 456.952C160.835 447.465 160.835 436.384 161.712 425.064H161.792Z" fill="#141515"/>
<path fill-rule="evenodd" clip-rule="evenodd" d="M149.834 425.301H143.536C142.42 436.382 142.42 446.746 143.775 456.471L150.073 456.95C148.718 447.463 148.718 436.382 149.834 425.301Z" fill="#141515"/>
<path fill-rule="evenodd" clip-rule="evenodd" d="M137.637 425.301H131.339C130.223 436.382 130.223 446.746 131.578 456.471L137.876 456.95C136.521 447.463 136.521 436.382 137.637 425.301Z" fill="#141515"/>
<path fill-rule="evenodd" clip-rule="evenodd" d="M125.44 425.301H119.142C118.026 436.382 118.026 446.746 119.381 456.471L125.679 456.95C124.323 447.463 124.323 436.382 125.44 425.301Z" fill="#141515"/>
</svg>
