<svg width="948" height="459" viewBox="0 0 948 459" fill="none" xmlns="http://www.w3.org/2000/svg">
<path fill-rule="evenodd" clip-rule="evenodd" d="M6.7511 104.82C8.55835 110.5 11.1401 115.792 14.2382 120.762C21.0152 129.153 25.0168 128.83 26.5013 119.471L26.695 84.8762C26.3077 78.2927 22.8224 72.0967 16.4326 66.2232C15.529 65.126 10.5591 54.8635 22.8223 59.4461C33.7947 64.9322 39.8618 72.8066 42.5726 82.2945L42.96 138.124C45.8645 145.805 48.8334 145.095 52.1251 138.834L51.6088 66.7395C49.2207 56.8644 44.4443 48.2801 37.3446 40.9222C34.7629 35.436 37.5383 32.5315 43.0244 35.4359C57.2885 44.2138 64.0656 55.38 66.0665 67.6432L69.3582 140.125C72.6499 149.613 79.6205 150.904 81.8151 140.512L84.3967 54.1535C83.6868 47.1828 81.4924 40.4059 76.0062 36.9851C70.1328 30.2081 73.2307 27.3035 80.976 30.4016C90.4638 33.6933 98.7253 44.8593 98.919 53.4436L100.597 143.094C102.985 152.582 110.085 152.453 112.473 142.901L121.638 36.5979C122.735 16.1376 128.415 -0.191905 134.095 0.00172453C139.775 -0.191905 145.455 15.9438 146.552 36.4041L155.717 142.707C158.105 152.388 165.205 152.582 167.593 143.094L169.271 53.4436C169.465 44.8593 177.662 33.4996 187.214 30.4016C194.895 27.3035 197.799 30.0144 192.184 36.9851C186.698 40.2768 184.503 47.2474 183.793 54.0244L186.375 140.577C188.57 151.033 195.54 149.742 198.832 140.19L202.124 67.5786C204.125 55.509 210.902 44.1494 225.166 35.5652C230.652 32.6607 233.427 35.565 230.846 40.8576C223.681 48.3446 218.97 56.9288 216.582 66.8685L216.065 138.77C219.163 145.16 222.261 145.741 225.23 138.189L225.424 82.3591C228.328 72.8712 234.395 64.9969 245.368 59.5107C257.631 54.9281 252.661 64.9968 251.758 66.2876C245.174 72.1611 241.882 78.3573 241.495 84.9408L241.689 119.536C242.98 128.895 247.175 129.217 253.952 120.827C257.05 115.857 259.632 110.564 261.439 104.756C268.216 95.0741 270.023 97.0749 268.216 107.531C264.344 129.863 253.371 146.128 238.591 157.875C216.84 171.622 194.895 176.721 172.176 177.238C167.399 199.182 165.592 221.321 169.271 243.653L174.37 288.317C178.953 291.415 178.243 296.191 174.757 295.804V298.386C180.244 302.968 180.244 306.453 175.467 307.357L175.855 310.842C180.244 315.231 182.825 319.233 176.048 321.298C176.242 338.661 182.438 346.018 192.7 346.535C259.115 346.535 325.724 346.535 392.333 346.728L915.973 343.824L920.556 343.243L931.334 369.577L913.068 379.646C892.608 400.299 886.154 418.436 889.123 435.282L868.469 442.059L862.983 428.182C863.693 427.085 858.788 419.017 849.429 419.404C770.944 421.986 354.188 419.792 206.9 419.985C195.218 419.598 186.246 425.084 187.86 436.056L166.625 443.221L160.235 431.151C156.75 423.47 151.845 420.179 146.165 419.598H134.482L122.8 419.792C117.12 420.179 112.215 423.47 108.729 431.151L101.436 443.608L81.8796 437.412C83.6868 416.564 86.8494 395.136 92.8519 373.191V321.427C86.0748 319.427 88.6566 315.36 93.0455 310.971L93.4327 307.486C88.6566 306.582 88.6567 303.097 94.1428 298.515V295.933C90.6575 296.32 89.7538 291.738 94.5301 288.446L99.629 243.975C103.114 221.643 101.436 199.505 96.7245 177.367C74.0698 176.98 52.0605 171.687 30.3094 158.004C15.4644 146.322 4.49207 129.992 0.684021 107.66C-1.12317 97.3975 0.49054 95.2031 7.46118 105.078L6.7511 104.82Z" fill="#00A658"/>
<path fill-rule="evenodd" clip-rule="evenodd" d="M81.2338 436.186L101.565 442.382C89.1081 475.105 75.9413 446.964 81.2338 436.186Z" fill="#141515" stroke="#141515" stroke-width="0.23" stroke-miterlimit="10"/>
<path fill-rule="evenodd" clip-rule="evenodd" d="M888.8 436.186L868.34 442.382C880.797 474.976 893.964 446.964 888.8 436.186Z" fill="#141515" stroke="#141515" stroke-width="0.23" stroke-miterlimit="10"/>
<path fill-rule="evenodd" clip-rule="evenodd" d="M931.269 338.661L920.491 343.437L931.657 369.06L944.307 361.573C951.988 352.408 943.726 335.95 931.334 338.725L931.269 338.661Z" fill="#141515" stroke="#141515" stroke-width="0.23" stroke-miterlimit="10"/>
<path fill-rule="evenodd" clip-rule="evenodd" d="M186.955 436.508L166.817 442.704C179.984 475.299 193.151 447.287 186.955 436.508Z" fill="#141515" stroke="#141515" stroke-width="0.23" stroke-miterlimit="10"/>
<path fill-rule="evenodd" clip-rule="evenodd" d="M186.439 436.896L167.205 443.092C179.662 475.815 190.828 448.191 186.439 436.896Z" fill="#141515" stroke="#141515" stroke-width="0.23" stroke-miterlimit="10"/>
<path fill-rule="evenodd" clip-rule="evenodd" d="M150.747 168.331C147.455 168.331 144.68 165.555 144.68 162.264C144.68 158.972 147.455 156.197 150.747 156.197C154.232 156.197 156.814 158.972 156.814 162.264C156.814 165.555 154.232 168.331 150.747 168.331Z" fill="#141515"/>
<path fill-rule="evenodd" clip-rule="evenodd" d="M115.957 168.524C112.472 168.524 109.89 165.749 109.89 162.457C109.89 159.166 112.472 156.39 115.957 156.39C119.249 156.39 122.024 159.166 122.024 162.457C122.024 165.749 119.249 168.524 115.957 168.524Z" fill="#141515"/>
<path fill-rule="evenodd" clip-rule="evenodd" d="M132.997 147.999C127.124 147.999 122.541 143.223 122.541 137.414C122.541 131.606 127.124 126.958 132.997 126.958C138.871 126.958 143.453 131.735 143.453 137.414C143.453 143.094 138.677 147.999 132.997 147.999Z" fill="#FEFEFE"/>
<path fill-rule="evenodd" clip-rule="evenodd" d="M178.888 166.459C175.402 166.459 172.691 163.684 172.691 160.392C172.691 156.907 175.467 154.196 178.888 154.196C182.179 154.196 184.955 156.971 184.955 160.392C184.955 163.684 182.179 166.459 178.888 166.459Z" fill="#FEFEFE"/>
<path fill-rule="evenodd" clip-rule="evenodd" d="M90.2048 165.555C86.9131 165.555 84.1377 162.78 84.1377 159.488C84.1377 156.003 86.9131 153.292 90.2048 153.292C93.6902 153.292 96.4011 156.067 96.4011 159.488C96.4011 162.78 93.6256 165.555 90.2048 165.555Z" fill="#FEFEFE"/>
<path fill-rule="evenodd" clip-rule="evenodd" d="M209.481 161.36C206.189 161.36 203.414 158.585 203.414 155.164C203.414 151.872 206.189 149.097 209.481 149.097C212.966 149.097 215.677 151.872 215.677 155.164C215.677 158.649 212.902 161.36 209.481 161.36Z" fill="#FEFEFE"/>
<path fill-rule="evenodd" clip-rule="evenodd" d="M59.6114 160.456C56.126 160.456 53.5443 157.681 53.5443 154.26C53.5443 150.968 56.126 148.193 59.6114 148.193C62.9031 148.193 65.6785 150.968 65.6785 154.26C65.6785 157.745 62.9031 160.456 59.6114 160.456Z" fill="#FEFEFE"/>
<path fill-rule="evenodd" clip-rule="evenodd" d="M238.913 147.483C235.428 147.483 232.717 144.708 232.717 141.416C232.717 137.931 235.492 135.22 238.913 135.22C242.205 135.22 244.98 137.996 244.98 141.416C244.98 144.708 242.205 147.483 238.913 147.483Z" fill="#FEFEFE"/>
<path fill-rule="evenodd" clip-rule="evenodd" d="M30.1794 146.516C26.8877 146.516 24.1123 143.74 24.1123 140.448C24.1123 137.157 26.8877 134.381 30.1794 134.381C33.6647 134.381 36.3755 137.157 36.3755 140.448C36.3755 143.74 33.6002 146.516 30.1794 146.516Z" fill="#FEFEFE"/>
<path fill-rule="evenodd" clip-rule="evenodd" d="M120.928 175.302C122.735 172.01 124.607 172.527 126.414 175.302V181.369C127.705 183.951 128.996 183.37 130.287 181.369L130.481 172.591C132.869 168.202 135.257 168.396 137.774 172.785V181.369C139.065 184.467 140.356 184.144 141.776 181.369V175.496C143.583 171.494 145.261 172.591 147.068 175.496V184.08C146.165 189.05 144.164 193.761 141.001 198.344H127.641C124.349 193.761 121.767 188.985 120.864 184.08V175.302H120.928Z" fill="#FEFEFE"/>
<path fill-rule="evenodd" clip-rule="evenodd" d="M126.929 200.345H140.806C141.903 205.121 142.807 209.704 141.903 214.092C137.902 223.968 129.447 225.646 125.832 214.092C125.251 209.51 125.638 204.927 126.929 200.345Z" fill="#FEFEFE"/>
<path fill-rule="evenodd" clip-rule="evenodd" d="M94.5939 295.287C98.0792 297.869 101.758 297.482 105.76 295.287C105.566 304.775 93.4967 301.871 94.5939 295.287Z" fill="#141515" stroke="#141515" stroke-width="0.23" stroke-miterlimit="10"/>
<path fill-rule="evenodd" clip-rule="evenodd" d="M173.401 295.287C169.916 298.062 166.237 297.675 162.235 295.287C162.429 304.775 174.498 301.871 173.401 295.287Z" fill="#141515" stroke="#141515" stroke-width="0.23" stroke-miterlimit="10"/>
<path fill-rule="evenodd" clip-rule="evenodd" d="M108.083 295.287C111.375 297.869 115.248 297.482 119.056 295.287C118.862 304.775 106.793 301.871 108.083 295.287Z" fill="#141515" stroke="#141515" stroke-width="0.23" stroke-miterlimit="10"/>
<path fill-rule="evenodd" clip-rule="evenodd" d="M159.912 295.287C156.62 298.062 152.747 297.675 148.939 295.287C149.133 304.775 161.203 301.871 159.912 295.287Z" fill="#141515" stroke="#141515" stroke-width="0.23" stroke-miterlimit="10"/>
<path fill-rule="evenodd" clip-rule="evenodd" d="M121.315 295.287C124.8 297.869 128.48 297.482 132.288 295.287C132.288 304.775 120.218 301.871 121.315 295.287Z" fill="#141515" stroke="#141515" stroke-width="0.23" stroke-miterlimit="10"/>
<path fill-rule="evenodd" clip-rule="evenodd" d="M146.746 295.287C143.26 297.869 139.581 297.675 135.58 295.287C135.773 304.775 147.843 301.871 146.746 295.287Z" fill="#141515" stroke="#141515" stroke-width="0.23" stroke-miterlimit="10"/>
<path fill-rule="evenodd" clip-rule="evenodd" d="M121.122 283.024C124.607 285.606 128.286 285.219 132.288 283.024C132.094 292.512 120.024 289.608 121.122 283.024Z" fill="#141515" stroke="#141515" stroke-width="0.23" stroke-miterlimit="10"/>
<path fill-rule="evenodd" clip-rule="evenodd" d="M146.552 283.024C143.066 285.8 139.387 285.413 135.579 283.024C135.579 292.512 147.649 289.608 146.552 283.024Z" fill="#141515" stroke="#141515" stroke-width="0.23" stroke-miterlimit="10"/>
<path fill-rule="evenodd" clip-rule="evenodd" d="M121.121 270.051C124.413 272.633 128.286 272.245 132.094 270.051C131.9 279.41 120.024 276.441 121.121 270.051Z" fill="#141515" stroke="#141515" stroke-width="0.23" stroke-miterlimit="10"/>
<path fill-rule="evenodd" clip-rule="evenodd" d="M146.552 270.051C143.066 272.633 139.387 272.439 135.386 270.051C135.579 279.539 147.649 276.634 146.552 270.051Z" fill="#141515" stroke="#141515" stroke-width="0.23" stroke-miterlimit="10"/>
<path fill-rule="evenodd" clip-rule="evenodd" d="M120.928 256.884C124.413 259.66 128.092 259.272 132.094 256.884C131.9 266.372 119.83 263.468 120.928 256.884Z" fill="#141515" stroke="#141515" stroke-width="0.23" stroke-miterlimit="10"/>
<path fill-rule="evenodd" clip-rule="evenodd" d="M146.359 257.078C143.067 259.659 139.194 259.272 135.386 257.078C135.58 266.566 147.65 263.661 146.359 257.078Z" fill="#141515" stroke="#141515" stroke-width="0.23" stroke-miterlimit="10"/>
<path fill-rule="evenodd" clip-rule="evenodd" d="M120.927 243.911C124.413 246.492 128.092 246.299 131.9 243.911C131.9 253.399 119.83 250.494 120.927 243.911Z" fill="#141515" stroke="#141515" stroke-width="0.23" stroke-miterlimit="10"/>
<path fill-rule="evenodd" clip-rule="evenodd" d="M146.358 244.04C142.873 246.622 139.194 246.235 135.386 244.04C135.386 253.399 147.455 250.43 146.358 244.04Z" fill="#141515" stroke="#141515" stroke-width="0.23" stroke-miterlimit="10"/>
<path fill-rule="evenodd" clip-rule="evenodd" d="M121.121 230.874C124.607 233.455 128.286 233.068 132.094 230.874C132.094 240.232 120.024 237.263 121.121 230.874Z" fill="#141515" stroke="#141515" stroke-width="0.23" stroke-miterlimit="10"/>
<path fill-rule="evenodd" clip-rule="evenodd" d="M146.552 230.874C143.066 233.455 139.387 233.262 135.386 230.874C135.579 240.361 147.649 237.457 146.552 230.874Z" fill="#141515" stroke="#141515" stroke-width="0.23" stroke-miterlimit="10"/>
<path fill-rule="evenodd" clip-rule="evenodd" d="M94.5939 308.455C98.0792 311.036 101.758 310.649 105.76 308.455C105.566 317.942 93.4967 315.038 94.5939 308.455Z" fill="#141515" stroke="#141515" stroke-width="0.23" stroke-miterlimit="10"/>
<path fill-rule="evenodd" clip-rule="evenodd" d="M173.401 308.455C169.916 311.23 166.237 310.843 162.235 308.455C162.429 317.942 174.498 315.038 173.401 308.455Z" fill="#141515" stroke="#141515" stroke-width="0.23" stroke-miterlimit="10"/>
<path fill-rule="evenodd" clip-rule="evenodd" d="M108.083 308.455C111.375 311.036 115.248 310.649 119.056 308.455C118.862 317.942 106.986 315.038 108.083 308.455Z" fill="#141515" stroke="#141515" stroke-width="0.23" stroke-miterlimit="10"/>
<path fill-rule="evenodd" clip-rule="evenodd" d="M160.04 308.455C156.555 311.23 152.876 310.843 148.874 308.455C149.068 317.942 161.138 315.038 160.04 308.455Z" fill="#141515" stroke="#141515" stroke-width="0.23" stroke-miterlimit="10"/>
<path fill-rule="evenodd" clip-rule="evenodd" d="M121.315 308.455C124.8 311.036 128.48 310.649 132.481 308.455C132.288 317.942 120.218 315.038 121.315 308.455Z" fill="#141515" stroke="#141515" stroke-width="0.23" stroke-miterlimit="10"/>
<path fill-rule="evenodd" clip-rule="evenodd" d="M146.746 308.455C143.454 311.036 139.581 310.843 135.773 308.455C135.773 317.942 147.843 315.038 146.746 308.455Z" fill="#141515" stroke="#141515" stroke-width="0.23" stroke-miterlimit="10"/>
<path fill-rule="evenodd" clip-rule="evenodd" d="M94.0136 320.911C97.499 323.493 101.178 323.106 105.18 320.911C104.986 330.399 92.9164 327.495 94.0136 320.911Z" fill="#141515" stroke="#141515" stroke-width="0.23" stroke-miterlimit="10"/>
<path fill-rule="evenodd" clip-rule="evenodd" d="M172.886 320.911C169.4 323.686 165.722 323.299 161.72 320.911C161.914 330.399 173.983 327.495 172.886 320.911Z" fill="#141515" stroke="#141515" stroke-width="0.23" stroke-miterlimit="10"/>
<path fill-rule="evenodd" clip-rule="evenodd" d="M107.567 320.911C110.858 323.493 114.731 323.106 118.539 320.911C118.345 330.399 106.276 327.495 107.567 320.911Z" fill="#141515" stroke="#141515" stroke-width="0.23" stroke-miterlimit="10"/>
<path fill-rule="evenodd" clip-rule="evenodd" d="M159.33 320.911C156.039 323.686 152.36 323.299 148.358 320.911C148.552 330.399 160.621 327.495 159.33 320.911Z" fill="#141515" stroke="#141515" stroke-width="0.23" stroke-miterlimit="10"/>
<path fill-rule="evenodd" clip-rule="evenodd" d="M120.734 320.911C124.219 323.493 127.898 323.106 131.9 320.911C131.706 330.399 119.637 327.495 120.734 320.911Z" fill="#141515" stroke="#141515" stroke-width="0.23" stroke-miterlimit="10"/>
<path fill-rule="evenodd" clip-rule="evenodd" d="M146.164 320.911C142.679 323.493 139 323.299 135.192 320.911C135.192 330.399 147.261 327.495 146.164 320.911Z" fill="#141515" stroke="#141515" stroke-width="0.23" stroke-miterlimit="10"/>
<path fill-rule="evenodd" clip-rule="evenodd" d="M194.313 346.535H199.283C199.671 355.506 199.283 363.897 197.605 371.578L192.313 371.19C193.991 363.703 194.507 355.635 194.313 346.47V346.535Z" fill="#141515"/>
<path fill-rule="evenodd" clip-rule="evenodd" d="M205.608 346.341H210.578C211.159 355.313 210.966 363.897 209.675 371.578L204.382 371.384C205.867 363.897 206.06 355.442 205.673 346.341H205.608Z" fill="#141515"/>
<path fill-rule="evenodd" clip-rule="evenodd" d="M216.775 346.535H221.745C222.455 355.506 222.326 363.897 221.035 371.771H215.743C217.227 364.09 217.421 355.7 216.84 346.535H216.775Z" fill="#141515"/>
<path fill-rule="evenodd" clip-rule="evenodd" d="M227.94 346.535H233.039C233.62 355.313 233.62 363.897 232.329 371.578L227.037 371.771C228.328 364.09 228.521 355.7 227.94 346.535Z" fill="#141515"/>
<path fill-rule="evenodd" clip-rule="evenodd" d="M238.72 346.729L243.689 346.341C244.399 355.313 244.399 363.703 243.108 371.578L237.816 371.771C239.3 364.091 239.3 355.7 238.72 346.729Z" fill="#141515"/>
<path fill-rule="evenodd" clip-rule="evenodd" d="M248.079 346.535H253.049C253.952 355.506 254.146 363.703 253.242 371.771L247.756 371.578C249.047 363.897 249.047 355.506 248.144 346.535H248.079Z" fill="#141515"/>
<path fill-rule="evenodd" clip-rule="evenodd" d="M257.76 346.341L262.73 346.535C263.633 355.313 263.633 363.897 262.536 371.771L257.437 372.159C258.534 364.478 258.534 355.506 257.824 346.341H257.76Z" fill="#141515"/>
<path fill-rule="evenodd" clip-rule="evenodd" d="M267.636 346.341H272.735C273.445 355.313 273.638 363.703 272.541 371.578L267.248 371.965C268.539 364.284 268.539 355.313 267.636 346.341Z" fill="#141515"/>
<path fill-rule="evenodd" clip-rule="evenodd" d="M277.898 346.147L282.867 346.341C283.771 355.119 283.965 363.51 282.867 371.578L277.575 371.771C278.672 364.091 278.672 355.119 277.962 346.147H277.898Z" fill="#141515"/>
<path fill-rule="evenodd" clip-rule="evenodd" d="M287.772 346.341L292.871 346.535C293.774 355.313 293.774 363.897 292.677 371.771L287.385 371.965C288.676 364.478 288.676 355.313 287.772 346.341Z" fill="#141515"/>
<path fill-rule="evenodd" clip-rule="evenodd" d="M298.035 346.535L303.005 346.728C303.908 355.506 303.908 364.09 302.811 371.965L297.712 372.352C298.809 364.671 298.809 355.7 298.099 346.535H298.035Z" fill="#141515"/>
<path fill-rule="evenodd" clip-rule="evenodd" d="M307.91 346.535H312.88C313.783 355.506 313.784 363.897 312.686 371.771L307.587 372.158C308.685 364.478 308.685 355.506 307.975 346.535H307.91Z" fill="#141515"/>
<path fill-rule="evenodd" clip-rule="evenodd" d="M317.785 346.341H322.755C323.659 355.313 323.659 363.703 322.562 371.578L317.463 371.965C318.56 364.284 318.56 355.313 317.85 346.341H317.785Z" fill="#141515"/>
<path fill-rule="evenodd" clip-rule="evenodd" d="M327.661 346.341L332.631 346.535C333.534 355.313 333.534 363.897 332.437 371.771L327.338 371.965C328.435 364.284 328.435 355.313 327.725 346.341H327.661Z" fill="#141515"/>
<path fill-rule="evenodd" clip-rule="evenodd" d="M337.536 346.341L342.506 346.535C343.409 355.313 343.409 363.897 342.312 371.771L337.213 372.159C338.311 364.478 338.311 355.506 337.601 346.341H337.536Z" fill="#141515"/>
<path fill-rule="evenodd" clip-rule="evenodd" d="M347.216 346.535H352.315C353.219 355.506 353.219 363.897 352.121 371.771L347.022 372.158C348.12 364.478 348.12 355.506 347.216 346.535Z" fill="#141515"/>
<path fill-rule="evenodd" clip-rule="evenodd" d="M360.577 346.535H365.547C365.934 355.506 365.547 363.897 363.869 371.578L358.576 370.997C360.255 363.703 360.771 355.442 360.577 346.47V346.535Z" fill="#141515"/>
<path fill-rule="evenodd" clip-rule="evenodd" d="M371.937 346.341H376.907C377.488 355.313 377.294 363.703 376.003 371.578L370.711 371.384C372.195 363.897 372.389 355.442 372.001 346.341H371.937Z" fill="#141515"/>
<path fill-rule="evenodd" clip-rule="evenodd" d="M383.103 346.535H388.073C388.783 355.506 388.654 363.897 387.363 371.771H382.071C383.555 364.09 383.749 355.7 383.168 346.535H383.103Z" fill="#141515"/>
<path fill-rule="evenodd" clip-rule="evenodd" d="M394.269 346.535L399.368 346.341C399.949 355.313 399.949 363.897 398.658 371.578L393.365 371.771C394.656 364.091 394.85 355.7 394.269 346.535Z" fill="#141515"/>
<path fill-rule="evenodd" clip-rule="evenodd" d="M405.048 346.535L410.018 346.341C410.728 355.313 410.728 363.703 409.437 371.578L404.144 371.771C405.435 364.091 405.629 355.7 405.048 346.535Z" fill="#141515"/>
<path fill-rule="evenodd" clip-rule="evenodd" d="M414.407 346.535H419.377C420.281 355.506 420.474 363.703 419.571 371.578H414.085C415.375 363.897 415.182 355.506 414.472 346.535H414.407Z" fill="#141515"/>
<path fill-rule="evenodd" clip-rule="evenodd" d="M423.895 346.341L428.993 346.535C429.897 355.313 429.897 363.897 428.8 371.771L423.701 372.159C424.798 364.478 424.798 355.506 423.895 346.341Z" fill="#141515"/>
<path fill-rule="evenodd" clip-rule="evenodd" d="M433.963 346.341H438.933C439.836 355.313 440.03 363.703 438.933 371.578L433.64 371.965C434.931 364.284 434.737 355.313 434.027 346.341H433.963Z" fill="#141515"/>
<path fill-rule="evenodd" clip-rule="evenodd" d="M444.226 346.147H449.196C450.099 355.119 450.099 363.51 449.196 371.384L443.903 371.771C445 364.091 445.001 355.119 444.291 346.147H444.226Z" fill="#141515"/>
<path fill-rule="evenodd" clip-rule="evenodd" d="M454.1 346.341H459.199C460.103 355.313 460.103 363.703 459.006 371.578L453.713 371.965C455.004 364.284 455.004 355.313 454.1 346.341Z" fill="#141515"/>
<path fill-rule="evenodd" clip-rule="evenodd" d="M464.363 346.535L469.333 346.728C470.237 355.506 470.237 364.09 469.139 371.965L464.041 372.158C465.138 364.478 465.138 355.506 464.428 346.535H464.363Z" fill="#141515"/>
<path fill-rule="evenodd" clip-rule="evenodd" d="M474.045 346.341L479.144 346.535C480.047 355.313 480.047 363.897 478.95 371.771L473.851 372.159C474.948 364.478 474.948 355.506 474.045 346.341Z" fill="#141515"/>
<path fill-rule="evenodd" clip-rule="evenodd" d="M483.92 346.341H489.019C489.922 355.313 489.922 363.703 488.825 371.578L483.726 371.965C484.824 364.284 484.824 355.313 483.92 346.341Z" fill="#141515"/>
<path fill-rule="evenodd" clip-rule="evenodd" d="M493.795 346.341H498.894C499.798 355.313 499.798 363.703 498.701 371.578L493.602 371.965C494.699 364.284 494.699 355.313 493.795 346.341Z" fill="#141515"/>
<path fill-rule="evenodd" clip-rule="evenodd" d="M503.669 346.341L508.768 346.535C509.671 355.313 509.671 363.897 508.574 371.771L503.282 371.965C504.573 364.478 504.573 355.313 503.669 346.341Z" fill="#141515"/>
<path fill-rule="evenodd" clip-rule="evenodd" d="M513.544 346.341L518.643 346.535C519.547 355.313 519.547 363.897 518.45 371.771L513.157 372.159C514.448 364.478 514.448 355.506 513.544 346.341Z" fill="#141515"/>
<path fill-rule="evenodd" clip-rule="evenodd" d="M526.905 345.244H531.875C532.262 354.216 531.681 362.606 530.196 370.287L524.904 369.9C526.582 362.413 527.098 354.345 526.905 345.18V345.244Z" fill="#141515"/>
<path fill-rule="evenodd" clip-rule="evenodd" d="M538.265 345.05H543.235C543.816 354.022 543.622 362.606 542.331 370.287L537.039 370.093C538.523 362.606 538.717 354.151 538.33 345.05H538.265Z" fill="#141515"/>
<path fill-rule="evenodd" clip-rule="evenodd" d="M549.43 345.438L554.4 345.244C555.11 354.216 554.981 362.606 553.69 370.481H548.398C549.688 362.8 550.076 354.409 549.495 345.438H549.43Z" fill="#141515"/>
<path fill-rule="evenodd" clip-rule="evenodd" d="M560.596 345.244H565.566C566.276 354.022 566.276 362.606 564.985 370.287L559.693 370.481C560.983 362.8 561.177 354.409 560.596 345.244Z" fill="#141515"/>
<path fill-rule="evenodd" clip-rule="evenodd" d="M571.182 345.438L576.281 345.05C576.991 354.022 576.991 362.412 575.701 370.287L570.408 370.48C571.699 362.8 571.892 354.409 571.118 345.438H571.182Z" fill="#141515"/>
<path fill-rule="evenodd" clip-rule="evenodd" d="M580.669 345.244H585.639C586.543 354.216 586.737 362.413 585.639 370.481L580.347 370.287C581.444 362.606 581.444 354.216 580.734 345.244H580.669Z" fill="#141515"/>
<path fill-rule="evenodd" clip-rule="evenodd" d="M590.223 345.05L595.322 345.244C596.225 354.215 596.225 362.606 595.128 370.48L589.835 370.868C591.126 363.187 591.126 354.215 590.223 345.05Z" fill="#141515"/>
<path fill-rule="evenodd" clip-rule="evenodd" d="M600.291 345.05H605.261C606.164 354.022 606.358 362.412 605.261 370.287L599.968 370.674C601.066 362.993 601.066 354.022 600.356 345.05H600.291Z" fill="#141515"/>
<path fill-rule="evenodd" clip-rule="evenodd" d="M610.49 344.857L615.46 345.051C616.363 353.828 616.363 362.219 615.46 370.287L610.167 370.481C611.264 362.8 611.264 353.828 610.554 344.857H610.49Z" fill="#141515"/>
<path fill-rule="evenodd" clip-rule="evenodd" d="M620.364 345.05L625.463 345.244C626.367 354.022 626.367 362.606 625.269 370.48L619.977 370.674C621.268 363.187 621.268 354.022 620.364 345.05Z" fill="#141515"/>
<path fill-rule="evenodd" clip-rule="evenodd" d="M630.433 345.244L635.532 345.438C636.436 354.216 636.436 362.8 635.338 370.674L630.046 371.061C631.337 363.381 631.337 354.409 630.433 345.244Z" fill="#141515"/>
<path fill-rule="evenodd" clip-rule="evenodd" d="M640.308 345.244H645.407C646.311 354.216 646.311 362.606 645.214 370.481L639.921 370.868C641.212 363.187 641.212 354.216 640.308 345.244Z" fill="#141515"/>
<path fill-rule="evenodd" clip-rule="evenodd" d="M650.248 345.05H655.347C656.251 354.022 656.251 362.412 655.154 370.287L649.861 370.674C651.152 362.993 651.152 354.022 650.248 345.05Z" fill="#141515"/>
<path fill-rule="evenodd" clip-rule="evenodd" d="M660.123 345.05L665.222 345.244C666.126 354.022 666.126 362.606 665.029 370.48L659.736 370.674C661.027 362.993 661.027 354.022 660.123 345.05Z" fill="#141515"/>
<path fill-rule="evenodd" clip-rule="evenodd" d="M669.997 345.05L675.096 345.244C676 354.022 676 362.606 674.903 370.48L669.61 370.868C670.901 363.187 670.901 354.215 669.997 345.05Z" fill="#141515"/>
<path fill-rule="evenodd" clip-rule="evenodd" d="M679.873 345.244H684.972C685.875 354.216 685.875 362.606 684.778 370.481L679.485 370.868C680.776 363.187 680.776 354.216 679.873 345.244Z" fill="#141515"/>
<path fill-rule="evenodd" clip-rule="evenodd" d="M693.557 344.34L698.527 344.534C698.914 353.506 698.526 361.896 696.848 369.577L691.556 368.996C693.234 361.509 693.75 353.441 693.557 344.276V344.34Z" fill="#141515"/>
<path fill-rule="evenodd" clip-rule="evenodd" d="M704.916 344.34H709.886C710.467 353.312 710.274 361.703 708.983 369.383H703.69C705.175 361.703 705.368 353.312 704.981 344.34H704.916Z" fill="#141515"/>
<path fill-rule="evenodd" clip-rule="evenodd" d="M716.082 344.534H721.052C721.762 353.312 721.632 361.896 720.342 369.577H715.049C716.534 362.09 716.727 353.506 716.146 344.534H716.082Z" fill="#141515"/>
<path fill-rule="evenodd" clip-rule="evenodd" d="M727.249 344.534L732.347 344.34C732.928 353.312 732.928 361.703 731.637 369.577H726.345C727.636 362.09 727.829 353.505 727.249 344.534Z" fill="#141515"/>
<path fill-rule="evenodd" clip-rule="evenodd" d="M738.026 344.534L742.996 344.34C743.706 353.312 743.705 361.703 742.415 369.577H737.122C738.607 362.09 738.607 353.505 738.026 344.534Z" fill="#141515"/>
<path fill-rule="evenodd" clip-rule="evenodd" d="M747.385 344.34L752.355 344.534C753.259 353.312 753.452 361.703 752.549 369.577L747.063 369.383C748.353 361.703 748.354 353.441 747.45 344.34H747.385Z" fill="#141515"/>
<path fill-rule="evenodd" clip-rule="evenodd" d="M757.067 344.34H762.037C762.941 353.312 762.941 361.703 761.844 369.577L756.745 369.964C757.842 362.283 757.842 353.312 757.132 344.34H757.067Z" fill="#141515"/>
<path fill-rule="evenodd" clip-rule="evenodd" d="M766.942 344.146L772.041 344.34C772.751 353.118 772.944 361.702 771.847 369.577L766.554 369.77C767.845 362.09 767.845 353.118 766.942 344.146Z" fill="#141515"/>
<path fill-rule="evenodd" clip-rule="evenodd" d="M777.204 343.953L782.173 344.147C783.077 353.118 783.271 361.509 782.173 369.383L776.881 369.77C777.978 362.09 777.978 353.118 777.268 343.953H777.204Z" fill="#141515"/>
<path fill-rule="evenodd" clip-rule="evenodd" d="M787.08 344.34H792.179C793.082 353.312 793.082 361.703 791.985 369.577L786.692 369.964C787.983 362.283 787.983 353.312 787.08 344.34Z" fill="#141515"/>
<path fill-rule="evenodd" clip-rule="evenodd" d="M797.342 344.534H802.312C803.216 353.506 803.216 361.896 802.119 369.771L797.02 370.158C798.117 362.477 798.117 353.506 797.407 344.534H797.342Z" fill="#141515"/>
<path fill-rule="evenodd" clip-rule="evenodd" d="M807.216 344.34H812.186C813.09 353.312 813.09 361.703 811.993 369.577L806.894 369.964C807.991 362.283 807.991 353.312 807.281 344.34H807.216Z" fill="#141515"/>
<path fill-rule="evenodd" clip-rule="evenodd" d="M817.092 344.146L822.062 344.34C822.965 353.118 822.965 361.702 821.868 369.577L816.769 369.964C817.866 362.283 817.866 353.312 817.156 344.146H817.092Z" fill="#141515"/>
<path fill-rule="evenodd" clip-rule="evenodd" d="M826.773 344.34H831.872C832.776 353.312 832.776 361.703 831.679 369.577L826.58 369.964C827.677 362.283 827.677 353.312 826.773 344.34Z" fill="#141515"/>
<path fill-rule="evenodd" clip-rule="evenodd" d="M836.649 344.34H841.748C842.651 353.312 842.651 361.703 841.554 369.577L836.455 369.964C837.552 362.283 837.552 353.312 836.649 344.34Z" fill="#141515"/>
<path fill-rule="evenodd" clip-rule="evenodd" d="M846.524 344.34H851.623C852.526 353.312 852.526 361.703 851.429 369.577L846.33 369.964C847.427 362.283 847.427 353.312 846.524 344.34Z" fill="#141515"/>
</svg>
