<svg width="25" height="28" viewBox="0 0 25 28" fill="none" xmlns="http://www.w3.org/2000/svg">
<path d="M7.34722 15.806C7.21704 15.9361 7.11372 16.091 7.04321 16.2616C6.97269 16.4322 6.93639 16.6152 6.93639 16.8C6.93639 16.9848 6.97269 17.1678 7.04321 17.3384C7.11372 17.509 7.21704 17.6639 7.34722 17.794L11.5139 21.994C11.643 22.1252 11.7966 22.2294 11.9659 22.3004C12.1351 22.3715 12.3166 22.4081 12.5 22.4081C12.6833 22.4081 12.8649 22.3715 13.0341 22.3004C13.2034 22.2294 13.357 22.1252 13.4861 21.994L17.6528 17.794C17.9143 17.5304 18.0612 17.1728 18.0612 16.8C18.0612 16.4272 17.9143 16.0696 17.6528 15.806C17.3912 15.5424 17.0365 15.3943 16.6667 15.3943C16.2968 15.3943 15.9421 15.5424 15.6806 15.806L13.8889 17.626V1.4C13.8889 1.0287 13.7426 0.672601 13.4821 0.41005C13.2216 0.1475 12.8684 0 12.5 0C12.1316 0 11.7784 0.1475 11.5179 0.41005C11.2574 0.672601 11.1111 1.0287 11.1111 1.4V17.626L9.31944 15.806C9.19033 15.6748 9.03672 15.5706 8.86747 15.4996C8.69822 15.4285 8.51668 15.3919 8.33333 15.3919C8.14998 15.3919 7.96845 15.4285 7.7992 15.4996C7.62995 15.5706 7.47634 15.6748 7.34722 15.806ZM20.8333 9.8H18.0556C17.6872 9.8 17.3339 9.9475 17.0735 10.2101C16.813 10.4726 16.6667 10.8287 16.6667 11.2C16.6667 11.5713 16.813 11.9274 17.0735 12.1899C17.3339 12.4525 17.6872 12.6 18.0556 12.6H20.8333C21.2017 12.6 21.555 12.7475 21.8154 13.0101C22.0759 13.2726 22.2222 13.6287 22.2222 14V23.8C22.2222 24.1713 22.0759 24.5274 21.8154 24.79C21.555 25.0525 21.2017 25.2 20.8333 25.2H4.16667C3.79831 25.2 3.44504 25.0525 3.18457 24.79C2.92411 24.5274 2.77778 24.1713 2.77778 23.8V14C2.77778 13.6287 2.92411 13.2726 3.18457 13.0101C3.44504 12.7475 3.79831 12.6 4.16667 12.6H6.94444C7.3128 12.6 7.66607 12.4525 7.92654 12.1899C8.187 11.9274 8.33333 11.5713 8.33333 11.2C8.33333 10.8287 8.187 10.4726 7.92654 10.2101C7.66607 9.9475 7.3128 9.8 6.94444 9.8H4.16667C3.0616 9.8 2.00179 10.2425 1.22039 11.0302C0.438987 11.8178 0 12.8861 0 14V23.8C0 24.9139 0.438987 25.9822 1.22039 26.7698C2.00179 27.5575 3.0616 28 4.16667 28H20.8333C21.9384 28 22.9982 27.5575 23.7796 26.7698C24.561 25.9822 25 24.9139 25 23.8V14C25 12.8861 24.561 11.8178 23.7796 11.0302C22.9982 10.2425 21.9384 9.8 20.8333 9.8Z" fill="white"/>
</svg>
