<svg width="50" height="87" viewBox="0 0 50 87" fill="none" xmlns="http://www.w3.org/2000/svg">
<path fill-rule="evenodd" clip-rule="evenodd" d="M21.7635 44.0448L22.9574 58.5402C23.4572 61.5183 23.8851 62.9245 27.686 63.4038L37.0929 63.4249C41.2102 63.5447 43.4433 66.2408 44.3818 68.9087L49.3442 82.6252C50.2827 85.1134 49.222 86.4632 48.4488 86.6006C46.0647 87.0306 44.0258 83.9821 43.1772 82.7239L40.7104 79.0763C40.2501 78.3961 38.988 76.4577 36.6722 76.2674L22.0332 76.2287C20.6776 76.2287 17.4268 76.1793 16.5494 79.0446L15.4275 82.7098C14.0826 87.2244 9.68843 88.5038 9.71 82.6605L11.1879 54.3287C11.5943 49.4546 9.73158 48.1365 8.07746 47.5938C2.61526 46.5541 3.39917 42.54 8.00554 41.3206C10.7277 40.5206 14.1725 40.0413 16.8443 39.791C19.2104 39.5302 21.6844 41.74 21.7563 44.0378L21.7635 44.0448Z" fill="#0368B0"/>
<path fill-rule="evenodd" clip-rule="evenodd" d="M29.6682 30.954L21.1679 29.1505C18.6858 28.742 17.7777 25.4422 20.8438 23.9964C22.4 23.3422 23.8209 22.6555 25.1456 22.1314C26.7018 20.5628 26.4988 19.4279 24.5402 18.7195C23.0446 18.3617 21.5525 18.0038 20.0497 17.6533C18.2442 16.4858 17.9095 15.1449 19.0917 13.7389L21.2818 12.3366C22.9377 11.3426 23.3295 10.1246 21.1501 9.58966L19.8681 9.21015C18.4757 9.15955 17.8881 8.25597 17.5783 6.49578C17.3646 5.11149 17.094 3.73081 16.7521 2.35737C16.4174 1.21162 16.2785 0.0947886 15.3775 0.000815771C14.5905 -0.0317133 14.3484 0.911629 13.9958 2.28508C13.6717 3.66937 13.4118 5.05005 13.2088 6.43434C12.9061 8.19814 12.3399 9.09811 10.9867 9.13787L9.75454 9.51737C7.65349 10.0487 8.01672 11.2703 9.62278 12.2751L11.7416 13.6775C12.8705 15.0798 12.5607 16.4244 10.8122 17.5918C9.36994 17.9388 7.91345 18.3002 6.4712 18.658C4.58382 19.3664 4.39152 20.5014 5.88718 22.07C7.16918 22.5941 8.54376 23.2699 10.0465 23.935C13.0129 25.3807 12.1369 28.677 9.73317 29.089L1.52483 30.8926C0.495673 31.16 -1.19229 32.2335 1.28268 33.7913C3.46207 34.7238 6.62433 35.8912 9.83288 36.69C10.6804 36.9068 11.1647 36.8129 10.5487 38.2694C10.335 38.7393 10.246 39.4983 10.1641 40.1344L16.1716 39.1911C16.2073 39.1875 16.2357 39.1839 16.2714 39.1803C18.4792 39.2309 19.8396 40.3585 20.2598 41.1898C20.3915 41.2115 20.8438 40.6043 20.7833 39.9899C20.7014 39.3429 20.5411 38.8008 20.3203 38.3309C19.6758 36.8743 20.1886 36.9683 21.0575 36.7623C24.3871 35.9527 27.6598 34.7961 29.9211 33.8527C32.485 32.2949 30.7294 31.2179 29.6682 30.954Z" fill="#DD2A1B"/>
<path fill-rule="evenodd" clip-rule="evenodd" d="M46.166 67.659L44.73 69.5976C44.4877 67.7502 42.2464 64.6408 39.77 64.2131L41.7512 62.8811C44.7906 61.3106 48.4286 64.8687 46.166 67.659Z" fill="#DD2A1B"/>
<path fill-rule="evenodd" clip-rule="evenodd" d="M15.6239 44.0311C16.3979 44.0311 17.0443 43.7123 17.0443 43.3209C17.0443 42.9296 16.3979 42.6107 15.6239 42.6107C14.85 42.6107 14.2036 42.9296 14.2036 43.3209C14.2036 43.7123 14.8412 44.0311 15.6239 44.0311Z" fill="#FEFEFE"/>
</svg>
