<svg width="148" height="57" viewBox="0 0 148 57" fill="none" xmlns="http://www.w3.org/2000/svg">
<path d="M5.39602 1.56882H3.81943V0.318917H10.14V1.56882H8.53501L12.2848 20.0903H13.6909V21.2976H7.56918V20.0903H9.14578L7.61179 12.4772C7.45555 13.443 7.24249 14.4515 6.93001 15.5736C6.64594 16.6672 6.29085 17.6615 5.83634 18.5989C5.39603 19.5222 4.95571 20.2891 4.43018 20.8573C3.86203 21.4254 3.33651 21.7095 2.78257 21.7095C2.17181 21.7095 1.61788 21.4254 1.17757 20.8573C0.737254 20.2465 0.495789 19.3659 0.495789 18.2012C0.495789 17.1502 0.652034 16.0281 0.978716 14.7355C1.3054 13.4856 1.70309 12.2357 2.22863 10.9858C2.71155 9.69328 3.3223 8.32973 3.96147 6.92357C4.00408 6.79574 4.20293 6.35542 4.57222 5.56002C4.94151 4.79303 5.18297 4.19648 5.2966 3.74196C5.42443 3.34426 5.45284 2.88975 5.45284 2.40682C5.45284 2.16536 5.45284 1.83869 5.41023 1.55462L5.39602 1.56882ZM7.00103 9.66486L6.0778 4.99189C5.35341 6.52587 4.67164 8.01724 4.14611 9.4234C3.74841 10.4319 3.42173 11.3551 3.18026 12.2073C2.9388 13.0879 2.78257 13.9827 2.69735 14.9486V15.7582C2.82518 16.6814 3.18027 17.1643 3.86204 17.1643C4.38757 17.1643 4.87049 16.724 5.3108 15.8718C5.75111 14.9912 6.16302 13.9401 6.43289 12.7754C6.70275 11.6108 6.91581 10.5597 7.00103 9.67907V9.66486ZM14.6141 0.77342H21.9006C22.5397 0.77342 22.9517 0.730813 23.1505 0.688202C23.3067 0.645591 23.4346 0.60298 23.4346 0.531962C23.4772 0.404129 23.5624 0.375723 23.7186 0.333112C23.8465 0.290502 24.2442 0.247894 24.8833 0.247894C25.0822 0.247894 25.2526 0.37572 25.3663 0.574571C25.4941 0.773421 25.5651 1.0575 25.5651 1.42679C25.5651 1.55463 25.5225 1.66825 25.4799 1.82449C25.4373 1.98073 25.3947 2.19378 25.3237 2.43524C25.2384 2.71931 25.1958 2.91815 25.1674 3.07439C24.9686 3.79878 24.8833 4.48055 24.7981 5.20493C24.7555 5.8867 24.7129 6.36963 24.6419 6.6537C24.5993 6.93778 24.443 7.09401 24.2016 7.09401C24.0027 7.09401 23.8323 7.00879 23.7613 6.80994C23.7186 6.6537 23.6334 6.32703 23.5624 5.84411C23.3209 4.75043 23.0795 3.91241 22.7954 3.34427C22.4687 2.77612 22.1847 2.42104 21.8722 2.22219C21.5455 2.06595 21.1904 2.02334 20.7501 2.02334H19.5002V9.35238C19.9405 9.99154 20.5939 10.5171 21.4745 11C22.3551 11.4403 23.1647 11.6818 23.8891 11.6818C24.0169 11.6818 24.2868 11.6818 24.7413 11.6392C25.2242 11.6392 25.5509 11.767 25.7498 11.9659C25.9486 12.2073 26.0338 12.7328 26.0338 13.5425V19.2665C26.0338 19.792 26.0338 20.1897 25.9912 20.4738C25.906 20.7579 25.7924 20.9567 25.6219 21.1129C25.4231 21.2408 25.139 21.3118 24.7413 21.3118H14.6426V20.1045H16.3328V2.02334H14.6426V0.77342H14.6141ZM19.486 20.1045H21.9858C22.3125 20.1045 22.5539 19.9483 22.6676 19.7068C22.7954 19.4653 22.8664 18.9398 22.8664 18.1302V14.7924C22.8664 14.3521 22.8238 14.068 22.7386 13.8691C22.6108 13.6703 22.3693 13.3862 21.9716 13.0595C21.2472 12.4914 20.7643 12.0511 20.4376 11.767C20.1109 11.4403 19.7984 11.0426 19.4718 10.4745V20.0903L19.486 20.1045ZM32.4539 1.58303H30.8773V0.333112H37.1979V1.58303H35.5928L39.3426 20.1045H40.7487V21.3118H34.627V20.1045H36.2036L34.6696 12.4914C34.5134 13.4572 34.3003 14.4657 33.9878 15.5878C33.6611 16.6814 33.3061 17.6757 32.8942 18.6131C32.4539 19.5364 31.9709 20.3034 31.4454 20.8715C30.9199 21.4396 30.3943 21.7237 29.8404 21.7237C29.2012 21.7237 28.6757 21.4396 28.2354 20.8715C27.7951 20.2608 27.5536 19.3801 27.5536 18.2154C27.5536 17.1644 27.7099 16.0423 28.0365 14.7498C28.3632 13.4998 28.7609 12.2499 29.2438 11C29.7694 9.70747 30.3375 8.34393 31.0193 6.93777C31.0619 6.80994 31.2608 6.36964 31.6301 5.57424C31.9993 4.80725 32.2408 4.2107 32.3544 3.75618C32.4823 3.35848 32.5107 2.90396 32.5107 2.42104C32.5107 2.17958 32.5107 1.85289 32.4681 1.56882L32.4539 1.58303ZM34.0589 9.67907L33.1356 5.00608C32.3686 6.54007 31.7295 8.03146 31.2039 9.43762C30.8062 10.4461 30.4795 11.3693 30.2381 12.2215C29.9966 13.1021 29.8404 13.997 29.7552 14.9628V15.7724C29.8404 16.6957 30.2381 17.1786 30.9199 17.1786C31.4028 17.1786 31.8857 16.7382 32.3686 15.886C32.8089 15.0054 33.1782 13.9544 33.4907 12.7897C33.7748 11.625 33.9736 10.5739 34.0589 9.69327V9.67907ZM46.4586 20.1045H50.5634V2.02334H49.1573V0.77342H55.1228V2.02334H53.7166V20.1045H57.8214V2.02334H56.4153V0.77342H62.6933V2.02334H61.0031V20.1045H62.6933V21.3118H41.601V20.1045H43.2912V2.02334H41.601V0.77342H47.8789V2.02334H46.4728V20.1045H46.4586ZM70.7751 11.0426H71.4995C71.3717 10.4745 71.2154 10.0341 70.974 9.70747C70.6899 9.42339 70.4484 9.26716 70.2496 9.26716C69.8093 9.26716 69.3974 9.395 68.9571 9.63647C68.5594 9.83532 68.1901 10.2046 67.906 10.6023C68.0622 11.9374 68.2327 13.0595 68.4315 13.9828C68.6304 14.9912 68.8008 15.8292 68.8718 16.44C68.9997 17.0081 69.0281 17.8035 69.0281 18.741C69.0281 19.2665 68.9428 19.792 68.8292 20.3175C68.9855 20.4454 69.2695 20.5164 69.5536 20.5164C70.7609 20.5164 71.6415 20.0761 72.2097 19.1813C72.8204 18.3007 73.1755 17.2496 73.3318 16.0849H72.3233V14.8776H77.6781V16.0849L76.9111 16.1275C76.5134 17.1786 75.9878 18.1018 75.3771 18.9824C74.7379 19.8346 74.042 20.5164 73.2892 20.9993C72.5222 21.4823 71.7552 21.7237 70.9598 21.7237C70.4342 21.7237 69.8377 21.6811 69.2269 21.5959C68.5878 21.5106 68.0622 21.3544 67.6219 21.1982C67.6645 20.8289 67.6645 20.5874 67.6645 20.4312C67.6645 19.7068 67.5793 19.0676 67.3805 18.4995C67.139 17.8887 66.8549 17.2496 66.4572 16.5252C65.8181 15.4315 65.3352 14.5083 65.0511 13.7839C64.7244 13.0595 64.5256 12.4204 64.4119 11.8522C64.2841 11.2415 64.2557 10.5597 64.2557 9.79271C64.2557 7.49172 64.625 5.64525 65.3067 4.2391C66.0311 2.83294 66.9118 1.82448 67.9628 1.21373C69.0139 0.602974 70.0933 0.333112 71.2296 0.333112C71.9114 0.333112 72.5932 0.460937 73.3176 0.702398C74.0419 0.986469 74.7237 1.42679 75.3771 2.10856C76.0588 2.79033 76.5418 3.75617 76.8684 4.96347H77.8343V6.17079H72.8062V4.96347H73.417C73.3318 4.08285 73.0477 3.31586 72.65 2.59148C72.2097 1.90971 71.5563 1.58303 70.7609 1.58303C70.0791 1.58303 69.511 1.8671 69.0707 2.50626C68.673 3.14542 68.3463 3.95502 68.1475 4.92086C67.9486 5.92932 67.8208 6.93778 67.8208 8.01726C67.8208 8.50018 67.8634 8.98309 67.906 9.46601C68.8718 8.21609 69.9939 7.61956 71.2865 7.61956C71.812 7.61956 72.3375 7.74739 72.8204 8.01726C73.346 8.30133 73.7863 8.65641 74.1556 9.18194C74.5533 9.70747 74.8373 10.304 75.0078 11.0284H75.86V12.2357H70.8319V11.0284L70.7751 11.0426ZM80.3625 20.1045V10.7585C80.3625 8.42915 80.5188 6.52587 80.8028 5.00608C81.1295 3.51471 81.6551 2.35001 82.4505 1.5404C83.2601 0.7308 84.3821 0.333112 85.8309 0.333112C86.5127 0.333112 87.0808 0.460937 87.6064 0.702398C88.1745 0.986469 88.6148 1.31316 88.9699 1.75347C89.3392 2.23639 89.6091 2.71932 89.7795 3.28746C89.9783 3.89821 90.0636 4.45215 90.0636 5.10552C90.0636 6.55428 89.7369 7.60534 89.1403 8.2445C88.5012 8.92627 87.7342 9.25296 86.882 9.25296C86.3138 9.25296 85.7173 8.92629 85.0355 8.32974L84.1549 9.93473C84.6378 10.5029 85.1207 10.9432 85.5611 11.2699C86.0014 11.5966 86.4417 11.838 86.9246 11.9942C87.4075 12.1505 87.8904 12.2357 88.4586 12.2357H88.6574C89.0551 12.2357 89.3818 12.3209 89.5807 12.4346C89.7795 12.5908 89.95 12.8038 89.9784 13.0737C90.0636 13.3578 90.0636 13.7555 90.0636 14.281V19.7636C90.0636 20.1613 90.021 20.4454 89.9784 20.6442C89.9358 20.8857 89.7795 21.0419 89.5807 21.1698C89.3392 21.2976 88.9699 21.326 88.487 21.326H78.6581V20.1187H80.3483L80.3625 20.1045ZM83.5441 20.1045H86.044C86.3707 20.1045 86.6121 19.9483 86.7257 19.7068C86.8394 19.4653 86.9246 18.9398 86.9246 18.1302V14.7924C86.9246 14.3521 86.882 14.0253 86.7968 13.8265C86.6689 13.6276 86.4275 13.3862 86.0298 13.0595C85.3054 12.4914 84.8225 12.0511 84.4958 11.7244C84.1691 11.4403 83.8566 11 83.5299 10.4745V20.0903L83.5441 20.1045ZM83.5441 9.43762L84.7088 7.13662C85.1065 7.4633 85.4332 7.61956 85.6321 7.61956C85.9161 7.61956 86.2002 7.37808 86.4843 6.93777C86.7684 6.45485 86.9246 5.68786 86.9246 4.60838C86.9246 3.52891 86.7684 2.79033 86.4843 2.30741C86.1576 1.82449 85.7599 1.58303 85.3196 1.58303C84.5952 1.58303 84.1123 2.10857 83.8708 3.15963C83.672 4.25331 83.5015 5.70207 83.5015 7.46332V8.42915C83.5015 8.79844 83.5441 9.15354 83.5441 9.43762ZM104.878 8.03145H99.5232V6.82414H100.404C100.404 4.84984 100.205 3.4863 99.7646 2.7193C99.3669 1.95231 98.8414 1.59723 98.188 1.59723C97.7903 1.59723 97.3784 1.75346 97.0233 2.16537C96.654 2.53466 96.3416 3.21643 96.1427 4.13966C95.9013 5.0629 95.7734 6.31282 95.7734 7.91782C95.7734 9.0399 95.816 10.1762 95.9297 11.2131C96.0433 12.2499 96.2563 13.585 96.4978 15.119C96.7819 16.8519 96.9381 18.258 96.9381 19.3801C96.9381 19.5079 96.9381 19.6642 96.8955 19.7778C96.8955 19.934 96.8529 20.1045 96.8529 20.2607C96.8103 20.417 96.7677 20.5448 96.7677 20.63C96.7677 20.7152 96.7251 20.7863 96.7251 20.8715C96.7251 20.9141 96.6824 20.9993 96.6824 21.0277C96.8103 21.1556 96.9665 21.184 97.1654 21.184C97.6483 21.184 98.1738 20.8573 98.6567 20.1329C99.1823 19.4511 99.58 18.5279 99.9067 17.4342C100.233 16.3121 100.39 15.1332 100.39 13.9685V13.2442H99.509V11.9942H104.864V13.2442H104.011C103.969 14.4941 103.727 15.6161 103.33 16.6672C102.932 17.7609 102.364 18.6842 101.682 19.4511C101 20.2608 100.276 20.8573 99.4664 21.2976C98.6568 21.7379 97.8614 21.9368 97.137 21.9368C96.5262 21.9368 96.0433 21.8089 95.6456 21.5675V21.1698C95.6456 20.6868 95.603 20.2465 95.5604 19.8346C95.5178 19.4653 95.3615 18.9824 95.1627 18.3859C94.9212 17.7751 94.5945 17.0223 94.1116 16.1275C93.5435 15.0764 93.1032 14.1532 92.8191 13.3862C92.535 12.5766 92.3788 11.8948 92.2935 11.3267C92.2083 10.7586 92.1657 10.1194 92.1657 9.39501C92.1657 7.54854 92.4498 5.92932 93.0179 4.56577C93.5861 3.20223 94.3105 2.15118 95.2763 1.38419C96.2421 0.659803 97.2506 0.290503 98.3727 0.290503C100.304 0.290503 101.668 0.972271 102.478 2.35002C103.33 3.68516 103.813 5.16232 104.011 6.78153H104.864V7.98884L104.878 8.03145ZM111.085 9.84951H111.852L112.136 8.99729C112.264 8.62799 112.377 8.27292 112.463 7.94624C112.548 7.61955 112.619 7.3781 112.704 7.26447C112.747 7.10823 112.789 6.89516 112.86 6.69631C113.102 5.97193 113.386 5.24755 113.67 4.43795C113.954 3.62834 114.238 2.94657 114.522 2.30741C114.849 1.69666 115.204 1.21373 115.616 0.858638C115.985 0.489345 116.425 0.333112 116.951 0.333112C117.59 0.333112 118.201 0.489345 118.769 0.858638C118.485 1.82448 118.371 2.35002 118.329 2.50626C118.286 2.6625 118.286 2.98917 118.243 3.47209C118.201 3.95501 118.158 4.43794 118.158 4.87826H117.761C117.519 4.75042 117.32 4.6368 117.121 4.50897C116.795 4.26751 116.44 4.13966 116.028 4.13966C115.616 4.13966 115.261 4.33853 114.977 4.70782C114.65 5.10552 114.338 5.71627 114.053 6.48327C113.727 7.25026 113.286 8.45757 112.69 10.1478C113.784 10.5171 114.749 11 115.545 11.6392C116.354 12.2783 117.036 13.2868 117.562 14.6645C118.087 16.0281 118.371 17.8461 118.371 20.1045H119.621V21.3118H114.068V20.1045H114.877C114.92 19.3375 114.92 18.812 114.92 18.4995C114.92 17.4058 114.835 16.44 114.721 15.6019C114.593 14.7923 114.394 14.068 114.11 13.4288C113.826 12.7896 113.428 12.2215 112.946 11.8238C112.463 11.3835 111.852 11.0568 111.128 10.858V20.1187H112.377V21.326H106.298V20.1187H107.989V1.99493H106.298V0.787616H112.534V1.99493H111.128V9.84951H111.085ZM125.7 1.59723H124.124V0.347308H130.444V1.59723H128.839L132.589 20.1187H133.995V21.326H127.874V20.1187H129.45L127.916 12.5056C127.76 13.4714 127.547 14.4799 127.234 15.6019C126.95 16.6956 126.595 17.6899 126.141 18.6273C125.686 19.5648 125.26 20.3175 124.735 20.8857C124.166 21.4538 123.641 21.7379 123.087 21.7379C122.476 21.7379 121.922 21.4538 121.482 20.8857C121.042 20.2749 120.843 19.3943 120.843 18.2296C120.843 17.1786 120.971 16.0565 121.283 14.7639C121.61 13.514 122.007 12.2641 122.533 11.0142C123.016 9.72169 123.627 8.35814 124.266 6.95199C124.308 6.82416 124.507 6.38384 124.877 5.58843C125.246 4.82144 125.487 4.22489 125.601 3.77038C125.729 3.37268 125.757 2.91816 125.757 2.43524C125.757 2.19378 125.757 1.86711 125.715 1.58303L125.7 1.59723ZM127.305 9.69327L126.425 5.0203C125.658 6.55429 124.976 8.04566 124.45 9.45181C124.053 10.4603 123.726 11.3835 123.485 12.2357C123.243 13.1163 123.087 14.0112 123.002 14.977V15.7866C123.13 16.7098 123.485 17.1928 124.166 17.1928C124.692 17.1928 125.175 16.7525 125.615 15.9003C126.055 15.0196 126.467 13.9686 126.737 12.8039C127.064 11.6392 127.22 10.5881 127.305 9.70747V9.69327ZM148 0.801833V2.05173H146.31V20.1329H148V21.3402H142.162V20.1329H143.128V11.1136C142.404 11.1136 141.722 11.3977 141.069 11.9232C140.458 12.4062 139.947 13.3294 139.535 14.5793C139.137 15.8292 138.924 17.4342 138.924 19.4938V20.1329H139.734V21.3402H134.464V20.1329H135.387C135.472 18.5279 135.671 17.1502 136.026 15.9429C136.396 14.7782 136.879 13.8123 137.475 13.0879C138.043 12.3209 138.725 11.7528 139.449 11.3977C140.216 11.0284 140.941 10.7869 141.75 10.7585V10.3608C139.663 9.96314 138.128 9.11093 137.163 7.78999C136.197 6.49747 135.671 5.04871 135.671 3.4437C135.671 2.6341 135.828 2.03755 136.069 1.66825C136.31 1.27055 136.637 1.02908 137.035 0.943856C137.433 0.858635 138.043 0.816029 138.81 0.816029H147.986L148 0.801833ZM143.128 8.94048V2.05173H140.827C139.776 2.05173 139.251 2.61988 139.251 3.82718C139.251 4.6794 139.407 5.47482 139.776 6.24181C140.103 7.05141 140.543 7.69058 141.14 8.1735C141.708 8.65642 142.39 8.94048 143.114 8.94048H143.128ZM5.45284 44.3642H6.17723L6.4613 43.5546C6.61754 43.1853 6.70275 42.8302 6.78798 42.5035C6.91581 42.1769 6.98682 41.9354 7.02943 41.8218C7.11466 41.6656 7.15727 41.4525 7.22828 41.211C7.46974 40.5292 7.71122 39.8049 7.99529 38.9953C8.27936 38.1856 8.60604 37.4613 8.87591 36.8647C9.20259 36.254 9.51507 35.7711 9.92698 35.416C10.3247 35.0467 10.7792 34.8904 11.2905 34.8904C11.9297 34.8904 12.4978 35.0467 13.066 35.416C12.8245 36.3818 12.6967 36.9073 12.6683 37.0636C12.6256 37.2198 12.583 37.5465 12.583 38.0294C12.5404 38.5123 12.4978 38.9952 12.4978 39.4356H12.1001C11.8587 39.3077 11.6598 39.1941 11.4609 39.0379C11.1343 38.839 10.7366 38.7112 10.3673 38.7112C9.96958 38.7112 9.60029 38.91 9.2736 39.2793C8.98953 39.677 8.66286 40.2452 8.35038 41.0122C8.06631 41.8218 7.62599 43.0291 7.01524 44.7193C8.10891 45.0886 9.07475 45.5715 9.87015 46.2107C10.6656 46.8499 11.3189 47.8583 11.8871 49.2361C12.4126 50.5996 12.6541 52.375 12.6967 54.6334H13.9466V55.8833H8.39299V54.6334H9.20258C9.20258 53.909 9.24519 53.3835 9.24519 53.0568C9.24519 51.9632 9.15997 50.9973 9.04634 50.1593C8.91851 49.3497 8.71967 48.6253 8.4356 47.9861C8.15153 47.347 7.75381 46.7788 7.27089 46.3811C6.74536 45.9408 6.14881 45.6142 5.45284 45.4153V54.6334H6.70276V55.8833H0.581017V54.6334H2.27125V36.5522H0.581017V35.345H6.81639V36.5522H5.45284V44.3642ZM21.8012 45.6141H22.5682C22.4403 45.0034 22.2415 44.6057 22 44.279C21.7586 43.9949 21.5171 43.8387 21.2756 43.8387C20.8353 43.8387 20.4234 43.9665 19.9831 44.1654C19.5854 44.4068 19.2161 44.7761 18.9747 45.1738C19.1025 46.509 19.3013 47.631 19.4576 48.5543C19.699 49.5627 19.8553 50.4008 19.9405 50.9689C20.0257 51.5797 20.0683 52.3324 20.0683 53.2983C20.0683 53.8238 19.9831 54.3494 19.8695 54.8749C20.0683 55.0027 20.3098 55.0737 20.6365 55.0737C21.8012 55.0737 22.696 54.6334 23.2925 53.7102C23.8607 52.8296 24.2584 51.8211 24.4146 50.6564H23.3636V49.4491H28.7183V50.6564L27.9513 50.699C27.5536 51.7075 27.0707 52.6733 26.4173 53.5113C25.7782 54.3919 25.0822 55.0879 24.3294 55.5709C23.5624 56.0538 22.7954 56.2952 22.0284 56.2952C21.4603 56.2952 20.9063 56.2526 20.253 56.1674C19.6138 56.0822 19.0883 55.9259 18.6764 55.7697C18.6764 55.4004 18.719 55.1306 18.719 54.9601C18.719 54.2783 18.5912 53.625 18.3923 53.0284C18.1935 52.4603 17.8668 51.8211 17.4691 51.0967C16.8299 50.0031 16.3754 49.0798 16.0629 48.3555C15.7362 47.6311 15.5374 46.9919 15.4238 46.4237C15.3385 45.813 15.2675 45.1312 15.2675 44.3642C15.2675 42.0632 15.6368 40.2168 16.3612 38.8106C17.043 37.4045 17.9378 36.396 18.9747 35.7853C20.0683 35.1745 21.1478 34.9047 22.2415 34.9047C22.9233 34.9047 23.6476 35.0325 24.372 35.2739C25.0964 35.5154 25.7782 35.9983 26.4315 36.6801C27.0707 37.3619 27.5536 38.2851 27.8803 39.4924H28.8461V40.7423H23.8181V39.4924H24.4572C24.3294 38.6402 24.0879 37.8448 23.6476 37.163C23.2073 36.4812 22.5966 36.1119 21.7585 36.1119C21.0768 36.1119 20.5086 36.4386 20.1109 37.0778C19.6706 37.6886 19.3439 38.5265 19.1451 39.4924C18.9462 40.5008 18.861 41.5093 18.861 42.5461C18.861 43.0717 18.861 43.5546 18.9036 44.0376C19.9121 42.7876 21.0342 42.1911 22.3267 42.1911C22.8522 42.1911 23.3352 42.3189 23.8607 42.5888C24.3436 42.8302 24.7839 43.2279 25.1958 43.7535C25.5651 44.2364 25.835 44.8756 26.048 45.6H26.8576V46.8072H21.8296V45.6L21.8012 45.6141ZM34.769 48.0288V54.6334H36.4593V55.8833H29.9398V54.6334H31.6301V43.8813C31.6301 42.3473 31.6727 40.8559 31.7153 39.4072C32.113 38.001 32.7663 36.9073 33.647 36.1119C34.5276 35.3023 35.4934 34.9047 36.5871 34.9047C37.6808 34.9047 38.604 35.1461 39.371 35.6716C40.1806 36.1972 40.7345 36.8789 41.1464 37.8022C41.5441 38.6828 41.7572 39.6912 41.7572 40.7849C41.7572 41.8786 41.6294 42.8018 41.3169 43.6825C41.0328 44.5347 40.6351 45.259 40.1096 45.742C39.5414 46.2249 38.9875 46.4664 38.3341 46.4664C38.0075 46.4664 37.7234 46.4238 37.5245 46.3101C37.3257 46.2249 37.0416 46.026 36.6439 45.742C36.4451 45.5857 36.2746 45.4579 36.2036 45.4153L34.7974 48.0288H34.769ZM34.769 46.2533L36.1042 43.8813C36.232 44.0375 36.3456 44.1654 36.5019 44.2506C36.6581 44.3358 36.7859 44.4068 36.8285 44.4068C37.1552 44.4068 37.4677 44.1228 37.7518 43.5972C38.0359 43.1143 38.1495 42.1485 38.1495 40.6997C38.1495 39.2509 38.0217 38.1572 37.7802 37.3618C37.5387 36.5664 37.0984 36.1119 36.4451 36.1119C35.9195 36.1119 35.5644 36.396 35.323 36.9215C35.0815 37.4045 34.9253 38.0437 34.8827 38.768C34.7974 39.535 34.7548 40.4582 34.7548 41.5803V46.2533H34.769ZM48.2624 36.1119H46.6858V34.9047H53.0064V36.1119H51.4014L55.1512 54.6334H56.5573V55.8833H50.4782V54.6334H52.0122L50.4782 47.0203C50.3504 48.0288 50.1089 49.0372 49.839 50.1593C49.5124 51.253 49.1573 52.2472 48.717 53.1847C48.3193 54.1079 47.8363 54.8749 47.3108 55.443C46.7853 56.0112 46.2171 56.2952 45.6632 56.2952C45.0524 56.2952 44.4985 56.0111 44.0582 55.4146C43.6179 54.8465 43.419 53.9658 43.419 52.8011C43.419 51.7501 43.5753 50.5854 43.9019 49.3355C44.2286 48.0855 44.6263 46.8357 45.1092 45.5573C45.6348 44.3074 46.2029 42.9439 46.8421 41.4951C46.8847 41.4099 47.0835 40.9696 47.4528 40.16C47.8505 39.3504 48.092 38.7964 48.1772 38.3419C48.305 37.9442 48.3761 37.4897 48.3761 37.0068C48.3761 36.7653 48.3335 36.4386 48.2908 36.1261L48.2624 36.1119ZM49.9101 44.2506L48.9868 39.5776C48.2198 41.1116 47.5807 42.5603 47.0125 44.0091C46.6432 45.0176 46.3307 45.9408 46.0893 46.793C45.8052 47.6737 45.649 48.5685 45.5638 49.5343V50.3013C45.6916 51.2672 46.0893 51.7501 46.7284 51.7501C47.254 51.7501 47.7369 51.3098 48.1772 50.4149C48.6175 49.5627 49.0294 48.5259 49.2993 47.3612C49.626 46.1539 49.8248 45.1454 49.9101 44.2648V44.2506ZM65.534 54.6334L63.3182 39.7339C62.7927 40.8986 62.395 41.9922 62.0257 43.0007C61.699 44.0091 61.415 45.0176 61.2587 46.026C61.1025 47.0771 61.0172 48.0856 61.0172 49.1224C61.0172 49.7616 61.0599 50.6564 61.1451 51.8211C61.2303 52.9858 61.2729 53.7102 61.3013 53.9942V55.4856C61.2587 55.7697 61.1735 56.0112 61.0172 56.0964C60.861 56.1816 60.7332 56.2242 60.5343 56.2242C60.3781 56.2242 60.1366 56.1816 59.81 56.0964H58.6452C58.4038 56.139 58.276 56.1816 58.2049 56.1816C57.9635 56.1816 57.8072 56.0254 57.6794 55.7413C57.5516 55.4572 57.5232 54.8891 57.5232 54.0511C57.5232 52.6023 57.651 51.3098 57.9209 50.1877C58.1623 49.023 58.5316 48.0145 58.9293 47.0913C59.327 46.2107 59.9378 45.0034 60.7048 43.512C61.4718 42.0206 61.9973 40.8559 62.3524 39.9753C62.6791 39.1231 62.8353 38.2425 62.8353 37.3618C62.8353 37.163 62.8353 36.9215 62.7927 36.5948H61.3013V35.3876H67.0964V36.5948H65.9743L68.5452 53.8238L70.8035 36.5948H69.9229V35.3876H75.4055V36.5948H74.0703L76.8116 54.676H78.2178V55.9259H72.7352V54.676H73.6158L71.3148 39.2509L69.3405 54.676H70.4342V55.9259H64.4687V54.676H65.5198L65.534 54.6334ZM88.7995 41.6229L84.2969 49.5485V54.6192H85.7031V55.8691H79.4677V54.6192H81.1579V36.5381H79.4677V35.3307H85.7031V36.5381H84.2969V47.6168L88.7995 39.6913V36.5522H87.3933V35.345H93.6287V36.5522H91.9385V54.6334H93.6287V55.8833H87.3933V54.6334H88.7995V41.6229ZM100.077 44.3642H100.844L101.128 43.5546C101.256 43.1853 101.37 42.8302 101.455 42.5035C101.54 42.1769 101.611 41.9354 101.696 41.8218C101.739 41.6656 101.782 41.4525 101.853 41.211C102.094 40.5292 102.378 39.8049 102.662 38.9953C102.946 38.1856 103.23 37.4613 103.514 36.8647C103.841 36.254 104.196 35.7711 104.608 35.416C104.977 35.0467 105.418 34.8904 105.943 34.8904C106.582 34.8904 107.193 35.0467 107.761 35.416C107.477 36.3818 107.364 36.9073 107.321 37.0636C107.278 37.2198 107.278 37.5465 107.236 38.0294C107.193 38.5123 107.15 38.9952 107.15 39.4356H106.753C106.511 39.3077 106.312 39.1941 106.114 39.0379C105.787 38.839 105.432 38.7112 105.02 38.7112C104.608 38.7112 104.253 38.91 103.969 39.2793C103.642 39.677 103.33 40.2452 103.046 41.0122C102.719 41.8218 102.279 43.0291 101.682 44.7193C102.776 45.0886 103.742 45.5715 104.537 46.2107C105.347 46.8499 106.028 47.8583 106.554 49.2361C107.079 50.5996 107.364 52.375 107.364 54.6334H108.613V55.8833H103.06V54.6334H103.869C103.912 53.909 103.912 53.3835 103.912 53.0568C103.912 51.9632 103.827 50.9973 103.713 50.1593C103.585 49.3497 103.387 48.6253 103.102 47.9861C102.818 47.347 102.421 46.7788 101.938 46.3811C101.455 45.9408 100.844 45.6142 100.12 45.4153V54.6334H101.37V55.8833H95.2905V54.6334H96.9807V36.5522H95.2905V35.345H101.526V36.5522H100.12V44.3642H100.077ZM114.693 36.1119H113.116V34.9047H119.437V36.1119H117.832L121.581 54.6334H122.987V55.8833H116.866V54.6334H118.442L116.908 47.0203C116.752 48.0288 116.539 49.0372 116.227 50.1593C115.943 51.253 115.587 52.2472 115.133 53.1847C114.693 54.1079 114.252 54.8749 113.727 55.443C113.201 56.0112 112.633 56.2952 112.079 56.2952C111.468 56.2952 110.914 56.0111 110.474 55.4146C110.034 54.8465 109.835 53.9658 109.835 52.8011C109.835 51.7501 109.991 50.5854 110.275 49.3355C110.602 48.0855 111 46.8357 111.525 45.5573C112.008 44.3074 112.619 42.9439 113.258 41.4951C113.301 41.4099 113.499 40.9696 113.869 40.16C114.238 39.3504 114.48 38.7964 114.593 38.3419C114.721 37.9442 114.749 37.4897 114.749 37.0068C114.749 36.7653 114.749 36.4386 114.707 36.1261L114.693 36.1119ZM116.298 44.2506L115.417 39.5776C114.65 41.1116 114.011 42.5603 113.443 44.0091C113.073 45.0176 112.761 45.9408 112.477 46.793C112.235 47.6737 112.079 48.5685 111.994 49.5343V50.3013C112.122 51.2672 112.477 51.7501 113.159 51.7501C113.684 51.7501 114.167 51.3098 114.607 50.4149C115.048 49.5627 115.46 48.5259 115.729 47.3612C116.056 46.1539 116.212 45.1454 116.298 44.2648V44.2506Z" fill="#DD2A1B"/>
</svg>
