<svg width="69" height="17" viewBox="0 0 69 17" fill="none" xmlns="http://www.w3.org/2000/svg">
<path d="M68.916 10.9475H63.2577V10.0107H68.916V10.9475Z" fill="#DD2A1B"/>
<path d="M68.916 5.34766V6.27606H68.4119C68.8026 6.60794 69 7.04903 69 7.60356C69 8.01105 68.8866 8.35552 68.664 8.63699C68.4371 8.91845 68.1263 9.06128 67.723 9.06128C67.2819 9.06128 66.9501 8.91005 66.7233 8.60338C66.4964 8.29671 66.383 7.89762 66.383 7.40191C66.383 7.00282 66.4418 6.62474 66.5552 6.27186H66.4796C66.194 6.27186 65.9797 6.36008 65.8285 6.53232C65.6773 6.70456 65.6017 6.95661 65.6017 7.28008C65.6017 7.65397 65.6857 8.04045 65.8579 8.45215L65.106 8.7084C64.8792 8.20009 64.7657 7.68337 64.7657 7.14986C64.7657 6.55752 64.917 6.10802 65.2152 5.80556C65.5135 5.50309 65.9419 5.35186 66.4922 5.35186H68.9202L68.916 5.34766ZM67.4374 6.25506H67.2063C67.0971 6.53232 67.0425 6.84739 67.0425 7.19187C67.0425 7.48593 67.1013 7.71698 67.2147 7.88082C67.3281 8.04465 67.4878 8.12867 67.6936 8.12867C67.8784 8.12867 68.0255 8.05306 68.1347 7.90182C68.2439 7.75059 68.2985 7.56155 68.2985 7.3347C68.2985 7.01963 68.2187 6.75917 68.0591 6.55752C67.8994 6.35168 67.6936 6.25086 67.4374 6.25086V6.25506Z" fill="#DD2A1B"/>
<path d="M69 1.90722C69 2.47015 68.7606 2.93225 68.2775 3.29353H68.9118V4.23034H63.2535V3.29353H65.5009C64.9884 2.93225 64.7321 2.47015 64.7321 1.90722C64.7321 1.39051 64.9254 0.94521 65.3118 0.567126C65.6983 0.189042 66.2192 0 66.8745 0C67.5298 0 68.0381 0.189042 68.4203 0.567126C68.8068 0.94521 69 1.39051 69 1.90722ZM68.1851 2.12567C68.1851 1.7938 68.0633 1.51654 67.8196 1.29389C67.576 1.06704 67.2567 0.957812 66.8577 0.957812C66.4586 0.957812 66.1562 1.07124 65.9125 1.29809C65.6689 1.52494 65.5471 1.8022 65.5471 2.12567C65.5471 2.44914 65.6731 2.73061 65.9209 2.96586C66.1688 3.20111 66.488 3.31874 66.8745 3.31874C67.2609 3.31874 67.5718 3.20111 67.8154 2.96586C68.0591 2.73061 68.1851 2.44914 68.1851 2.12567Z" fill="#DD2A1B"/>
<path d="M0 16.413V13.8252H0.453671V14.1571C0.630099 13.9092 0.852733 13.7832 1.12578 13.7832C1.37782 13.7832 1.59205 13.8756 1.77688 14.0647C1.96171 14.2495 2.04992 14.5058 2.04992 14.8208C2.04992 15.1359 1.95751 15.3838 1.77688 15.5728C1.59625 15.7576 1.37782 15.8543 1.12578 15.8543C0.852733 15.8543 0.630099 15.7366 0.453671 15.5056V16.4172H0V16.413ZM1.02076 15.4594C1.18038 15.4594 1.31481 15.4006 1.42402 15.2829C1.53324 15.1653 1.58785 15.0099 1.58785 14.8166C1.58785 14.6234 1.53324 14.4764 1.42402 14.3587C1.31481 14.2411 1.18038 14.1823 1.02076 14.1823C0.861135 14.1823 0.726714 14.2411 0.613296 14.3629C0.499878 14.4848 0.441069 14.636 0.441069 14.825C0.441069 15.0141 0.499878 15.1611 0.613296 15.2829C0.726714 15.4006 0.865335 15.4636 1.02076 15.4636V15.4594Z" fill="#DD2A1B"/>
<path d="M4.56192 15.8083H4.11245V15.5647C3.95282 15.7537 3.73859 15.8503 3.46975 15.8503C3.27232 15.8503 3.10429 15.7957 2.96987 15.6865C2.83545 15.5773 2.76404 15.4261 2.76404 15.2286C2.76404 15.0144 2.83965 14.8547 2.98667 14.7455C3.1337 14.6363 3.32693 14.5817 3.57056 14.5817C3.76379 14.5817 3.94862 14.6111 4.12085 14.6657V14.6279C4.12085 14.4892 4.07884 14.3842 3.99483 14.3128C3.91082 14.2414 3.789 14.2036 3.63357 14.2036C3.45295 14.2036 3.26392 14.2456 3.06649 14.3296L2.94467 13.9641C3.1883 13.8549 3.44034 13.8003 3.70078 13.8003C3.99063 13.8003 4.20486 13.8717 4.35189 14.0187C4.49891 14.1658 4.57032 14.3716 4.57032 14.6405V15.8167L4.56192 15.8083ZM4.12085 15.09V14.9766C3.98643 14.9219 3.83521 14.8967 3.66718 14.8967C3.52436 14.8967 3.41094 14.9261 3.33113 14.9808C3.25131 15.0354 3.20931 15.1152 3.20931 15.2118C3.20931 15.3 3.24711 15.3714 3.31852 15.4261C3.38994 15.4807 3.48235 15.5059 3.59157 15.5059C3.74279 15.5059 3.86881 15.4681 3.96963 15.3882C4.07044 15.3126 4.11665 15.2118 4.11665 15.0858L4.12085 15.09Z" fill="#DD2A1B"/>
<path d="M6.15396 15.8543C5.81371 15.8543 5.52386 15.7534 5.28442 15.5518L5.49866 15.2493C5.68349 15.409 5.89352 15.4846 6.12456 15.4846C6.22957 15.4846 6.31779 15.4594 6.3892 15.409C6.46061 15.3586 6.49841 15.2913 6.49841 15.2115C6.49841 15.1359 6.46481 15.0771 6.3934 15.0309C6.32199 14.9847 6.22537 14.9637 6.09515 14.9637H5.85151V14.636H6.09515C6.20017 14.636 6.28418 14.6108 6.34719 14.5646C6.4102 14.5184 6.44381 14.4554 6.44381 14.3797C6.44381 14.3125 6.4144 14.2579 6.35139 14.2159C6.28838 14.1739 6.21277 14.1529 6.11615 14.1529C5.89352 14.1529 5.70869 14.2201 5.55327 14.3545L5.35163 14.0689C5.57007 13.8798 5.83891 13.7832 6.15816 13.7832C6.37659 13.7832 6.55302 13.8336 6.69164 13.9344C6.83027 14.0353 6.89748 14.1613 6.89748 14.3167C6.89748 14.5268 6.79246 14.678 6.58663 14.7662C6.82606 14.8502 6.94788 15.0099 6.94788 15.2493C6.94788 15.4216 6.87227 15.5644 6.72525 15.682C6.57823 15.7997 6.385 15.8585 6.14976 15.8585L6.15396 15.8543Z" fill="#DD2A1B"/>
<path d="M7.80061 16.413V13.8252H8.25428V14.1571C8.43071 13.9092 8.65335 13.7832 8.92639 13.7832C9.17843 13.7832 9.39266 13.8756 9.57749 14.0647C9.76232 14.2495 9.85053 14.5058 9.85053 14.8208C9.85053 15.1359 9.75812 15.3838 9.57749 15.5728C9.39686 15.7576 9.17843 15.8543 8.92639 15.8543C8.65335 15.8543 8.43071 15.7366 8.25428 15.5056V16.4172H7.80061V16.413ZM8.82137 15.4594C8.981 15.4594 9.11542 15.4006 9.22464 15.2829C9.33385 15.1653 9.38846 15.0099 9.38846 14.8166C9.38846 14.6234 9.33385 14.4764 9.22464 14.3587C9.11542 14.2411 8.981 14.1823 8.82137 14.1823C8.66175 14.1823 8.52733 14.2411 8.41391 14.3629C8.30049 14.4848 8.24168 14.636 8.24168 14.825C8.24168 15.0141 8.30049 15.1611 8.41391 15.2829C8.52733 15.4006 8.66595 15.4636 8.82137 15.4636V15.4594Z" fill="#DD2A1B"/>
<path d="M12.3625 15.8083H11.913V15.5647C11.7534 15.7537 11.5392 15.8503 11.2703 15.8503C11.0729 15.8503 10.9049 15.7957 10.7705 15.6865C10.636 15.5773 10.5646 15.4261 10.5646 15.2286C10.5646 15.0144 10.6402 14.8547 10.7873 14.7455C10.9343 14.6363 11.1275 14.5817 11.3712 14.5817C11.5644 14.5817 11.7492 14.6111 11.9214 14.6657V14.6279C11.9214 14.4892 11.8794 14.3842 11.7954 14.3128C11.7114 14.2414 11.5896 14.2036 11.4342 14.2036C11.2535 14.2036 11.0645 14.2456 10.8671 14.3296L10.7453 13.9641C10.9889 13.8549 11.2409 13.8003 11.5014 13.8003C11.7912 13.8003 12.0055 13.8717 12.1525 14.0187C12.2995 14.1658 12.3709 14.3716 12.3709 14.6405V15.8167L12.3625 15.8083ZM11.9214 15.09V14.9766C11.787 14.9219 11.6358 14.8967 11.4678 14.8967C11.325 14.8967 11.2115 14.9261 11.1317 14.9808C11.0519 15.0354 11.0099 15.1152 11.0099 15.2118C11.0099 15.3 11.0477 15.3714 11.1191 15.4261C11.1905 15.4807 11.2829 15.5059 11.3922 15.5059C11.5434 15.5059 11.6694 15.4681 11.7702 15.3882C11.871 15.3126 11.9172 15.2118 11.9172 15.0858L11.9214 15.09Z" fill="#DD2A1B"/>
<path d="M14.2402 15.8544C13.921 15.8544 13.669 15.7535 13.4883 15.5519C13.3077 15.3502 13.2195 15.0646 13.2195 14.6991C13.2195 14.5815 13.2195 14.4764 13.2279 14.3882C13.2321 14.3 13.2447 14.2034 13.2657 14.0984C13.2825 13.9933 13.3119 13.9051 13.3455 13.8253C13.3833 13.7497 13.4295 13.6741 13.4841 13.6027C13.5387 13.5312 13.6143 13.4724 13.7026 13.422C13.7908 13.3716 13.8958 13.338 14.0134 13.3128L15.0972 13.0859L15.1728 13.4514L14.089 13.6867C13.9084 13.7245 13.7782 13.7917 13.7026 13.8883C13.6227 13.9849 13.5807 14.1068 13.5681 14.2496C13.6269 14.1488 13.7236 14.0606 13.8538 13.9891C13.984 13.9135 14.1436 13.8799 14.3327 13.8799C14.5889 13.8799 14.8115 13.9723 15.0006 14.1614C15.1854 14.3462 15.282 14.5773 15.282 14.8461C15.282 15.115 15.1854 15.3628 14.988 15.5603C14.7905 15.7577 14.5469 15.8586 14.2486 15.8586L14.2402 15.8544ZM14.2486 15.4595C14.4167 15.4595 14.5553 15.4007 14.6603 15.283C14.7653 15.1654 14.8199 15.0226 14.8199 14.8503C14.8199 14.6781 14.7653 14.5353 14.6519 14.4176C14.5385 14.3 14.4041 14.2412 14.2402 14.2412C14.0764 14.2412 13.9378 14.3 13.8328 14.4176C13.7278 14.5353 13.6732 14.6823 13.6732 14.8545C13.6732 15.0268 13.7278 15.1696 13.837 15.2872C13.9462 15.4049 14.0848 15.4637 14.2444 15.4637L14.2486 15.4595Z" fill="#DD2A1B"/>
<path d="M17.0589 15.8546C16.7564 15.8546 16.5086 15.7537 16.3069 15.5521C16.1053 15.3504 16.0045 15.1068 16.0045 14.8169C16.0045 14.5271 16.1053 14.2834 16.3069 14.0818C16.5086 13.8801 16.7606 13.7793 17.0631 13.7793C17.3655 13.7793 17.6133 13.8801 17.815 14.0818C18.0166 14.2834 18.1174 14.5271 18.1174 14.8169C18.1174 15.1068 18.0166 15.3462 17.815 15.5479C17.6133 15.7495 17.3571 15.8504 17.0547 15.8504L17.0589 15.8546ZM17.0673 15.4597C17.2479 15.4597 17.3949 15.3967 17.5041 15.2748C17.6133 15.153 17.6679 15.0018 17.6679 14.8211C17.6679 14.6405 17.6091 14.4935 17.4957 14.3674C17.3823 14.2456 17.2353 14.1826 17.0589 14.1826C16.8824 14.1826 16.7354 14.2456 16.6262 14.3674C16.517 14.4893 16.4624 14.6405 16.4624 14.8211C16.4624 15.0018 16.5212 15.1488 16.6346 15.2706C16.748 15.3967 16.895 15.4597 17.0673 15.4597Z" fill="#DD2A1B"/>
<path d="M19.3104 15.8083V14.212H18.6719V13.8213H20.4068V14.212H19.7683V15.8083H19.3104Z" fill="#DD2A1B"/>
<path d="M21.1419 15.8083V13.8213H21.5914V14.7707L22.4567 13.8213H22.9902L22.2215 14.6573L23.0574 15.8083H22.5197L21.919 14.9891L21.5956 15.3294V15.8083H21.1461H21.1419Z" fill="#DD2A1B"/>
<path d="M25.3383 15.8083H24.8889V15.5647C24.7293 15.7537 24.515 15.8503 24.2462 15.8503C24.0487 15.8503 23.8807 15.7957 23.7463 15.6865C23.6119 15.5773 23.5405 15.4261 23.5405 15.2286C23.5405 15.0144 23.6161 14.8547 23.7631 14.7455C23.9101 14.6363 24.1034 14.5817 24.347 14.5817C24.5402 14.5817 24.7251 14.6111 24.8973 14.6657V14.6279C24.8973 14.4892 24.8553 14.3842 24.7713 14.3128C24.6872 14.2414 24.5654 14.2036 24.41 14.2036C24.2294 14.2036 24.0403 14.2456 23.8429 14.3296L23.7211 13.9641C23.9647 13.8549 24.2168 13.8003 24.4772 13.8003C24.7671 13.8003 24.9813 13.8717 25.1283 14.0187C25.2753 14.1658 25.3467 14.3716 25.3467 14.6405V15.8167L25.3383 15.8083ZM24.8973 15.09V14.9766C24.7629 14.9219 24.6116 14.8967 24.4436 14.8967C24.3008 14.8967 24.1874 14.9261 24.1076 14.9808C24.0277 15.0354 23.9857 15.1152 23.9857 15.2118C23.9857 15.3 24.0235 15.3714 24.095 15.4261C24.1664 15.4807 24.2588 15.5059 24.368 15.5059C24.5192 15.5059 24.6452 15.4681 24.7461 15.3882C24.8469 15.3126 24.8931 15.2118 24.8931 15.0858L24.8973 15.09Z" fill="#DD2A1B"/>
<path d="M28.6779 15.8543C28.3839 15.8543 28.1402 15.7534 27.947 15.556C27.7538 15.3586 27.653 15.1149 27.653 14.8292V14.8208C27.653 14.5352 27.7496 14.2915 27.947 14.0899C28.1444 13.8882 28.3881 13.7832 28.6821 13.7832C29.0014 13.7832 29.266 13.8966 29.476 14.1277L29.1946 14.4301C29.035 14.2663 28.8669 14.1823 28.6779 14.1823C28.5141 14.1823 28.3797 14.2453 28.2705 14.3671C28.1612 14.489 28.1066 14.6402 28.1066 14.8124V14.8208C28.1066 15.0015 28.1612 15.1527 28.2746 15.2745C28.3881 15.3964 28.5267 15.4594 28.7031 15.4594C28.8879 15.4594 29.056 15.3754 29.2198 15.2115L29.4928 15.4804C29.3836 15.6022 29.266 15.6946 29.14 15.7576C29.014 15.8207 28.8585 15.8543 28.6779 15.8543Z" fill="#DD2A1B"/>
<path d="M31.9292 15.8083H31.4797V15.5647C31.3201 15.7537 31.1059 15.8503 30.837 15.8503C30.6396 15.8503 30.4716 15.7957 30.3371 15.6865C30.2027 15.5773 30.1313 15.4261 30.1313 15.2286C30.1313 15.0144 30.2069 14.8547 30.354 14.7455C30.501 14.6363 30.6942 14.5817 30.9378 14.5817C31.1311 14.5817 31.3159 14.6111 31.4881 14.6657V14.6279C31.4881 14.4892 31.4461 14.3842 31.3621 14.3128C31.2781 14.2414 31.1563 14.2036 31.0009 14.2036C30.8202 14.2036 30.6312 14.2456 30.4338 14.3296L30.3119 13.9641C30.5556 13.8549 30.8076 13.8003 31.0681 13.8003C31.3579 13.8003 31.5721 13.8717 31.7192 14.0187C31.8662 14.1658 31.9376 14.3716 31.9376 14.6405V15.8167L31.9292 15.8083ZM31.4881 15.09V14.9766C31.3537 14.9219 31.2025 14.8967 31.0345 14.8967C30.8916 14.8967 30.7782 14.9261 30.6984 14.9808C30.6186 15.0354 30.5766 15.1152 30.5766 15.2118C30.5766 15.3 30.6144 15.3714 30.6858 15.4261C30.7572 15.4807 30.8496 15.5059 30.9588 15.5059C31.1101 15.5059 31.2361 15.4681 31.3369 15.3882C31.4377 15.3126 31.4839 15.2118 31.4839 15.0858L31.4881 15.09Z" fill="#DD2A1B"/>
<path d="M32.8449 15.8083V13.8212H33.2902V15.1529C33.7061 14.5606 34.0211 14.1195 34.2312 13.8212H34.6596V15.8083H34.2186V14.485L33.2734 15.8083H32.8449ZM34.1471 13.4515C34.0421 13.544 33.9119 13.5944 33.7523 13.5944C33.5927 13.5944 33.4624 13.5482 33.3574 13.4515C33.2524 13.3549 33.1852 13.2289 33.16 13.0693L33.4372 13.0146C33.4918 13.1869 33.5927 13.2709 33.7481 13.2709C33.9035 13.2709 34.0085 13.1869 34.0589 13.0146L34.332 13.0693C34.3068 13.2289 34.2438 13.3591 34.1387 13.4515H34.1471Z" fill="#DD2A1B"/>
<path d="M36.0332 15.8083V14.212H35.3947V13.8213H37.1296V14.212H36.4911V15.8083H36.0332Z" fill="#DD2A1B"/>
<path d="M38.7343 15.8546C38.4318 15.8546 38.184 15.7537 37.9823 15.5521C37.7807 15.3504 37.6799 15.1068 37.6799 14.8169C37.6799 14.5271 37.7807 14.2834 37.9823 14.0818C38.184 13.8801 38.436 13.7793 38.7385 13.7793C39.0409 13.7793 39.2888 13.8801 39.4904 14.0818C39.692 14.2834 39.7928 14.5271 39.7928 14.8169C39.7928 15.1068 39.692 15.3462 39.4904 15.5479C39.2888 15.7495 39.0325 15.8504 38.7301 15.8504L38.7343 15.8546ZM38.7427 15.4597C38.9233 15.4597 39.0703 15.3967 39.1795 15.2748C39.2888 15.153 39.3434 15.0018 39.3434 14.8211C39.3434 14.6405 39.2846 14.4935 39.1711 14.3674C39.0577 14.2456 38.9107 14.1826 38.7343 14.1826C38.5578 14.1826 38.4108 14.2456 38.3016 14.3674C38.1924 14.4893 38.1378 14.6405 38.1378 14.8211C38.1378 15.0018 38.1966 15.1488 38.31 15.2706C38.4234 15.3967 38.5704 15.4597 38.7427 15.4597Z" fill="#DD2A1B"/>
<path d="M40.6371 15.8083V13.8213H41.6579C41.8553 13.8213 42.015 13.8675 42.1326 13.9557C42.2502 14.0439 42.309 14.1658 42.309 14.317C42.309 14.5228 42.204 14.6783 41.9898 14.7707C42.2628 14.8505 42.4014 15.0144 42.4014 15.2664C42.4014 15.4344 42.3342 15.5647 42.204 15.6613C42.0738 15.7579 41.8931 15.8041 41.6705 15.8041H40.6413L40.6371 15.8083ZM41.0824 14.6447H41.5487C41.6411 14.6447 41.7125 14.6237 41.7671 14.5775C41.8217 14.5312 41.8469 14.4724 41.8469 14.401C41.8469 14.3338 41.8217 14.2792 41.7755 14.2372C41.7293 14.1952 41.6537 14.1742 41.5571 14.1742H41.0824V14.6447ZM41.0824 15.4512H41.5991C41.7083 15.4512 41.7923 15.4302 41.8511 15.3798C41.9099 15.3336 41.9393 15.2706 41.9393 15.195C41.9393 15.1194 41.9099 15.0606 41.8469 15.0186C41.7839 14.9765 41.6957 14.9555 41.5781 14.9555H41.0866V15.4512H41.0824Z" fill="#DD2A1B"/>
<path d="M43.1996 15.8082V15.2915H43.6994V15.8082H43.1996Z" fill="#DD2A1B"/>
<path d="M46.1232 15.8083V13.8213H46.5727L47.1944 14.7413L47.8203 13.8213H48.2698V15.8083H47.8119V14.485L47.186 15.3756L46.5643 14.4934V15.8083H46.119H46.1232Z" fill="#DD2A1B"/>
<path d="M50.8825 15.8083H50.4331V15.5647C50.2734 15.7537 50.0592 15.8503 49.7904 15.8503C49.5929 15.8503 49.4249 15.7957 49.2905 15.6865C49.1561 15.5773 49.0847 15.4261 49.0847 15.2286C49.0847 15.0144 49.1603 14.8547 49.3073 14.7455C49.4543 14.6363 49.6475 14.5817 49.8912 14.5817C50.0844 14.5817 50.2692 14.6111 50.4415 14.6657V14.6279C50.4415 14.4892 50.3995 14.3842 50.3154 14.3128C50.2314 14.2414 50.1096 14.2036 49.9542 14.2036C49.7736 14.2036 49.5845 14.2456 49.3871 14.3296L49.2653 13.9641C49.5089 13.8549 49.761 13.8003 50.0214 13.8003C50.3112 13.8003 50.5255 13.8717 50.6725 14.0187C50.8195 14.1658 50.8909 14.3716 50.8909 14.6405V15.8167L50.8825 15.8083ZM50.4415 15.09V14.9766C50.307 14.9219 50.1558 14.8967 49.9878 14.8967C49.845 14.8967 49.7316 14.9261 49.6517 14.9808C49.5719 15.0354 49.5299 15.1152 49.5299 15.2118C49.5299 15.3 49.5677 15.3714 49.6391 15.4261C49.7106 15.4807 49.803 15.5059 49.9122 15.5059C50.0634 15.5059 50.1894 15.4681 50.2902 15.3882C50.3911 15.3126 50.4373 15.2118 50.4373 15.0858L50.4415 15.09Z" fill="#DD2A1B"/>
<path d="M51.7983 16.413V13.8252H52.252V14.1571C52.4284 13.9092 52.651 13.7832 52.9241 13.7832C53.1761 13.7832 53.3904 13.8756 53.5752 14.0647C53.76 14.2495 53.8482 14.5058 53.8482 14.8208C53.8482 15.1359 53.7558 15.3838 53.5752 15.5728C53.3946 15.7576 53.1761 15.8543 52.9241 15.8543C52.651 15.8543 52.4284 15.7366 52.252 15.5056V16.4172H51.7983V16.413ZM52.8191 15.4594C52.9787 15.4594 53.1131 15.4006 53.2223 15.2829C53.3315 15.1653 53.3862 15.0099 53.3862 14.8166C53.3862 14.6234 53.3315 14.4764 53.2223 14.3587C53.1131 14.2411 52.9787 14.1823 52.8191 14.1823C52.6594 14.1823 52.525 14.2411 52.4116 14.3629C52.2982 14.4848 52.2394 14.636 52.2394 14.825C52.2394 15.0141 52.2982 15.1611 52.4116 15.2829C52.525 15.4006 52.6636 15.4636 52.8191 15.4636V15.4594Z" fill="#DD2A1B"/>
<path d="M54.6925 15.8083V13.8213H55.142V14.7707L56.0073 13.8213H56.5408L55.7721 14.6573L56.608 15.8083H56.0704L55.4697 14.9891L55.1462 15.3294V15.8083H54.6967H54.6925Z" fill="#DD2A1B"/>
<path d="M58.0951 15.8543C57.8052 15.8543 57.5616 15.7576 57.3684 15.5644C57.1751 15.3712 57.0785 15.1233 57.0785 14.8166C57.0785 14.5268 57.1709 14.2831 57.3516 14.0857C57.5364 13.884 57.7674 13.7832 58.0489 13.7832C58.3513 13.7832 58.5824 13.884 58.7504 14.0899C58.9184 14.2957 59.0024 14.5478 59.0024 14.8502C59.0024 14.9049 59.0024 14.9469 58.994 14.9763H57.5364C57.5616 15.1359 57.6246 15.2577 57.7296 15.3459C57.8346 15.4342 57.9607 15.4804 58.1077 15.4804C58.3051 15.4804 58.4815 15.4006 58.6454 15.2451L58.91 15.4804C58.7042 15.7282 58.4353 15.8543 58.0993 15.8543H58.0951ZM57.528 14.678H58.5488C58.5319 14.5268 58.4815 14.4007 58.3933 14.2999C58.3051 14.1991 58.1875 14.1529 58.0447 14.1529C57.9018 14.1529 57.7926 14.2033 57.7002 14.2999C57.6078 14.3965 57.5532 14.5226 57.5322 14.678H57.528Z" fill="#DD2A1B"/>
<path d="M60.1828 15.8083V14.212H59.5443V13.8213H61.2792V14.212H60.6407V15.8083H60.1828Z" fill="#DD2A1B"/>
<path d="M62.0185 15.8083V13.8213H62.4638V15.153C62.8796 14.5607 63.1947 14.1196 63.4047 13.8213H63.8332V15.8083H63.3921V14.485L62.447 15.8083H62.0185Z" fill="#DD2A1B"/>
<path d="M64.7783 15.8083V13.8213H65.232V14.6279H66.1057V13.8213H66.5594V15.8083H66.1057V15.006H65.232V15.8083H64.7783Z" fill="#DD2A1B"/>
<path d="M67.5088 15.8083V13.8213H68.916V14.212H67.9667V15.8083H67.513H67.5088Z" fill="#DD2A1B"/>
<path d="M12.896 0.0253906H10.0732V11.0108H18.1678V8.53228H12.896V0.0253906Z" fill="#DD2A1B"/>
<path d="M34.6764 7.17958L31.946 0.0253906H28.8249L33.3112 11.0738H35.9954L40.4985 0.0253906H37.4195L34.6764 7.17958Z" fill="#DD2A1B"/>
<path d="M59.0108 0.0253906V6.06633L54.2095 0.0253906H51.7941V11.0108H54.5707V4.93628L59.4351 11.0108H61.7749V0.0253906H59.0108Z" fill="#DD2A1B"/>
<path d="M50.0676 0.0253906H41.7209V2.50394H50.0676V0.0253906Z" fill="#DD2A1B"/>
<path d="M44.1993 5.70488L41.7209 4.28076V6.75931H50.0676V4.28076H44.1993V5.70488Z" fill="#DD2A1B"/>
<path d="M44.1993 9.95634L41.7209 8.53223V11.0108H50.0676V8.53223H44.1993V9.95634Z" fill="#DD2A1B"/>
<path d="M0 0.0253906V2.50394V4.28093V6.75948V8.53228V11.0108H2.47839H8.61555V8.53228H2.47839V6.75948H8.61555V4.28093H2.47839V2.50394H8.61555V0.0253906H2.47839H0Z" fill="#DD2A1B"/>
<path d="M19.6297 0.0253906V2.50394V4.28093V6.75948V8.53228V11.0108H22.1081H27.9764V8.53228H22.1081V6.75948H27.9764V4.28093H22.1081V2.50394H27.9764V0.0253906H22.1081H19.6297Z" fill="#DD2A1B"/>
</svg>
