<svg display="none" xmlns="http://www.w3.org/2000/svg">

	<symbol viewBox="0 0 11 15" id="next">
		<path
			d="M0.425537 2.53631C0.425537 0.577573 2.71919 -0.483103 4.21162 0.785468L9.85509 5.58241C10.9346 6.50002 10.9346 8.16648 9.85509 9.08409L4.21163 13.881C2.71919 15.1496 0.425537 14.0889 0.425537 12.1302V2.53631Z" />
	</symbol>

	<symbol id="prev" viewBox="0 0 11 16">
		<path
			d="M10.5745 12.7191C10.5745 14.6778 8.28081 15.7385 6.78838 14.4699L1.14491 9.67296C0.0653692 8.75535 0.0653674 7.08889 1.14491 6.17128L6.78837 1.37434C8.28081 0.105767 10.5745 1.16644 10.5745 3.12517L10.5745 12.7191Z" />
	</symbol>

	<symbol id="arrow-bottom" viewBox="0 0 16 17">
		<path fill-rule="evenodd" clip-rule="evenodd"
			d="M15.7124 14.7285C15.2186 16.3231 13.2836 17.1183 11.9012 16.9857C10.0132 16.8044 7.95878 15.7405 6.3993 14.5686C4.10702 12.846 1.9598 10.1814 0.708589 7.35377C-0.175684 5.35576 -0.374087 2.89921 0.941123 1.078C1.42753 0.404815 1.95446 0.0452838 2.7438 0.00335155C3.84034 -0.0533136 3.99395 0.613184 4.37048 1.65129C4.65102 2.4276 5.02542 3.2195 5.23449 4.02414C5.62596 5.52577 4.25741 5.58853 4.08461 6.8159C3.97795 7.58994 4.86009 8.62798 5.25902 9.1799C6.02798 10.2548 6.96977 11.1766 8.04091 11.903C8.64892 12.3099 9.62813 13.0431 10.3236 12.6385C11.3945 12.0151 11.2943 10.0966 12.7908 10.7459C13.5663 11.0814 14.3172 11.5655 15.0575 11.9894C16.202 12.6433 16.1487 13.321 15.7124 14.7285C16.0388 13.6768 15.386 15.7802 15.7124 14.7285Z" />
	</symbol>

	<symbol id="phone" viewBox="0 0 16 17">
		<path fill-rule="evenodd" clip-rule="evenodd"
			d="M15.7124 14.7285C15.2186 16.3231 13.2836 17.1183 11.9012 16.9857C10.0132 16.8044 7.95878 15.7405 6.3993 14.5686C4.10702 12.846 1.9598 10.1814 0.708589 7.35377C-0.175684 5.35576 -0.374087 2.89921 0.941123 1.078C1.42753 0.404815 1.95446 0.0452838 2.7438 0.00335155C3.84034 -0.0533136 3.99395 0.613184 4.37048 1.65129C4.65102 2.4276 5.02542 3.2195 5.23449 4.02414C5.62596 5.52577 4.25741 5.58853 4.08461 6.8159C3.97795 7.58994 4.86009 8.62798 5.25902 9.1799C6.02798 10.2548 6.96977 11.1766 8.04091 11.903C8.64892 12.3099 9.62813 13.0431 10.3236 12.6385C11.3945 12.0151 11.2943 10.0966 12.7908 10.7459C13.5663 11.0814 14.3172 11.5655 15.0575 11.9894C16.202 12.6433 16.1487 13.321 15.7124 14.7285C16.0388 13.6768 15.386 15.7802 15.7124 14.7285Z" />
	</symbol>

	<symbol id="close" viewBox="0 0 33 33">
		<path
			d="M32.1881 0.470888C31.5602 -0.156956 30.5423 -0.15697 29.9144 0.470888L16.5 13.8853L3.08557 0.470888C2.45772 -0.156956 1.43979 -0.15697 0.811933 0.470888L0.470888 0.811933C-0.15697 1.43979 -0.156956 2.45772 0.470888 3.08557L13.8853 16.5L0.470888 29.9144C-0.15697 30.5423 -0.156956 31.5602 0.470888 32.1881L0.811933 32.5291C1.43978 33.157 2.45771 33.157 3.08557 32.5291L16.5 19.1147L29.9144 32.5291C30.5423 33.157 31.5602 33.157 32.1881 32.5291L32.5291 32.1881C33.157 31.5602 33.157 30.5423 32.5291 29.9144L19.1147 16.5L32.5291 3.08557C33.157 2.45771 33.157 1.43978 32.5291 0.811933L32.1881 0.470888Z"/>
	</symbol>

</svg>