<svg width="41" height="35" viewBox="0 0 41 35" fill="none" xmlns="http://www.w3.org/2000/svg">
<path d="M39.1969 15.0603C37.9421 23.1892 36.5785 32.0754 36.5785 32.0754C36.5785 32.0754 36.3681 34.5688 34.5874 35C32.6797 34.9697 30.8359 34.2838 29.3469 33.0503C28.9262 32.7241 21.4843 27.8498 18.7606 25.4651C18.4829 25.2712 18.2571 25.0077 18.1045 24.6992C17.9518 24.3908 17.8773 24.0473 17.8878 23.701C17.8983 23.3546 17.9935 23.0167 18.1645 22.7187C18.3356 22.4207 18.5768 22.1723 18.8658 21.9968C22.599 18.4565 26.2674 14.8439 29.8691 11.1609C31.1276 9.85981 32.3861 6.82649 27.1455 10.5122C19.7036 15.8215 12.3668 20.8045 12.3668 20.8045C11.6112 21.157 10.7946 21.3482 9.96578 21.3669C9.13701 21.3856 8.3131 21.2313 7.54333 20.9132C4.399 19.9384 0.732432 18.6373 0.732432 18.6373C0.732432 18.6373 -1.78448 17.0138 2.51313 15.2628C2.51313 15.2628 20.6465 7.56888 26.9352 4.86177C29.3469 3.77817 37.5214 0.30991 37.5214 0.30991C37.5214 0.30991 41.2968 -1.20863 40.9813 2.4771C40.8761 4.01063 40.0383 9.31988 39.1969 15.0603Z" fill="#DD2A1B"/>
</svg>
