<svg width="48" height="31" viewBox="0 0 48 31" fill="none" xmlns="http://www.w3.org/2000/svg">
<path d="M39.8314 17.7763C39.0554 16.6913 39.2774 16.2086 39.8314 15.2387C39.8414 15.2276 46.2476 5.42721 46.9076 2.10357L46.9116 2.10136C47.2396 0.890143 46.9116 0 45.3256 0H40.0774C38.7413 0 38.1253 0.763928 37.7953 1.61864C37.7953 1.61864 35.1232 8.69993 31.3431 13.2901C30.123 14.6165 29.559 15.0416 28.893 15.0416C28.565 15.0416 28.055 14.6165 28.055 13.4053V2.10136C28.055 0.648785 27.681 0 26.5749 0H18.3226C17.4846 0 16.9866 0.677572 16.9866 1.30864C16.9866 2.68593 18.8767 3.00257 19.0727 6.87757V15.2852C19.0727 17.1275 18.7707 17.4663 18.1006 17.4663C16.3166 17.4663 11.9864 10.3562 9.42033 2.21871C8.90231 0.639928 8.39629 0.00221413 7.05024 0.00221413H1.80006C0.30201 0.00221413 0 0.766143 0 1.62086C0 3.131 1.78406 10.6396 8.29629 20.5596C12.6364 27.3309 18.7487 31 24.3088 31C27.651 31 28.059 30.1851 28.059 28.7835C28.059 22.3134 27.757 21.7022 29.431 21.7022C30.207 21.7022 31.5431 22.1274 34.6632 25.3934C38.2293 29.2662 38.8153 31 40.8114 31H46.0596C47.5556 31 48.3137 30.1851 47.8777 28.5776C46.8796 25.1964 40.1354 18.2413 39.8314 17.7763Z" fill="#DD2A1B"/>
</svg>
